<svg width="30" height="30" viewBox="0 0 30 30" fill="none" xmlns="http://www.w3.org/2000/svg">
<rect width="30" height="30" rx="15" fill="#1652F0"/>
<path d="M14.333 9.66667H9.66634C9.31272 9.66667 8.97358 9.80715 8.72353 10.0572C8.47348 10.3072 8.33301 10.6464 8.33301 11V20.3333C8.33301 20.687 8.47348 21.0261 8.72353 21.2761C8.97358 21.5262 9.31272 21.6667 9.66634 21.6667H18.9997C19.3533 21.6667 19.6924 21.5262 19.9425 21.2761C20.1925 21.0261 20.333 20.687 20.333 20.3333V15.6667M19.333 8.66667C19.5982 8.40145 19.9579 8.25246 20.333 8.25246C20.7081 8.25246 21.0678 8.40145 21.333 8.66667C21.5982 8.93189 21.7472 9.2916 21.7472 9.66667C21.7472 10.0417 21.5982 10.4015 21.333 10.6667L14.9997 17L12.333 17.6667L12.9997 15L19.333 8.66667Z" stroke="white" stroke-width="2" stroke-linecap="round" stroke-linejoin="round"/>
</svg>
