<svg xmlns="http://www.w3.org/2000/svg" width="145" height="145" viewBox="0 0 145 145"><defs><style>.a{fill:#fff;stroke-width:2px;}.a,.b{stroke:#00308f;}.b,.e{fill:none;}.b{stroke-linecap:round;stroke-width:4px;}.c{fill:#00308f;}.d{stroke:none;}</style></defs><g class="a"><circle class="d" cx="72.5" cy="72.5" r="72.5"/><circle class="e" cx="72.5" cy="72.5" r="71.5"/></g><line class="b" x2="25" transform="translate(59.5 113.5)"/><path class="c" d="M44.68,28.642c-20.581,0-27.964-11.159-28.267-11.628A2.6,2.6,0,1,1,20.8,14.2c.245.36,6.33,9.224,23.881,9.224a2.607,2.607,0,0,1,0,5.214Z" transform="matrix(0.998, 0.07, -0.07, 0.998, 77.892, 32.762)"/><path class="c" d="M8.607,28.631a2.607,2.607,0,0,1,0-5.214c17.551,0,23.636-8.864,23.887-9.245a2.625,2.625,0,0,1,3.6-.751A2.6,2.6,0,0,1,36.874,17C36.571,17.472,29.188,28.631,8.607,28.631Z" transform="matrix(0.995, -0.105, 0.105, 0.995, 12.8, 37.306)"/><g transform="translate(29.507 82.121) rotate(-7)"><path class="c" d="M50.087,45.759c-2.677.68-3.719,2.671-6.062,3.181a51.2,51.2,0,0,1-8.664,1.443c-2.343,0-4.9-1-7.246-1.507-2.51-.34-4.468-2.436-7.313-2.946h0a2.4,2.4,0,0,0-2.677,1.7,2.26,2.26,0,0,0,.5,2.04,22.092,22.092,0,0,0,7.53,5.441,25.074,25.074,0,0,0,9.371,2.04A24.923,24.923,0,0,0,44.9,55.28a24.01,24.01,0,0,0,7.7-5.271,2.438,2.438,0,0,0-.167-3.4,2.319,2.319,0,0,0-2.343-.85Z" transform="translate(-18.063 -45.7)"/></g><g transform="matrix(0.995, 0.105, -0.105, 0.995, 80.613, 79.128)"><path class="c" d="M49.586,45.754c-2.636.624-3.661,2.452-5.967,2.92A53.75,53.75,0,0,1,35.091,50c-2.306,0-4.826-.916-7.133-1.384-2.471-.312-4.4-2.236-7.2-2.7h0a2.373,2.373,0,0,0-2.636,1.561,1.974,1.974,0,0,0,.494,1.873,21.759,21.759,0,0,0,7.413,4.994,26.206,26.206,0,0,0,9.225,1.873,26.083,26.083,0,0,0,9.225-1.717,23.767,23.767,0,0,0,7.577-4.838,2.132,2.132,0,0,0-.165-3.121,2.377,2.377,0,0,0-2.306-.78Z" transform="translate(-18.063 -45.7)"/></g></svg>