<svg xmlns="http://www.w3.org/2000/svg" width="84.116" height="66.127" viewBox="0 0 84.116 66.127"><defs><style>.a{fill:#fff;}</style></defs><path class="a" d="M0,0H8.456V16.3c.543-.342.976-.625,1.414-.912A20.715,20.715,0,0,1,38.6,22.567a.62.62,0,0,1-.078.857c-1.788,2.148-3.544,4.324-5.309,6.495-.123.146-.233.3-.388.511-.05-.155-.1-.255-.123-.36a12.3,12.3,0,1,0-14.544,15.01,12.314,12.314,0,0,0,7.229-.912,15.288,15.288,0,0,0,6.5-5.076c3.019-4.137,6.043-8.273,9.122-12.351a58.8,58.8,0,0,1,9.021-9.509,19.94,19.94,0,0,1,11.4-4.771A20.332,20.332,0,0,1,78.6,18.982,19.894,19.894,0,0,1,84.015,31.16,20.758,20.758,0,0,1,51.724,50.233l-.616-.388V66.082a2.944,2.944,0,0,1-.365.046H43.291c-.456,0-.629-.087-.629-.6q.027-10.631,0-21.258a2.03,2.03,0,0,1,.456-1.336c2.235-2.869,4.438-5.76,6.663-8.638.383-.493.821-.94,1.245-1.423a26.743,26.743,0,0,0,.379,2.878,11.943,11.943,0,0,0,8.465,9.044,12.246,12.246,0,0,0,8.086-23.1,11.766,11.766,0,0,0-12.474,2.043,60.348,60.348,0,0,0-8.962,9.482c-2.933,3.767-5.733,7.63-8.666,11.4a23.145,23.145,0,0,1-10.809,8.086A19.555,19.555,0,0,1,9.614,50.575,20.086,20.086,0,0,1,.324,36.646,19.8,19.8,0,0,1,0,33.048Q0,16.829,0,.607Z" transform="translate(0)"/></svg>