<svg width="98" height="125" viewBox="0 0 98 125" fill="none" xmlns="http://www.w3.org/2000/svg">
<path d="M61.4201 124.048C60.4409 123.864 59.4618 123.698 58.4944 123.485C50.4058 121.704 44.952 116.595 40.9521 109.645C37.5101 103.711 35.6942 97.1414 34.2224 90.477C33.0905 85.4211 30.5205 80.8004 26.8222 77.1719C26.5967 77.6407 26.4067 78.0087 26.2287 78.3588C20.951 90.2278 15.6792 102.113 10.4133 114.013C9.42821 116.233 7.94459 117.74 5.36903 117.811C2.02199 117.906 -0.672247 114.737 0.301006 111.533C1.72528 106.868 3.41067 102.287 5.01298 97.6755C8.0989 88.7975 11.1987 79.9235 14.3123 71.0535C14.6505 70.104 14.4725 69.6945 13.6239 69.1782C7.86153 65.6709 4.44325 60.68 4.3305 53.7486C4.25335 49.1434 6.11084 45.2682 9.29765 42.028C11.9224 39.3825 14.9217 37.137 18.1994 35.3636C19.9204 34.4319 20.9411 34.4615 21.5583 35.5238C22.1755 36.5861 21.6176 37.4288 20.0153 38.491C17.3804 40.2714 14.6743 42.0161 12.3005 44.1644C6.07523 49.8793 6.44911 59.0006 13.0482 64.3119C14.672 65.6107 16.4699 66.6754 18.3893 67.475C26.6975 70.8992 32.81 76.5073 36.1511 84.8749C37.338 87.8421 37.9315 91.0883 38.786 94.2098C40.4299 100.358 42.5485 106.286 46.4652 111.42C50.8983 117.218 56.6785 120.446 64.0788 120.321C69.4198 120.244 74.108 118.238 78.1613 114.903C86.885 107.723 92.3328 98.536 93.9648 87.3258C95.1161 79.202 93.7599 70.9202 90.0777 63.5879C83.0157 49.0069 71.2654 40.034 55.907 35.506C55.4857 35.3814 55.0524 35.2864 54.643 35.1262C54.1905 34.9783 53.8153 34.6566 53.5999 34.232C53.3846 33.8074 53.3467 33.3147 53.4946 32.8622C53.6426 32.4097 53.9642 32.0345 54.3888 31.8191C54.8134 31.6038 55.3061 31.5659 55.7587 31.7139C57.539 32.2302 59.3787 32.7406 61.1412 33.3874C68.8799 36.0947 75.9483 40.4293 81.8703 46.099C90.2083 54.1996 95.8757 63.8312 97.4246 75.4628C99.7983 93.0466 93.1755 107.123 79.728 118.191C75.9765 121.252 71.4239 123.17 66.6128 123.716C66.3853 123.767 66.1629 123.839 65.9481 123.93L61.4201 124.048ZM18.0985 71.2671C17.8908 71.825 17.7483 72.1929 17.6178 72.5608C13.4557 84.4891 9.30162 96.4194 5.1554 108.352C4.72218 109.598 4.27711 110.838 3.86763 112.09C3.78419 112.276 3.73973 112.476 3.73702 112.68C3.7343 112.883 3.77338 113.084 3.85184 113.272C3.9303 113.46 4.04646 113.629 4.19311 113.77C4.33977 113.91 4.51379 114.02 4.70437 114.09C4.89539 114.185 5.10395 114.238 5.3168 114.248C5.52965 114.257 5.74216 114.222 5.94082 114.145C6.13948 114.068 6.31996 113.951 6.47081 113.8C6.62165 113.65 6.73955 113.47 6.81704 113.271C6.9476 113.028 7.04256 112.761 7.15531 112.506C12.6111 100.241 18.0629 87.9608 23.5107 75.6646C23.6531 75.3441 23.7718 75.0177 23.9499 74.5607L18.0985 71.2671Z" fill="#00308F"/>
<path d="M48.0859 29.8618C49.2728 32.9596 48.0859 37.0307 45.451 38.0514C43.9614 38.6448 43.3857 39.5943 42.8813 40.8584C42.5331 41.7921 42.137 42.7072 41.6944 43.6001C40.5108 45.696 40.1131 48.1451 40.5728 50.5078C41.6469 56.4423 37.1664 62.1809 31.2379 63.1126C28.6124 63.5434 25.9191 63.0399 23.6266 61.6897C21.3341 60.3396 19.5876 58.2282 18.6912 55.7232C17.7948 53.2182 17.8052 50.4782 18.7206 47.9801C19.636 45.4819 21.3984 43.3839 23.7011 42.0512C24.2537 41.7019 24.6816 41.1868 24.9236 40.5795C25.8553 38.1167 26.7039 35.6182 27.5407 33.1139C27.6851 32.6839 27.6704 32.2164 27.4992 31.7964C25.9799 28.9597 27.2677 24.7522 30.1519 23.3161L30.5673 23.1202C30.3923 21.2344 30.319 19.3406 30.3477 17.4469C30.591 13.7497 32.4545 10.7706 35.0953 8.27221C38.7594 4.83027 43.2276 2.36148 48.0918 1.09147C48.5038 0.920636 48.9638 0.905292 49.3863 1.0483C49.8088 1.19131 50.1649 1.48292 50.3884 1.86889C53.4862 6.9666 55.3615 12.4144 55.0351 18.4854C54.774 23.1736 52.596 26.7937 48.7683 29.4108C48.5191 29.5295 48.3648 29.6778 48.0859 29.8618ZM47.9493 4.90143C43.7952 6.24262 40.1218 8.20691 37.1249 11.2928C33.8431 14.6695 33.042 18.6041 34.6146 23.0194C34.7507 23.4169 35.0328 23.7479 35.4039 23.9451C38.2939 25.132 41.1959 26.2655 44.1098 27.3871C44.3943 27.4969 44.7095 27.4969 44.994 27.3871C48.6852 25.4822 51.0768 22.6692 51.3676 18.337C51.6821 13.5183 50.2222 9.18612 47.9493 4.90143ZM31.048 34.1109C30.8759 34.5738 30.7334 34.9417 30.6029 35.2978L23.9622 54.2881C23.0661 56.8518 23.2679 57.5283 25.7426 58.7033C26.89 59.1438 28.085 59.4485 29.3032 59.6113C30.1934 59.7953 30.7097 59.4155 31.0836 58.5134C33.6947 52.5018 36.3712 46.5199 39.0299 40.526C39.4275 39.624 39.825 38.7457 40.2642 37.7368L31.048 34.1109ZM30.1815 29.3633C30.5287 29.7427 30.9284 30.0704 31.3684 30.3366C35.1071 31.8617 38.8637 33.3038 42.6083 34.829C43.54 35.2088 44.1453 35.0426 44.4599 34.0456C44.5841 33.6662 44.7288 33.2938 44.8931 32.9299C44.9826 32.796 45.0386 32.6425 45.0562 32.4824C45.0739 32.3223 45.0527 32.1603 44.9945 32.0101C44.9362 31.8599 44.8427 31.7259 44.7218 31.6195C44.6008 31.5131 44.4561 31.4374 44.2997 31.3988C40.3651 29.8381 36.4305 28.2654 32.4782 26.7521C32.2634 26.6935 32.0376 26.6883 31.8204 26.7369C31.6032 26.7855 31.4012 26.8865 31.2319 27.0311C30.8068 27.7725 30.455 28.5536 30.1815 29.3633Z" fill="#00308F"/>
<path d="M66.8623 114.043C64.5667 114.037 62.3245 113.351 60.419 112.07C58.5135 110.79 57.0303 108.974 56.157 106.851C55.2837 104.728 55.0595 102.394 55.5126 100.143C55.9658 97.8931 57.076 95.8276 58.7029 94.2081C60.3299 92.5887 62.4004 91.488 64.6529 91.0452C66.9053 90.6024 69.2385 90.8373 71.3574 91.7204C73.4763 92.6035 75.2858 94.095 76.5571 96.0063C77.8285 97.9177 78.5045 100.163 78.4998 102.459C78.4596 105.528 77.2189 108.459 75.0436 110.624C72.8683 112.789 69.9315 114.017 66.8623 114.043ZM66.9276 110.423C68.5046 110.408 70.0417 109.926 71.3454 109.038C72.649 108.151 73.6608 106.897 74.2532 105.436C74.8456 103.974 74.9922 102.37 74.6743 100.825C74.3565 99.2808 73.5885 97.8648 72.4672 96.7558C71.3459 95.6469 69.9214 94.8947 68.3733 94.594C66.8252 94.2934 65.2227 94.4577 63.7679 95.0663C62.313 95.6749 61.0708 96.7005 60.1979 98.0139C59.325 99.3274 58.8604 100.87 58.8626 102.447C58.8657 103.501 59.0771 104.544 59.4846 105.516C59.8921 106.488 60.4877 107.37 61.2371 108.111C61.9866 108.852 62.8751 109.438 63.8517 109.835C64.8282 110.232 65.8736 110.431 66.9276 110.423Z" fill="#1752F0"/>
<path d="M89.1343 80.3411C89.0806 81.6244 88.7721 82.8842 88.2268 84.0471C87.6816 85.21 86.9104 86.2529 85.9583 87.115C85.0062 87.9771 83.8921 88.6412 82.6809 89.0686C81.4697 89.4961 80.1856 89.6784 78.9033 89.6048C73.2893 89.2369 69.1826 84.5546 69.6277 79.2136C70.0728 73.8725 74.7314 69.7184 79.7697 70.0389C81.0618 70.0982 82.3295 70.412 83.5 70.9623C84.6706 71.5127 85.721 72.2886 86.591 73.2457C87.461 74.2028 88.1335 75.3223 88.5699 76.5399C89.0064 77.7575 89.1982 79.0493 89.1343 80.3411ZM73.2062 79.8485C73.2062 81.0727 73.5692 82.2695 74.2494 83.2873C74.9295 84.3052 75.8962 85.0986 77.0272 85.567C78.1582 86.0355 79.4027 86.1581 80.6034 85.9192C81.8041 85.6804 82.907 85.0909 83.7726 84.2253C84.6382 83.3597 85.2278 82.2568 85.4666 81.0561C85.7054 79.8554 85.5829 78.6109 85.1144 77.4799C84.6459 76.3489 83.8525 75.3822 82.8346 74.702C81.8168 74.0219 80.62 73.6589 79.3959 73.6589C77.76 73.6774 76.1964 74.3355 75.0396 75.4923C73.8828 76.6491 73.2247 78.2127 73.2062 79.8485Z" fill="#1752F0"/>
<path d="M79.77 58.8581C79.7712 60.5177 79.2802 62.1404 78.3591 63.521C77.438 64.9016 76.1282 65.9781 74.5954 66.6143C73.0625 67.2505 71.3754 67.4179 69.7474 67.0953C68.1194 66.7726 66.6237 65.9745 65.4493 64.8018C64.2749 63.6291 63.4746 62.1344 63.1497 60.5069C62.8248 58.8794 62.9898 57.192 63.6238 55.6583C64.2578 54.1245 65.3325 52.8132 66.7118 51.8901C68.0911 50.9671 69.7131 50.4738 71.3727 50.4727C73.5949 50.482 75.7235 51.3681 77.296 52.9383C78.8684 54.5085 79.7575 56.6359 79.77 58.8581ZM76.1619 58.8581C76.1564 58.2299 76.0273 57.609 75.7819 57.0308C75.5364 56.4525 75.1795 55.9283 74.7315 55.488C74.2835 55.0477 73.7531 54.7 73.1707 54.4646C72.5883 54.2293 71.9653 54.111 71.3371 54.1164C70.709 54.1219 70.0881 54.251 69.5098 54.4964C68.9316 54.7418 68.4074 55.0987 67.9671 55.5468C67.5268 55.9948 67.179 56.5251 66.9437 57.1075C66.7083 57.6899 66.59 58.313 66.5955 58.9412C66.6065 60.2097 67.121 61.422 68.0258 62.3112C68.9306 63.2004 70.1516 63.6938 71.4202 63.6828C72.6888 63.6718 73.901 63.1573 74.7902 62.2525C75.6795 61.3476 76.1729 60.1266 76.1619 58.8581Z" fill="#1752F0"/>
<path d="M55.2776 39.8555C56.7571 39.859 58.2024 40.3006 59.4311 41.1247C60.6599 41.9487 61.617 43.1182 62.1818 44.4856C62.7467 45.853 62.8938 47.3571 62.6047 48.808C62.3157 50.259 61.6033 51.5919 60.5576 52.6384C59.5119 53.685 58.1796 54.3984 56.7289 54.6886C55.2781 54.9788 53.774 54.8328 52.4061 54.2691C51.0382 53.7053 49.868 52.7491 49.043 51.521C48.218 50.2929 47.7752 48.848 47.7705 47.3685C47.7814 45.3803 48.5756 43.4766 49.981 42.0701C51.3863 40.6637 53.2894 39.8679 55.2776 39.8555ZM55.3073 43.4636C54.541 43.4683 53.7931 43.6998 53.1581 44.1288C52.5232 44.5578 52.0294 45.1653 51.7391 45.8745C51.4488 46.5838 51.375 47.3631 51.5269 48.1142C51.6789 48.8654 52.0498 49.5547 52.5929 50.0954C53.136 50.636 53.8271 51.0038 54.5789 51.1523C55.3307 51.3008 56.1097 51.2234 56.8176 50.9299C57.5255 50.6363 58.1307 50.1398 58.5568 49.5029C58.9829 48.8659 59.211 48.1171 59.2122 47.3507C59.213 46.8385 59.1124 46.3313 58.9162 45.8581C58.72 45.385 58.4321 44.9554 58.0691 44.5941C57.7061 44.2327 57.2752 43.9468 56.8012 43.7528C56.3272 43.5588 55.8195 43.4605 55.3073 43.4636Z" fill="#1752F0"/>
</svg>
