<svg xmlns="http://www.w3.org/2000/svg" width="18.309" height="16" viewBox="0 0 18.309 16"><defs><style>.a{fill:#2699fb;}</style></defs><g transform="translate(-33.102 -61.21)"><path class="a" d="M51.4,64.858A4.049,4.049,0,0,0,47.5,61.21a2.979,2.979,0,0,0-2.13.85h0l-8.4,8.4A2.042,2.042,0,1,0,39.85,73.35l8.4-8.4a.411.411,0,0,0-.581-.581l-8.4,8.4a1.22,1.22,0,0,1-1.726-1.726l8.4-8.4h0a2.166,2.166,0,0,1,1.55-.61,3.232,3.232,0,0,1,3.086,2.891,2.19,2.19,0,0,1-.6,1.752l-2.966,2.966h0l-5.437,5.437a4.482,4.482,0,0,1-6.339-6.339l6.59-6.59a.411.411,0,0,0-.581-.581l-6.59,6.59a5.3,5.3,0,1,0,7.5,7.5l5.437-5.437h0l2.965-2.965A3,3,0,0,0,51.4,64.858Z"/></g></svg>