<svg xmlns="http://www.w3.org/2000/svg" width="229.373" height="39.792" viewBox="0 0 229.373 39.792"><defs><style>.a{fill:#1652f0;}</style></defs><path class="a" d="M10.129-29.993v17.952q0,4.373,3.142,4.373a3.133,3.133,0,0,0,2.274-.912,2.972,2.972,0,0,0,.934-2.208,3.12,3.12,0,0,0-.879-2.252,2.875,2.875,0,0,0-2.153-.912,3.824,3.824,0,0,0-2.065.791v-9.053q1.45-.132,2.2-.132a10.778,10.778,0,0,1,7.943,3.34,11.017,11.017,0,0,1,3.307,8.042,10.91,10.91,0,0,1-3.362,8.108,11.347,11.347,0,0,1-8.262,3.3A11.372,11.372,0,0,1,8.4-.637a10.789,10.789,0,0,1-3.856-2.9,12.375,12.375,0,0,1-2.637-8.2V-29.993Zm26.521,0V0H28.433V-29.993Zm15.205,7.625a10.858,10.858,0,0,1,7.987,3.351,10.991,10.991,0,0,1,3.329,8.031A10.959,10.959,0,0,1,59.8-2.9,11.148,11.148,0,0,1,51.658.439a11.166,11.166,0,0,1-8.152-3.351,10.952,10.952,0,0,1-3.384-8.075,10.84,10.84,0,0,1,3.384-8.1A11.523,11.523,0,0,1,51.855-22.368Zm-.22,8.108a3,3,0,0,0-2.241.956,3.241,3.241,0,0,0-.923,2.34,3.232,3.232,0,0,0,.934,2.329,2.993,2.993,0,0,0,2.23.967,3.018,3.018,0,0,0,2.252-.967,3.232,3.232,0,0,0,.934-2.329A3.241,3.241,0,0,0,53.9-13.3,3.024,3.024,0,0,0,51.636-14.26Zm25.356-8.108a10.858,10.858,0,0,1,7.987,3.351,10.991,10.991,0,0,1,3.329,8.031A10.959,10.959,0,0,1,84.935-2.9,11.148,11.148,0,0,1,76.794.439a11.166,11.166,0,0,1-8.152-3.351,10.952,10.952,0,0,1-3.384-8.075,10.84,10.84,0,0,1,3.384-8.1A11.523,11.523,0,0,1,76.992-22.368Zm-.22,8.108a3,3,0,0,0-2.241.956,3.241,3.241,0,0,0-.923,2.34,3.232,3.232,0,0,0,.934,2.329,2.993,2.993,0,0,0,2.23.967,3.018,3.018,0,0,0,2.252-.967,3.232,3.232,0,0,0,.934-2.329,3.241,3.241,0,0,0-.923-2.34A3.024,3.024,0,0,0,76.772-14.26ZM99.47,8.108H91.252V-10.173a12.375,12.375,0,0,1,2.637-8.2,10.789,10.789,0,0,1,3.856-2.9,11.372,11.372,0,0,1,4.8-1.077,11.347,11.347,0,0,1,8.262,3.3,10.885,10.885,0,0,1,3.362,8.086,11.057,11.057,0,0,1-3.34,8.042A10.743,10.743,0,0,1,102.92.461q-.747,0-2.2-.154V-8.745a3.227,3.227,0,0,0,2.021.813,2.931,2.931,0,0,0,2.186-.945,3.118,3.118,0,0,0,.912-2.241,2.956,2.956,0,0,0-.945-2.208,3.144,3.144,0,0,0-2.263-.912q-3.164,0-3.164,4.373Zm30.322-30.234v8.789a3.232,3.232,0,0,0-1.56-.483q-2.241,0-2.241,3.428V0h-8.218V-11.975a10.755,10.755,0,0,1,2.593-7.57,8.943,8.943,0,0,1,6.921-2.823A16.838,16.838,0,0,1,129.792-22.126Zm10.635.22V0h-8.218V-21.907Zm-4.087-9.778a4.023,4.023,0,0,1,2.889,1.176,3.734,3.734,0,0,1,1.219,2.78,3.713,3.713,0,0,1-1.154,2.813,4.111,4.111,0,0,1-2.955,1.1,4.111,4.111,0,0,1-2.955-1.1,3.713,3.713,0,0,1-1.154-2.812,3.734,3.734,0,0,1,1.219-2.78A4.023,4.023,0,0,1,136.34-31.685ZM164.795,0h-8.218V-12.371q0-1.89-1.56-1.89-1.538,0-1.538,1.89V0h-8.218V-12.217a9.989,9.989,0,0,1,2.834-7.218,9.282,9.282,0,0,1,6.943-2.933,9.313,9.313,0,0,1,7.537,3.406q2.219,2.659,2.219,7.4ZM176.9-29.993V-21.6h3.691v8.679H176.9a5.807,5.807,0,0,0,.824,3.6,3.785,3.785,0,0,0,3.021.989V.308Q180.11.33,179.8.33a11.169,11.169,0,0,1-5.262-1.3,10.654,10.654,0,0,1-3.966-3.516A13.344,13.344,0,0,1,168.684-12v-18ZM206.169-9.624H193.711a6.037,6.037,0,0,1-.286-1.736,6.087,6.087,0,0,1,.4-2.153H198a2.583,2.583,0,0,0-2.747-2.439,2.982,2.982,0,0,0-2.5,1.307,5.489,5.489,0,0,0-.967,3.351,5.842,5.842,0,0,0,.934,3.45,2.872,2.872,0,0,0,2.45,1.318,3.271,3.271,0,0,0,2.373-1.23l4.68,5.625A11.494,11.494,0,0,1,194.941.439a11.212,11.212,0,0,1-8.2-3.274,10.937,10.937,0,0,1-3.318-8.108,11,11,0,0,1,3.351-8.13,11.244,11.244,0,0,1,8.229-3.318,10.88,10.88,0,0,1,8.009,3.241,10.854,10.854,0,0,1,3.241,7.987Q206.257-10.679,206.169-9.624Zm16.9-20.369h8.218v18.259a12.375,12.375,0,0,1-2.637,8.2,10.789,10.789,0,0,1-3.856,2.9,11.372,11.372,0,0,1-4.8,1.077,11.347,11.347,0,0,1-8.262-3.3,10.885,10.885,0,0,1-3.362-8.086,11.032,11.032,0,0,1,3.34-8.02,10.743,10.743,0,0,1,7.91-3.384q.725,0,2.2.132v9.053a3.277,3.277,0,0,0-2.021-.791,2.948,2.948,0,0,0-2.186.934,3.107,3.107,0,0,0-.912,2.252,2.931,2.931,0,0,0,.945,2.186,3.144,3.144,0,0,0,2.263.912q3.164,0,3.164-4.373Z" transform="translate(-1.912 31.685)"/></svg>