<svg xmlns="http://www.w3.org/2000/svg" width="29.688" height="23.539" viewBox="0 0 29.688 23.539"><defs><style>.a{fill:#fff;stroke:#8f919b;}</style></defs><g transform="translate(0.5 0.5)"><path class="a" d="M0,0H2.882V5.556c.185-.117.333-.213.482-.311a7.061,7.061,0,0,1,9.794,2.447.211.211,0,0,1-.026.292c-.609.732-1.208,1.474-1.809,2.214-.042.05-.079.1-.132.174-.017-.053-.033-.087-.042-.123A4.192,4.192,0,1,0,6.19,15.365a4.2,4.2,0,0,0,2.464-.311,5.211,5.211,0,0,0,2.215-1.73c1.029-1.41,2.06-2.82,3.109-4.21a20.043,20.043,0,0,1,3.075-3.241A6.8,6.8,0,0,1,20.94,4.247a6.93,6.93,0,0,1,5.85,2.223,6.781,6.781,0,0,1,1.847,4.151,7.075,7.075,0,0,1-11.006,6.5l-.21-.132v5.534a1,1,0,0,1-.124.016h-2.54c-.155,0-.215-.03-.215-.205q.009-3.624,0-7.246a.692.692,0,0,1,.155-.455c.762-.978,1.513-1.963,2.271-2.944.131-.168.28-.32.424-.485a9.115,9.115,0,0,0,.129.981,4.071,4.071,0,0,0,2.885,3.083,4.174,4.174,0,0,0,2.756-7.872,4.011,4.011,0,0,0-4.252.7,20.57,20.57,0,0,0-3.055,3.232c-1,1.284-1.954,2.6-2.954,3.886a7.889,7.889,0,0,1-3.684,2.756,6.665,6.665,0,0,1-5.941-.728A6.846,6.846,0,0,1,.11,12.491,6.748,6.748,0,0,1,0,11.264Q0,5.736,0,.207Z" transform="translate(0)"/></g></svg>