<svg width="185" height="32" viewBox="0 0 185 32" fill="none" xmlns="http://www.w3.org/2000/svg">
<path fill-rule="evenodd" clip-rule="evenodd" d="M111.39 25.4799V7.86309H104.782V25.4799H111.39ZM110.427 0.945344C109.773 0.315372 108.999 0 108.104 0C107.208 0 106.434 0.315372 105.78 0.945344C105.126 1.5757 104.799 2.32076 104.799 3.18051C104.799 4.09925 105.108 4.85337 105.727 5.44228C106.345 6.03158 107.138 6.32575 108.104 6.32575C109.069 6.32575 109.862 6.03158 110.48 5.44228C111.099 4.85356 111.408 4.09945 111.408 3.18051C111.408 2.32076 111.081 1.5757 110.427 0.945344ZM6.60835 1.36084V15.797C6.60835 18.1413 7.45036 19.3133 9.13498 19.3133C9.85343 19.3133 10.463 19.0689 10.9638 18.58C11.4644 18.0913 11.7148 17.4993 11.7148 16.8042C11.7148 16.0856 11.4789 15.482 11.0079 14.9929C10.5368 14.5043 9.95946 14.2595 9.27647 14.2595C8.7932 14.2595 8.23976 14.4717 7.61557 14.8956V7.61583C8.39301 7.54528 8.98192 7.50981 9.3825 7.50981C11.8679 7.50981 13.997 8.40523 15.7701 10.1957C17.5428 11.9863 18.4296 14.1422 18.4296 16.6629C18.4296 19.2427 17.5284 21.416 15.7262 23.183C13.924 24.9499 11.709 25.8333 9.08216 25.8333C7.76265 25.8333 6.47591 25.5446 5.22137 24.9676C3.96682 24.3907 2.93319 23.6132 2.12047 22.6351C0.706887 20.9387 0 18.7421 0 16.0443V1.36084H6.60835ZM27.9359 1.36084V25.48H21.3274V1.36084H27.9359ZM46.5864 10.1869C44.8019 8.39049 42.6606 7.49219 40.1635 7.49219C37.5011 7.49219 35.2629 8.37295 33.4489 10.1337C31.6348 11.8949 30.7278 14.0652 30.7278 16.6451C30.7278 19.1779 31.6348 21.3427 33.4489 23.1387C35.2629 24.9353 37.4481 25.8334 40.0045 25.8334C42.5606 25.8334 44.7427 24.9384 46.5511 23.1476C48.3593 21.3571 49.2634 19.1896 49.2634 16.6453C49.2634 14.136 48.3711 11.9833 46.5864 10.1869ZM38.1843 14.7808C38.6794 14.2684 39.28 14.0122 39.9867 14.0122C40.705 14.0122 41.312 14.2682 41.8069 14.7808C42.3017 15.2934 42.549 15.9205 42.549 16.6628C42.549 17.3932 42.2986 18.0176 41.798 18.5358C41.2972 19.0541 40.6936 19.3132 39.9867 19.3132C39.2914 19.3132 38.6938 19.0541 38.1932 18.5358C37.6924 18.0174 37.4422 17.3932 37.4422 16.6628C37.4422 15.9205 37.6897 15.2932 38.1843 14.7808ZM60.3776 7.49219C62.8747 7.49219 65.016 8.39049 66.8005 10.1869C68.5852 11.9833 69.4775 14.136 69.4775 16.6453C69.4775 19.1896 68.5734 21.3571 66.7652 23.1476C64.9568 24.9384 62.7747 25.8334 60.2186 25.8334C57.6622 25.8334 55.477 24.9353 53.663 23.1387C51.8489 21.3427 50.9419 19.1779 50.9419 16.6451C50.9419 14.0652 51.8489 11.8949 53.663 10.1337C55.477 8.37295 57.7153 7.49219 60.3776 7.49219ZM60.2008 14.0122C59.4941 14.0122 58.8935 14.2684 58.3984 14.7808C57.9038 15.2932 57.6563 15.9205 57.6563 16.6628C57.6563 17.3932 57.9065 18.0174 58.4073 18.5358C58.9079 19.0541 59.5055 19.3132 60.2008 19.3132C60.9077 19.3132 61.5113 19.0541 62.0121 18.5358C62.5127 18.0176 62.7631 17.3932 62.7631 16.6628C62.7631 15.9205 62.5158 15.2934 62.021 14.7808C61.5261 14.2682 60.9193 14.0122 60.2008 14.0122ZM71.8452 32H78.4538H78.454V17.5461C78.454 15.2021 79.302 14.0298 80.9983 14.0298C81.705 14.0298 82.3115 14.2744 82.8183 14.7631C83.3245 15.2522 83.578 15.844 83.578 16.5391C83.578 17.2342 83.3332 17.8351 82.8445 18.3415C82.3556 18.8481 81.7696 19.1012 81.0864 19.1012C80.5444 19.1012 80.0025 18.8832 79.4608 18.4473V25.7271C80.2382 25.8094 80.8272 25.8508 81.2277 25.8508C83.6778 25.8508 85.7981 24.9439 87.589 23.1297C89.3792 21.3159 90.2748 19.16 90.2748 16.6627C90.2748 14.0948 89.3738 11.9271 87.5714 10.1602C85.769 8.39323 83.5543 7.50977 80.9274 7.50977C79.6081 7.50977 78.3213 7.79853 77.0666 8.37549C75.812 8.95303 74.7784 9.73047 73.9657 10.708C72.5521 12.4042 71.8452 14.6014 71.8452 17.2988V32ZM102.838 7.68631V14.7542C102.379 14.4953 101.96 14.3654 101.584 14.3654C100.382 14.3654 99.7812 15.2843 99.7812 17.122V25.4797H93.1726V15.8499C93.1726 13.3056 93.8674 11.2765 95.2576 9.76263C96.6475 8.249 98.5027 7.49219 100.823 7.49219C101.342 7.492 102.013 7.55696 102.838 7.68631ZM130.986 25.4799H124.378V15.5317C124.378 14.5186 123.959 14.0121 123.123 14.0121C122.298 14.0121 121.886 14.5186 121.886 15.5317V25.4797H115.278V15.6554C115.278 13.3584 116.037 11.4235 117.557 9.85111C119.077 8.2785 120.938 7.49219 123.141 7.49219C125.661 7.49219 127.682 8.40515 129.201 10.2311C130.391 11.6566 130.986 13.6412 130.986 16.1857V25.4799ZM140.722 8.11068V1.36084H134.114V15.8321C134.114 18.3414 134.62 20.3556 135.634 21.8752C136.434 23.0652 137.498 24.0076 138.823 24.7024C140.148 25.3975 141.559 25.7449 143.055 25.7449C143.22 25.7449 143.473 25.7389 143.815 25.7271V18.783C142.636 18.783 141.827 18.5179 141.385 17.9878C140.943 17.4577 140.722 16.4919 140.722 15.0901H143.691V8.11068H140.722ZM164.258 17.7404H154.239C154.086 17.234 154.01 16.7686 154.01 16.3445C154.01 15.7556 154.116 15.1783 154.328 14.6131H157.685C157.449 13.3055 156.713 12.6516 155.476 12.6516C154.652 12.6516 153.98 13.0021 153.462 13.703C152.944 14.4039 152.685 15.302 152.685 16.3977C152.685 17.5405 152.935 18.4652 153.436 19.1719C153.936 19.8788 154.593 20.2321 155.406 20.2321C156.066 20.2321 156.702 19.9025 157.314 19.2426L161.078 23.766C159.322 25.1443 157.373 25.8334 155.229 25.8334C152.614 25.8334 150.417 24.956 148.638 23.2008C146.859 21.4458 145.97 19.2721 145.97 16.6805C145.97 14.1009 146.868 11.9216 148.665 10.1427C150.461 8.36405 152.667 7.47461 155.282 7.47461C157.838 7.47461 159.985 8.34342 161.723 10.0811C163.46 11.8189 164.329 13.9596 164.329 16.504C164.329 16.7628 164.305 17.1752 164.258 17.7404ZM184.455 1.36084H177.846H177.846V15.7974C177.846 18.1416 176.998 19.3137 175.302 19.3137C174.595 19.3137 173.988 19.0693 173.482 18.5804C172.975 18.0917 172.722 17.5055 172.722 16.8221C172.722 16.1152 172.966 15.5119 173.456 15.0109C173.944 14.5104 174.53 14.2598 175.214 14.2598C175.755 14.2598 176.297 14.4721 176.839 14.896V7.61603C176.05 7.54547 175.461 7.51 175.072 7.51C172.622 7.51 170.502 8.41718 168.711 10.2311C166.92 12.0453 166.025 14.1951 166.025 16.6804C166.025 19.2487 166.926 21.416 168.729 23.183C170.531 24.9499 172.746 25.8333 175.373 25.8333C176.692 25.8333 177.979 25.5448 179.233 24.9676C180.488 24.3905 181.522 23.613 182.335 22.6351C183.748 20.9389 184.455 18.7421 184.455 16.0443V1.36084Z" fill="#1652F0"/>
</svg>
