<svg width="132" height="95" viewBox="0 0 132 95" fill="none" xmlns="http://www.w3.org/2000/svg">
<path d="M131.517 92.8236C130.027 94.7768 129.215 94.91 126.97 93.8065C120.932 90.9238 114.532 88.8695 107.944 87.6994C94.6575 85.2163 80.9926 85.6099 67.8706 88.8536C65.8348 89.3482 63.9767 88.8092 62.0805 88.3969C46.4506 84.8541 30.1688 85.4288 14.8276 90.0648C11.3772 91.1901 7.99002 92.5006 4.6807 93.9904C2.14398 95.0622 0.444336 94.0666 0.444336 91.3079C0.444336 64.7272 0.444336 38.1529 0.444336 11.5849C0.444336 9.21938 1.32583 8.33156 3.67865 8.32522H11.5552C11.5552 7.38663 11.5552 6.54948 11.5552 5.7187C11.6186 3.87323 12.2592 3.15029 14.0919 2.69368C22.4127 0.548338 31.06 -0.0301564 39.5924 0.987732C49.4348 2.17999 58.3451 5.59188 65.5177 12.7454C65.6611 12.88 65.8115 13.0069 65.968 13.1259C66.2597 12.8849 66.5578 12.6567 66.8305 12.3967C73.2104 6.30851 80.9093 2.94735 89.5025 1.45702C98.9993 -0.120277 108.721 0.311812 118.041 2.72538C119.677 3.12492 120.311 3.90495 120.355 5.6109C120.355 6.46071 120.355 7.30416 120.355 8.33787H125.264C126.203 8.33787 127.167 8.40129 128.08 8.33787C128.777 8.23016 129.491 8.34879 130.117 8.67633C130.742 9.00387 131.246 9.52311 131.555 10.158L131.517 92.8236ZM63.4249 81.3322C63.4249 78.3896 63.4249 75.6246 63.4249 72.8468C63.4249 55.0559 63.4249 37.2671 63.4249 19.4804C63.4434 19.0627 63.3726 18.6459 63.2173 18.2577C63.062 17.8695 62.8258 17.5189 62.5244 17.2291C59.8249 14.4299 56.668 12.1116 53.1892 10.3736C46.3211 6.94903 38.9899 5.72507 31.3861 5.74409C26.4418 5.75522 21.5139 6.31245 16.6921 7.40565V74.1786C32.851 72.5488 48.6929 72.7517 63.4249 81.3322ZM115.25 74.223V7.4627C115.054 7.39928 114.901 7.33586 114.743 7.29781C106.568 5.58552 98.362 5.11622 90.1113 6.66363C82.1206 8.15395 75.0051 11.3693 69.3418 17.3623C68.8591 17.9157 68.5834 18.6195 68.5618 19.3536C68.5238 39.5713 68.5131 59.7869 68.5301 80.0004C68.5301 80.3999 68.5744 80.7995 68.5935 81.2688C83.2557 72.7897 99.0723 72.479 115.25 74.223ZM51.2994 81.5161C46.076 79.8023 40.6445 78.8039 35.1531 78.5481C28.3698 78.2608 21.5746 78.6196 14.8593 79.6199C12.9187 79.8989 11.7518 78.9223 11.6313 76.9754C11.5996 76.5124 11.6313 76.0431 11.6313 75.5738V13.5318H5.65094V87.7818C31.9124 79.9306 27.6127 81.3639 51.2994 81.4844V81.5161ZM80.8459 81.18L80.9029 81.5922C96.3591 79.9149 111.99 82.1095 126.386 87.9784V13.5382H120.457V75.8021C120.457 76.227 120.457 76.6583 120.457 77.0705C120.459 77.4255 120.386 77.7769 120.243 78.102C120.1 78.427 119.891 78.7186 119.629 78.9577C119.366 79.1968 119.057 79.3781 118.72 79.49C118.383 79.6019 118.026 79.6418 117.673 79.6072C117.203 79.5988 116.735 79.5586 116.271 79.4867C108.027 78.3388 99.7065 77.933 91.4177 79.0618C87.8536 79.5311 84.3656 80.438 80.8459 81.1483V81.18Z" fill="#00308F"/>
<path d="M11.6258 13.5328V75.5431C11.6258 76.0124 11.6258 76.4817 11.6258 76.9446C11.7463 78.8916 12.8941 79.8682 14.8537 79.5892C21.569 78.589 28.3642 78.2301 35.1475 78.5174C40.6389 78.7733 46.0704 79.7716 51.2938 81.4854H51.2241C54.0843 81.9103 56.3927 84.1109 58.7328 85.6456C60.701 86.9705 62.8033 88.0844 65.0048 88.9687C65.733 89.0671 66.471 89.0671 67.1991 88.9687C68.9558 88.0365 69.7358 87.0662 71.0803 85.9183C72.596 84.65 74.397 83.8572 76.1537 82.925C77.6631 82.1259 76.845 82.5508 80.8594 81.1683C84.3791 80.458 87.8354 79.5512 91.4185 79.0692C99.7073 77.9403 108.002 78.3462 116.272 79.4941C116.736 79.5659 117.204 79.6062 117.674 79.6146C118.027 79.6492 118.384 79.6092 118.72 79.4974C119.057 79.3855 119.367 79.2041 119.629 78.965C119.892 78.7259 120.101 78.4344 120.244 78.1093C120.386 77.7842 120.459 77.4328 120.458 77.0778C120.496 76.6593 120.458 76.228 120.458 75.8095V13.5392L120.356 9.63264L120.318 8.36428C120.318 7.33056 120.318 6.46171 120.318 5.63727C120.274 3.93132 119.64 3.15128 118.003 2.75175C108.684 0.33818 98.962 -0.0939097 89.4652 1.48339C80.872 2.97371 73.1731 6.33488 66.7932 12.423C66.5205 12.683 66.2225 12.9114 65.9307 13.1523C65.7742 13.0333 65.6239 12.9063 65.4805 12.7718C58.3079 5.61824 49.3976 2.20636 39.5551 1.0141C31.0228 -0.00378925 22.3754 0.574706 14.0546 2.72005C12.2536 3.17666 11.613 3.89964 11.5179 5.74511L11.6258 13.5328ZM63.4257 81.3332L63.394 81.3586C51.2938 72.8479 32.8201 72.5751 16.6358 74.205V7.40666C21.4572 6.31033 26.3854 5.75306 31.3298 5.74511C38.94 5.74511 46.2648 6.95005 53.133 10.3746C56.6117 12.1126 59.7687 14.431 62.4681 17.2301C62.7696 17.5199 63.0058 17.8705 63.1611 18.2587C63.3163 18.6469 63.3871 19.0638 63.3686 19.4815C63.3686 37.2724 63.3686 55.0612 63.3686 72.8479C63.432 75.6192 63.4257 78.3906 63.4257 81.3332ZM115.251 74.224C99.0414 72.5117 83.2565 72.8225 68.5943 81.3015C68.5943 80.8258 68.5309 80.4263 68.5309 80.0331C68.5309 59.8154 68.5415 39.5998 68.5626 19.3864C68.5842 18.6523 68.8599 17.9484 69.3426 17.395C75.0059 11.402 82.1214 8.18671 90.1121 6.69638C98.3564 5.15532 106.601 5.62461 114.744 7.33056C114.902 7.36861 115.054 7.43204 115.251 7.49546V74.224Z" fill="#1752F0"/>
</svg>
