<svg width="104" height="103" viewBox="0 0 104 103" fill="none" xmlns="http://www.w3.org/2000/svg">
<rect width="104" height="103" fill="#E5E5E5"/>
<g clip-path="url(#clip0_1_2)">
<rect width="1440" height="8797" transform="translate(-114 -4490)" fill="white"/>
<g style="mix-blend-mode:darken">
<path d="M1.2998 99.7294C1.53068 99.3119 1.88139 98.9733 2.30667 98.7572C2.73194 98.541 3.21223 98.4574 3.68553 98.517C8.105 98.5561 12.5245 98.517 16.9504 98.517H18.1889V97.122C18.1889 65.7816 18.1889 34.4434 18.1889 3.10735C18.1889 2.01878 18.3584 1.09317 19.3362 0.5H64.313C65.3169 0.975842 65.5581 1.80368 65.5581 2.85314C65.532 15.1598 65.532 27.4709 65.5581 39.7863V41.09H88.3007C90.4974 41.09 90.9081 41.5006 90.9081 43.6648V98.5496H100.347C100.642 98.5298 100.938 98.5298 101.233 98.5496C101.647 98.582 102.035 98.7685 102.318 99.0722C102.602 99.3759 102.761 99.7748 102.765 100.19C102.77 100.606 102.618 101.008 102.34 101.317C102.063 101.626 101.679 101.82 101.266 101.861C100.936 101.884 100.605 101.884 100.275 101.861C68.1176 101.861 35.9711 101.861 3.83546 101.861C2.75992 101.861 1.87994 101.672 1.33891 100.662L1.2998 99.7294ZM62.0968 3.90912H21.6372V98.4257H26.6563V97.2915C26.6563 92.7286 26.6563 88.1136 26.6563 83.5247C26.6563 80.5001 28.5727 78.4469 31.5386 78.2448C32.5229 78.1731 33.4941 78.1992 34.5045 78.2057C38.1417 78.2057 40.1494 80.2264 40.1559 83.8441C40.1559 88.3635 40.1559 92.8851 40.1559 97.4088V98.4257H43.5259V97.122C43.5259 79.2703 43.5259 61.4121 43.5259 43.5474C43.5259 41.5919 44.0213 41.0639 45.9638 41.0639H62.0772L62.0968 3.90912ZM46.9807 98.4257H87.3946V44.4926H46.9807V98.4257ZM36.7598 98.4257C36.7598 93.2827 36.7598 88.2114 36.7598 83.1401C36.7671 82.9387 36.7328 82.7379 36.6591 82.5504C36.5853 82.3628 36.4737 82.1924 36.3312 82.0499C36.1887 81.9074 36.0183 81.7958 35.8308 81.722C35.6432 81.6483 35.4425 81.614 35.241 81.6213C34.3219 81.5626 33.3963 81.5822 32.4707 81.5822C30.5804 81.5822 30.0524 82.1037 30.0459 83.9744C30.0459 88.4591 30.0459 92.9416 30.0459 97.4219C30.0459 97.7413 30.0459 98.0737 30.085 98.4257H36.7598Z" fill="#00308F"/>
<path d="M50.3179 37.6819C48.7665 37.6819 47.2216 37.6819 45.6703 37.6819C44.1189 37.6819 43.5583 37.0301 43.5518 35.5634C43.5257 32.4694 43.5257 29.371 43.5518 26.2682C43.5518 24.782 44.2036 24.1693 45.6703 24.1562C48.7665 24.1562 51.8627 24.1562 54.9655 24.1562C56.4582 24.1562 57.0709 24.8081 57.084 26.2682C57.084 29.3666 57.084 32.465 57.084 35.5634C57.084 37.0757 56.4321 37.6754 54.8677 37.6884C53.3033 37.7015 51.8367 37.6819 50.3179 37.6819ZM53.6488 34.2532V27.6045H47V34.2532H53.6488Z" fill="#00308F"/>
<path d="M40.1623 30.9025C40.1623 32.4864 40.1623 34.0704 40.1623 35.6478C40.1623 37.0232 39.5496 37.662 38.2068 37.6751C35.0388 37.7011 31.8731 37.7011 28.7095 37.6751C27.308 37.6751 26.7018 37.0232 26.6953 35.5631C26.6953 32.4604 26.6953 29.3619 26.6953 26.2679C26.6953 24.7752 27.295 24.1625 28.8008 24.1494C31.897 24.1494 34.9997 24.1494 38.096 24.1494C39.6148 24.1494 40.1819 24.7491 40.1949 26.2548C40.2079 27.7606 40.1623 29.3315 40.1623 30.9025ZM30.0914 27.5911V34.2268H36.6945V27.5911H30.0914Z" fill="#00308F"/>
<path d="M50.2657 20.7522C48.6883 20.7522 47.1043 20.7522 45.5203 20.7522C44.2166 20.7522 43.5648 20.1003 43.5648 18.7967C43.5344 15.5983 43.5344 12.4 43.5648 9.20161C43.5648 7.8523 44.2558 7.24609 45.6311 7.24609C48.7687 7.24609 51.8996 7.24609 55.0241 7.24609C56.4386 7.24609 57.0839 7.89793 57.0905 9.31242C57.1252 12.4412 57.1252 15.5722 57.0905 18.7054C57.0905 20.146 56.4712 20.7326 55.0241 20.7522C53.4336 20.7717 51.8497 20.7522 50.2657 20.7522ZM47.0065 10.6552V17.3235H53.6357V10.6552H47.0065Z" fill="#00308F"/>
<path d="M33.3962 41.0645C35.0128 41.0645 36.6554 41.0645 38.2394 41.0645C39.5431 41.0645 40.1428 41.7163 40.1493 42.9418C40.1754 46.1705 40.1754 49.3993 40.1493 52.6281C40.1493 53.9317 39.4974 54.5445 38.1938 54.551C35.0324 54.551 31.8644 54.551 28.703 54.551C27.3211 54.551 26.6823 53.8992 26.6758 52.5955C26.6758 49.4319 26.6758 46.2683 26.6758 43.1047C26.6758 41.7228 27.3276 41.1036 28.6704 41.0905C30.2348 41.0644 31.7927 41.0645 33.3962 41.0645ZM30.137 44.4866V51.1093H36.7532V44.4866H30.137Z" fill="#00308F"/>
<path d="M26.6562 64.6612C26.6562 63.1098 26.6562 61.5585 26.6562 60.0136C26.6562 58.5991 27.3081 57.9538 28.7225 57.9473C31.8514 57.9473 34.9824 57.9473 38.1155 57.9473C39.5365 57.9473 40.1493 58.5991 40.1558 60.0136C40.1558 63.1511 40.1558 66.2821 40.1558 69.4066C40.1558 70.8602 39.5691 71.4468 38.109 71.4534C34.9802 71.4534 31.8492 71.4534 28.716 71.4534C27.2364 71.4534 26.6627 70.8015 26.6562 69.3088C26.6497 67.8161 26.6562 66.2061 26.6562 64.6612ZM36.7271 61.402H30.1044V68.0442H36.7271V61.402Z" fill="#00308F"/>
<path d="M40.1615 14.0262C40.1615 15.6102 40.1615 17.1942 40.1615 18.7716C40.1615 20.1209 39.5748 20.7271 38.2451 20.7271C35.012 20.7532 31.781 20.7532 28.5522 20.7271C27.2877 20.7271 26.6749 20.0753 26.6684 18.8173C26.6684 15.5841 26.6684 12.3532 26.6684 9.12441C26.6396 8.87425 26.6666 8.62081 26.7476 8.38237C26.8286 8.14393 26.9615 7.92643 27.1367 7.74559C27.312 7.56474 27.5251 7.42505 27.7609 7.3366C27.9967 7.24814 28.2492 7.21313 28.5001 7.23408C31.7897 7.19932 35.0858 7.19932 38.3885 7.23408C38.6307 7.21638 38.8738 7.25217 39.1006 7.33892C39.3274 7.42566 39.5323 7.56122 39.7009 7.73601C39.8695 7.9108 39.9975 8.12052 40.076 8.35032C40.1545 8.58012 40.1814 8.82437 40.155 9.06575C40.1876 10.7084 40.155 12.3249 40.155 14.0067L40.1615 14.0262ZM36.7393 10.6953H30.0841V17.305H36.7393V10.6953Z" fill="#00308F"/>
<path d="M75.6746 64.7001C77.1934 64.7001 78.7057 64.7001 80.2375 64.7001C81.7693 64.7001 82.4342 65.3128 82.4472 66.8316C82.4733 69.93 82.4733 73.0284 82.4472 76.1268C82.4472 77.613 81.7954 78.2192 80.3287 78.2322C77.226 78.2322 74.1254 78.2322 71.027 78.2322C69.5408 78.2322 68.9281 77.5804 68.915 76.1138C68.915 73.0197 68.915 69.9213 68.915 66.8185C68.915 65.3519 69.5669 64.7261 71.04 64.7001C72.5132 64.674 74.1232 64.7001 75.6746 64.7001ZM72.285 68.1353C72.285 70.2537 72.285 72.2875 72.285 74.3212C72.3229 74.4423 72.3915 74.5515 72.484 74.6383C72.5765 74.725 72.6898 74.7865 72.813 74.8166C74.8402 74.8557 76.874 74.8166 78.9664 74.8166V68.1353H72.285Z" fill="#1752F0"/>
<path d="M65.5119 71.4404C65.5119 73.0243 65.5119 74.6083 65.5119 76.1857C65.5119 77.5872 64.9253 78.213 63.5564 78.226C60.3928 78.2608 57.2292 78.2608 54.0656 78.226C52.6316 78.226 52.0319 77.5742 52.0254 76.1532C52.0254 73.0156 52.0254 69.8825 52.0254 66.7536C52.0254 65.3913 52.6772 64.7199 53.9809 64.7069C57.1814 64.7069 60.382 64.6743 63.576 64.7069C64.8796 64.7069 65.4859 65.3587 65.4989 66.6624C65.5315 68.2789 65.5119 69.8629 65.5119 71.4404ZM55.4345 74.7778H62.0572V68.1681H55.4345V74.7778Z" fill="#1752F0"/>
<path d="M75.7783 81.6286C77.3231 81.6286 78.8745 81.6286 80.4259 81.6286C81.8013 81.6286 82.4205 82.2413 82.4336 83.6297C82.4596 86.7977 82.4596 89.9634 82.4336 93.127C82.4336 94.4959 81.7817 95.1282 80.4063 95.1347C77.2428 95.1347 74.0792 95.1347 70.9156 95.1347C69.5663 95.1347 68.9144 94.4828 68.9014 93.1075C68.8753 89.9439 68.8753 86.7803 68.9014 83.6167C68.9014 82.2413 69.5532 81.6612 70.9221 81.6612C72.5452 81.609 74.1617 81.6286 75.7783 81.6286ZM72.3301 91.7321H78.9853V85.0768H72.3301V91.7321Z" fill="#1752F0"/>
<path d="M75.6609 47.8173C77.2123 47.8173 78.7572 47.8173 80.3085 47.8173C81.7621 47.8173 82.414 48.404 82.4335 49.8185C82.4661 52.9799 82.4335 56.1413 82.4335 59.3092C82.4335 60.7368 81.7817 61.3039 80.3216 61.3104C77.2275 61.3104 74.1313 61.3104 71.0329 61.3104C69.5271 61.3104 68.9144 60.7237 68.9014 59.2245C68.9014 56.1304 68.9014 53.032 68.9014 49.9293C68.9014 48.43 69.5532 47.8304 71.0133 47.8173C72.4734 47.8043 74.1096 47.8173 75.6609 47.8173ZM78.9918 57.9013V51.246H72.3496V57.9013H78.9918Z" fill="#1752F0"/>
<path d="M65.5126 54.5564C65.5126 56.1339 65.5126 57.7178 65.5126 59.3018C65.5126 60.6967 64.9064 61.3029 63.557 61.3095C60.3891 61.3095 57.2234 61.3095 54.0598 61.3095C52.6388 61.3095 52.0456 60.6576 52.0391 59.2301C52.0391 56.136 52.0391 53.0376 52.0391 49.9349C52.0391 48.4357 52.6453 47.8229 54.1315 47.8164C57.2299 47.8164 60.3283 47.8164 63.4267 47.8164C64.9324 47.8164 65.5256 48.4031 65.5386 49.9088C65.5517 51.4146 65.5126 53.005 65.5126 54.5564ZM62.0774 57.8938V51.2516H55.4547V57.8938H62.0774Z" fill="#1752F0"/>
<path d="M65.5123 88.381C65.5123 89.9649 65.5123 91.5489 65.5123 93.1263C65.5123 94.5017 64.8604 95.134 63.5046 95.1405C60.341 95.1405 57.1774 95.1405 54.0138 95.1405C52.658 95.1405 52.0192 94.4887 52.0127 93.1133C52.0127 89.9497 52.0127 86.7861 52.0127 83.6225C52.0127 82.3189 52.6189 81.667 53.9291 81.667C57.1535 81.6409 60.3845 81.6409 63.6219 81.667C64.9256 81.667 65.4862 82.3189 65.5058 83.5704C65.5318 85.1544 65.5123 86.7644 65.5123 88.381ZM55.4674 85.0501V91.7119H62.064V85.0501H55.4674Z" fill="#1752F0"/>
<path d="M88.9262 101.359C88.3275 101.359 87.7531 101.122 87.3291 100.699C86.9051 100.277 86.6661 99.7029 86.6643 99.1041V45.347H47.554V99.0781C47.554 99.6779 47.3157 100.253 46.8915 100.677C46.4674 101.102 45.892 101.34 45.2922 101.34C44.6923 101.34 44.1169 101.102 43.6928 100.677C43.2686 100.253 43.0303 99.6779 43.0303 99.0781V43.0851C43.0303 42.4852 43.2686 41.9099 43.6928 41.4857C44.1169 41.0616 44.6923 40.8232 45.2922 40.8232H88.9653C89.5652 40.8232 90.1405 41.0616 90.5647 41.4857C90.9889 41.9099 91.2272 42.4852 91.2272 43.0851V99.0781C91.2308 99.3803 91.1735 99.6802 91.0589 99.9599C90.9443 100.24 90.7746 100.493 90.56 100.706C90.3453 100.919 90.0901 101.086 89.8094 101.199C89.5288 101.311 89.2284 101.366 88.9262 101.359Z" fill="#1752F0"/>
<path d="M101.344 102.5H2.65546C2.05038 102.5 1.47009 102.26 1.04224 101.832C0.614386 101.404 0.374023 100.824 0.374023 100.219C0.374023 99.6139 0.614386 99.0336 1.04224 98.6057C1.47009 98.1779 2.05038 97.9375 2.65546 97.9375H101.344C101.949 97.9375 102.529 98.1779 102.957 98.6057C103.385 99.0336 103.625 99.6139 103.625 100.219C103.625 100.824 103.385 101.404 102.957 101.832C102.529 102.26 101.949 102.5 101.344 102.5Z" fill="#00308F"/>
</g>
</g>
<defs>
<clipPath id="clip0_1_2">
<rect width="1440" height="8797" fill="white" transform="translate(-114 -4490)"/>
</clipPath>
</defs>
</svg>
