<svg xmlns="http://www.w3.org/2000/svg" width="44" height="44" viewBox="0 0 44 44"><defs><style>.a,.c{fill:#fff;}.a{opacity:0;}.b{fill:#1652f0;}</style></defs><rect class="a" width="44" height="44"/><path class="b" d="M22,0A22,22,0,1,1,0,22,22,22,0,0,1,22,0Z"/><g transform="translate(3.7 1.6)"><g transform="translate(8.3 12.4)"><path class="c" d="M-151.511-501.137h-16.421a1.779,1.779,0,0,1-1.768-1.768v-10.568a1.779,1.779,0,0,1,1.768-1.768h3.537a.579.579,0,0,0,.337-.211l.632-1.305a1.706,1.706,0,0,1,1.389-.842h4.674a1.706,1.706,0,0,1,1.389.842l.632,1.305a.474.474,0,0,0,.337.211h3.537a1.779,1.779,0,0,1,1.768,1.768v10.568a1.845,1.845,0,0,1-1.811,1.768Zm-16.421-12.884a.576.576,0,0,0-.589.589v10.568a.576.576,0,0,0,.589.589h16.421a.576.576,0,0,0,.589-.589v-10.568a.576.576,0,0,0-.589-.589h-3.537a1.706,1.706,0,0,1-1.389-.842l-.632-1.305a.474.474,0,0,0-.337-.211h-4.674a.579.579,0,0,0-.337.211l-.632,1.305a1.706,1.706,0,0,1-1.389.842Z" transform="translate(169.7 517.6)"/><path class="c" d="M-153.829-498.795a4.931,4.931,0,0,1-4.671-5.153,4.931,4.931,0,0,1,4.671-5.153,4.931,4.931,0,0,1,4.671,5.153,4.931,4.931,0,0,1-4.671,5.153Zm0-9.192a3.871,3.871,0,0,0-3.662,4.04,3.871,3.871,0,0,0,3.662,4.04,3.871,3.871,0,0,0,3.662-4.04,3.871,3.871,0,0,0-3.662-4.04Z" transform="translate(163.805 512.605)"/><path class="c" d="M-132.174-507.137a.648.648,0,0,1-.663.663.648.648,0,0,1-.663-.663.648.648,0,0,1,.663-.663.677.677,0,0,1,.663.663" transform="translate(148.623 511.887)"/><path class="c" d="M-164.1-514.7h2.653v.663H-164.1Z" transform="translate(166.753 516.074)"/><path class="c" d="M-149.684-502.937v-.663A3.325,3.325,0,0,0-153-500.284h.663a2.648,2.648,0,0,1,2.653-2.653" transform="translate(159.88 509.334)"/></g></g></svg>