<svg xmlns="http://www.w3.org/2000/svg" width="42" height="28" viewBox="0 0 42 28"><defs><style>.a{opacity:0.5;}.b{fill:#fff;}</style></defs><g class="a"><path class="b" d="M0,88.25H10.533v9.944H0Z" transform="translate(0 -79.222)"/><path class="b" d="M0,2.322A7.656,7.656,0,0,1,.425,1.4,2.785,2.785,0,0,1,2.909,0h11.2V3.33a4.212,4.212,0,0,0-3.577,4.213H0Z"/><path class="b" d="M267.85,205.394v-3.212c2.727-.961,3.388-1.726,3.682-4.3h10.54v4.492a2.9,2.9,0,0,1-2.159,2.934,1.121,1.121,0,0,0-.173.087Z" transform="translate(-240.072 -177.394)"/><path class="b" d="M0,197.64H10.53a4.22,4.22,0,0,0,3.608,4.3v3.243H2.328a3.261,3.261,0,0,1-1.951-1.469c-.145-.274-.252-.568-.377-.851Z" transform="translate(0 -177.181)"/><path class="b" d="M146.37,239V235.79h11.31V239Z" transform="translate(-131.063 -210.996)"/><path class="b" d="M122.639,68.3h-6.31a1.394,1.394,0,0,1-1.429-1.591V52.644a1.392,1.392,0,0,1,1.429-1.584h12.688a1.4,1.4,0,0,1,1.429,1.591V66.719a1.4,1.4,0,0,1-1.429,1.591Z" transform="translate(-101.674 -45.66)"/><path class="b" d="M300.32,88.41h10.509V98.3H300.32Z" transform="translate(-268.852 -79.363)"/><path class="b" d="M282.267,7.524H271.734a4.208,4.208,0,0,0-3.664-4.2V0H279.3a2.889,2.889,0,0,1,2.972,2.948Z" transform="translate(-240.267)"/><path class="b" d="M157.918.26V3.526H146.66V.26Z" transform="translate(-131.321 -0.23)"/></g></svg>