<svg xmlns="http://www.w3.org/2000/svg" width="13.027" height="16" viewBox="0 0 13.027 16"><defs><style>.a{fill:#ef5350;}</style></defs><path class="a" d="M-207.5-205.1h1v7.991h-1Z" transform="translate(211.509 210.093)"/><path class="a" d="M-201.5-205.1h1v7.991h-1Z" transform="translate(207.514 210.093)"/><path class="a" d="M-195.5-205.1h1v7.991h-1Z" transform="translate(203.519 210.093)"/><path class="a" d="M-219.5-214.1h13.027v1H-219.5Z" transform="translate(219.5 216.065)"/><path class="a" d="M-202.472-217.536h-.932v-1a.526.526,0,0,0-.533-.533h-2a.526.526,0,0,0-.533.533v1h-.932v-1A1.478,1.478,0,0,1-205.935-220h2a1.478,1.478,0,0,1,1.465,1.465v1" transform="translate(211.45 220)"/><path class="a" d="M-207.977-199.181h-6.016a1.62,1.62,0,0,1-1.571-1.465l-.936-11.987,1-.067.936,11.987a.6.6,0,0,0,.568.533h6.016a.58.58,0,0,0,.568-.533l.936-11.987,1,.067-.936,11.987a1.593,1.593,0,0,1-1.571,1.465" transform="translate(217.499 215.181)"/></svg>