<svg width="30" height="30" viewBox="0 0 30 30" fill="none" xmlns="http://www.w3.org/2000/svg">
<path d="M0 15C0 6.71573 6.71573 0 15 0C23.2843 0 30 6.71573 30 15C30 23.2843 23.2843 30 15 30C6.71573 30 0 23.2843 0 15Z" fill="#1652F0"/>
<g clip-path="url(#clip0_1662_20593)">
<path d="M22.3337 19.6667C22.3337 20.0203 22.1932 20.3594 21.9431 20.6095C21.6931 20.8595 21.3539 21 21.0003 21H9.00033C8.6467 21 8.30756 20.8595 8.05752 20.6095C7.80747 20.3594 7.66699 20.0203 7.66699 19.6667V12.3333C7.66699 11.9797 7.80747 11.6406 8.05752 11.3905C8.30756 11.1405 8.6467 11 9.00033 11H11.667L13.0003 9H17.0003L18.3337 11H21.0003C21.3539 11 21.6931 11.1405 21.9431 11.3905C22.1932 11.6406 22.3337 11.9797 22.3337 12.3333V19.6667Z" stroke="white" stroke-width="2" stroke-linecap="round" stroke-linejoin="round"/>
<path d="M15.0003 18.3333C16.4731 18.3333 17.667 17.1394 17.667 15.6667C17.667 14.1939 16.4731 13 15.0003 13C13.5276 13 12.3337 14.1939 12.3337 15.6667C12.3337 17.1394 13.5276 18.3333 15.0003 18.3333Z" stroke="white" stroke-width="2" stroke-linecap="round" stroke-linejoin="round"/>
</g>
<defs>
<clipPath id="clip0_1662_20593">
<rect width="16" height="16" fill="white" transform="translate(7 7)"/>
</clipPath>
</defs>
</svg>
