<svg width="66" height="66" viewBox="0 0 66 66" fill="none" xmlns="http://www.w3.org/2000/svg">
<path d="M5 33C5 17.536 17.536 5 33 5C48.464 5 61 17.536 61 33C61 48.464 48.464 61 33 61C17.536 61 5 48.464 5 33Z" fill="#D0DCFC"/>
<path d="M44.6666 25.9993C44.6666 24.716 43.6166 23.666 42.3333 23.666H23.6666C22.3833 23.666 21.3333 24.716 21.3333 25.9993M44.6666 25.9993V39.9993C44.6666 41.2827 43.6166 42.3327 42.3333 42.3327H23.6666C22.3833 42.3327 21.3333 41.2827 21.3333 39.9993V25.9993M44.6666 25.9993L33 34.166L21.3333 25.9993" stroke="#1652F0" stroke-width="2.33333" stroke-linecap="round" stroke-linejoin="round"/>
<path d="M33 56C20.2975 56 10 45.7025 10 33H0C0 51.2254 14.7746 66 33 66V56ZM56 33C56 45.7025 45.7025 56 33 56V66C51.2254 66 66 51.2254 66 33H56ZM33 10C45.7025 10 56 20.2975 56 33H66C66 14.7746 51.2254 0 33 0V10ZM33 0C14.7746 0 0 14.7746 0 33H10C10 20.2975 20.2975 10 33 10V0Z" fill="#E8EEFD"/>
</svg>
