<svg width="106" height="111" viewBox="0 0 106 111" fill="none" xmlns="http://www.w3.org/2000/svg">
<path d="M96.2427 0.774414C96.7642 1.00676 97.1995 1.39717 97.4869 1.89042C97.7743 2.38367 97.8994 2.95479 97.8445 3.52303C97.8115 7.29332 97.7983 11.0702 97.8445 14.8405C97.8445 17.1343 95.9791 17.7803 94.7992 17.1936C94.3862 16.9788 94.0475 16.6442 93.8276 16.2338C93.6077 15.8234 93.5167 15.3562 93.5666 14.8932C93.5666 13.0806 93.5666 11.2614 93.5666 9.44872V8.13043C93.1052 8.55887 92.8218 8.7896 92.5647 9.05984L71.5644 30.0469C69.8902 31.7212 68.9674 31.7146 67.2734 30.0469L59.7658 22.5393C59.5501 22.9371 59.2986 23.3144 59.0144 23.6664C47.2904 35.4036 35.5599 47.1451 23.8227 58.891C23.4841 59.2532 23.1134 59.5841 22.7154 59.8797C22.3188 60.1591 21.837 60.2908 21.3534 60.252C20.8699 60.2131 20.4152 60.0062 20.0684 59.6671C19.7215 59.3281 19.5042 58.8783 19.4544 58.3957C19.4045 57.9132 19.5251 57.4285 19.7954 57.0256C20.0439 56.6617 20.3312 56.3257 20.6523 56.0238L57.8741 18.7888C59.5087 17.1541 60.4447 17.1607 62.1057 18.8217L69.2509 25.9734L90.1721 5.05224H83.3499C81.7284 5.05224 80.9309 4.6238 80.5749 3.56917C80.219 2.51454 80.5749 1.73676 81.9328 0.774414H96.2427Z" fill="#00308F"/>
<path d="M8.18154 105.888V104.622C8.18154 98.8547 8.28041 93.0872 8.18154 87.3197C8.08926 83.2857 11.0093 80.6887 14.7071 80.8535C17.7259 80.9919 20.758 80.8535 23.7834 80.8535C27.8174 80.8535 30.1376 83.1604 30.1508 87.2142C30.1508 92.9487 30.1508 98.6767 30.1508 104.411V105.776H42.0153V104.556C42.0153 92.7708 42.0153 80.9875 42.0153 69.2064C42.0153 65.9766 43.7027 63.7092 46.5634 63.0698C47.1589 62.9597 47.7639 62.9089 48.3695 62.9182C51.4279 62.9182 54.4929 62.9182 57.5513 62.9182C61.6644 62.9182 63.9912 65.2384 63.9912 69.3251C63.9912 81.0358 63.9912 92.7488 63.9912 104.464V105.782H75.9085V104.464C75.9085 82.4925 75.9085 60.5211 75.9085 38.5497C75.9085 35.9131 76.7588 33.8434 79.2042 32.7031C80.1524 32.31 81.1703 32.1127 82.1967 32.123C85.2881 32.0571 88.3926 32.123 91.484 32.123C95.5971 32.123 97.8645 34.4103 97.8711 38.5563C97.8711 44.0008 97.8711 49.4475 97.8711 54.8964V105.888C99.3542 105.888 100.771 105.795 102.162 105.927C102.919 105.988 103.635 106.296 104.199 106.804C104.412 107.055 104.559 107.356 104.626 107.679C104.693 108.002 104.679 108.336 104.584 108.652C104.489 108.968 104.317 109.255 104.082 109.487C103.848 109.719 103.56 109.889 103.243 109.981C102.695 110.124 102.128 110.182 101.562 110.152C69.1281 110.152 36.6939 110.152 4.25964 110.152C3.90398 110.172 3.54749 110.172 3.19183 110.152C2.65085 110.134 2.13809 109.906 1.7609 109.518C1.38371 109.13 1.17134 108.611 1.16826 108.069C1.15854 107.792 1.20467 107.516 1.30391 107.257C1.40314 106.998 1.55347 106.761 1.74593 106.561C1.9384 106.361 2.16908 106.202 2.42426 106.093C2.67945 105.984 2.95392 105.928 3.23138 105.927C4.47057 105.861 5.72294 105.927 6.96872 105.927L8.18154 105.888ZM93.5603 105.842V38.7013C93.5603 36.7238 93.2307 36.4009 91.2599 36.4009H82.4999C80.4631 36.4009 80.1731 36.6975 80.1731 38.7672V105.842H93.5603ZM59.6738 105.842C59.6738 105.591 59.7133 105.387 59.7133 105.182C59.7133 93.1553 59.7133 81.1303 59.7133 69.1075C59.7133 67.7893 59.186 67.229 57.8414 67.2224C54.7829 67.2224 51.7245 67.2224 48.6661 67.2224C46.6887 67.2224 46.2866 67.6179 46.2866 69.5821V105.835L59.6738 105.842ZM12.4594 105.809H25.8334C25.8334 99.3885 25.8334 93.0542 25.8334 86.7264C25.8334 85.6059 25.2402 85.1708 23.9878 85.1642H14.5752C12.868 85.1642 12.4594 85.5795 12.4594 87.3197C12.4594 92.5137 12.4594 97.7078 12.4594 102.902V105.809Z" fill="#1752F0"/>
<path d="M14.2983 67.6769C14.0225 67.6718 13.7504 67.612 13.4979 67.5009C13.2454 67.3898 13.0175 67.2296 12.8274 67.0297C12.6373 66.8298 12.4888 66.5941 12.3905 66.3364C12.2923 66.0786 12.2462 65.8039 12.255 65.5281C12.2671 64.9722 12.4983 64.4435 12.8982 64.0571C13.2982 63.6707 13.8345 63.4579 14.3906 63.465C14.9466 63.4872 15.4724 63.7242 15.8572 64.1262C16.242 64.5283 16.4558 65.0639 16.4537 65.6204C16.4365 66.1776 16.2007 66.7056 15.7974 67.0904C15.3941 67.4752 14.8557 67.6859 14.2983 67.6769Z" fill="#00308F"/>
<path d="M102.847 110.225H3.05309C2.44124 110.225 1.85444 109.982 1.4218 109.55C0.98915 109.117 0.746094 108.53 0.746094 107.918C0.746094 107.306 0.98915 106.72 1.4218 106.287C1.85444 105.854 2.44124 105.611 3.05309 105.611H102.847C103.459 105.611 104.046 105.854 104.479 106.287C104.911 106.72 105.154 107.306 105.154 107.918C105.154 108.53 104.911 109.117 104.479 109.55C104.046 109.982 103.459 110.225 102.847 110.225Z" fill="#00308F"/>
</svg>
