<svg width="66" height="66" viewBox="0 0 66 66" fill="none" xmlns="http://www.w3.org/2000/svg">
<path d="M5 33C5 17.536 17.536 5 33 5C48.464 5 61 17.536 61 33C61 48.464 48.464 61 33 61C17.536 61 5 48.464 5 33Z" fill="#D0DCFC"/>
<path d="M37.0834 27.7507L41.1667 23.6673M43.5001 21.334L41.1667 23.6673L43.5001 21.334ZM32.2884 32.5457C32.8908 33.14 33.3697 33.8477 33.6975 34.6279C34.0252 35.4081 34.1954 36.2455 34.1983 37.0917C34.2011 37.938 34.0365 38.7764 33.714 39.5588C33.3914 40.3412 32.9173 41.0521 32.3189 41.6505C31.7205 42.2489 31.0097 42.723 30.2273 43.0455C29.4449 43.3681 28.6064 43.5327 27.7601 43.5298C26.9139 43.527 26.0765 43.3568 25.2963 43.029C24.5161 42.7013 23.8085 42.2224 23.2141 41.62C22.0452 40.4098 21.3985 38.7889 21.4131 37.1065C21.4277 35.4241 22.1025 33.8147 23.2922 32.625C24.4819 31.4353 26.0913 30.7604 27.7738 30.7458C29.4562 30.7312 31.077 31.378 32.2872 32.5468L32.2884 32.5457ZM32.2884 32.5457L37.0834 27.7507L32.2884 32.5457ZM37.0834 27.7507L40.5834 31.2507L44.6667 27.1673L41.1667 23.6673L37.0834 27.7507Z" stroke="#1652F0" stroke-width="2.33333" stroke-linecap="round" stroke-linejoin="round"/>
<path d="M33 56C20.2975 56 10 45.7025 10 33H0C0 51.2254 14.7746 66 33 66V56ZM56 33C56 45.7025 45.7025 56 33 56V66C51.2254 66 66 51.2254 66 33H56ZM33 10C45.7025 10 56 20.2975 56 33H66C66 14.7746 51.2254 0 33 0V10ZM33 0C14.7746 0 0 14.7746 0 33H10C10 20.2975 20.2975 10 33 10V0Z" fill="#E8EEFD"/>
</svg>
