<svg xmlns="http://www.w3.org/2000/svg" xmlns:xlink="http://www.w3.org/1999/xlink" width="59" height="53" viewBox="0 0 59 53"><defs><style>.a,.b{fill:#fff;}.a{stroke:#707070;}.c{clip-path:url(#a);}.d{fill:#fbbb00;}.e{fill:#518ef8;}.f{fill:#28b446;}.g{fill:#f14336;}</style><clipPath id="a"><rect class="a" width="27" height="27" transform="translate(77 746)"/></clipPath></defs><g transform="translate(-17.694 -379)"><rect class="b" width="59" height="53" rx="5" transform="translate(17.694 379)"/></g><g class="c" transform="translate(-61 -733)"><g transform="translate(77 746)"><path class="d" d="M5.984,16.316l-.94,3.509L1.609,19.9a13.524,13.524,0,0,1-.1-12.606h0l3.058.561,1.34,3.04a8.057,8.057,0,0,0,.076,5.424Z"/><path class="e" d="M26.764,10.978a13.495,13.495,0,0,1-4.812,13.05h0l-3.852-.2-.545-3.4a8.046,8.046,0,0,0,3.462-4.109H13.8V10.978H26.764Z"/><path class="f" d="M21.951,24.027h0A13.5,13.5,0,0,1,1.609,19.9l4.375-3.581a8.029,8.029,0,0,0,11.57,4.111Z"/><path class="g" d="M22.117,3.108l-4.373,3.58a8.028,8.028,0,0,0-11.835,4.2l-4.4-3.6h0A13.5,13.5,0,0,1,22.117,3.108Z"/></g></g></svg>