<svg width="180" height="120" viewBox="0 0 180 120" fill="none" xmlns="http://www.w3.org/2000/svg">
<path d="M59.4916 113.998C56.5514 113.998 53.6083 112.879 51.3702 110.641C46.8909 106.165 46.8909 98.8746 51.3702 94.3984L61.3997 84.3689C65.8759 79.8927 73.1663 79.8927 77.6425 84.3689C82.1217 88.8451 82.1217 96.1355 77.6425 100.612L67.613 110.641C65.3749 112.879 62.4317 113.998 59.4916 113.998ZM69.5211 87.009C68.117 87.009 66.7099 87.543 65.6419 88.6111L55.6124 98.6406C53.4733 100.78 53.4733 104.26 55.6124 106.399C57.7515 108.538 61.2317 108.538 63.3708 106.399L73.4003 96.3695C75.5394 94.2304 75.5394 90.7502 73.4003 88.6111C72.3292 87.54 70.9221 87.009 69.5211 87.009Z" fill="#152141"/>
<path d="M47.4906 101.997C44.5504 101.997 41.6073 100.878 39.3692 98.6402C34.89 94.164 34.89 86.8736 39.3692 82.3974L49.3987 72.3679C53.8749 67.8917 61.1653 67.8917 65.6415 72.3679C70.1207 76.8441 70.1207 84.1345 65.6415 88.6107L55.612 98.6402C53.3739 100.878 50.4307 101.997 47.4906 101.997ZM57.5201 75.008C56.116 75.008 54.709 75.5421 53.6409 76.6101L43.6114 86.6396C41.4723 88.7787 41.4723 92.2589 43.6114 94.398C45.7505 96.5371 49.2307 96.5371 51.3698 94.398L61.3993 84.3685C63.5384 82.2294 63.5384 78.7492 61.3993 76.6101C60.3282 75.5391 58.9212 75.008 57.5201 75.008Z" fill="#152141"/>
<path d="M38.4906 86.9966C35.5504 86.9966 32.6073 85.8775 30.3692 83.6394C25.89 79.1632 25.89 71.8728 30.3692 67.3966L37.3985 60.3672C41.8748 55.888 49.1651 55.888 53.6414 60.3672C58.1206 64.8465 58.1206 72.1338 53.6414 76.61L46.612 83.6394C44.3739 85.8775 41.4307 86.9966 38.4906 86.9966ZM45.5199 63.0044C44.1159 63.0044 42.7088 63.5384 41.6407 64.6094L34.6114 71.6388C32.4723 73.7779 32.4723 77.2581 34.6114 79.3972C36.7505 81.5363 40.2307 81.5363 42.3698 79.3972L49.3991 72.3678C51.5382 70.2287 51.5382 66.7485 49.3991 64.6094C48.3281 63.5384 46.921 63.0044 45.5199 63.0044Z" fill="#152141"/>
<path d="M88.0172 18.219C87.1082 18.069 86.3041 17.997 85.5511 17.997L57.0047 18C54.5145 18 51.9194 17.775 49.0723 17.313L50.0323 11.3877C52.5584 11.7987 54.8386 11.9997 57.0047 11.9997H85.5511C86.6341 11.9997 87.7622 12.0987 88.9953 12.3057L88.0172 18.219Z" fill="#1652F0"/>
<path d="M120.52 113.998C117.58 113.998 114.637 112.879 112.398 110.641L96.8847 95.124C95.7116 93.9509 95.7116 92.0548 96.8847 90.8817C98.0577 89.7087 99.9538 89.7087 101.127 90.8817L116.641 106.399C118.78 108.538 122.26 108.538 124.399 106.399C126.538 104.259 126.538 100.779 124.399 98.6401C123.226 97.4671 123.226 95.571 124.399 94.3979C125.572 93.2249 127.468 93.2249 128.641 94.3979C133.12 98.8742 133.12 106.165 128.641 110.641C126.403 112.879 123.46 113.998 120.52 113.998Z" fill="#1652F0"/>
<path d="M132.521 101.998C129.581 101.998 126.638 100.879 124.399 98.6407L108.886 83.124C107.713 81.9509 107.713 80.0548 108.886 78.8817C110.059 77.7087 111.955 77.7087 113.128 78.8817L128.642 94.3985C130.781 96.5376 134.261 96.5376 136.4 94.3985C138.539 92.2594 138.539 88.7792 136.4 86.6401L133.4 83.64C132.227 82.4669 132.227 80.5708 133.4 79.3978C134.573 78.2247 136.469 78.2247 137.642 79.3978L140.642 82.3979C145.121 86.8742 145.121 94.1645 140.642 98.6407C138.404 100.879 135.461 101.998 132.521 101.998Z" fill="#1652F0"/>
<path d="M102.52 119.999C99.5795 119.999 96.6364 118.88 94.3983 116.642L87.3329 109.577C86.1599 108.404 86.1599 106.508 87.3329 105.335C88.506 104.162 90.4021 104.162 91.5751 105.335L98.6405 112.4C100.78 114.539 104.26 114.539 106.399 112.4C108.538 110.261 108.538 106.781 106.399 104.642C105.226 103.468 105.226 101.572 106.399 100.399C107.572 99.2263 109.468 99.2263 110.641 100.399C115.12 104.876 115.12 112.166 110.641 116.642C108.403 118.88 105.46 119.999 102.52 119.999Z" fill="#1652F0"/>
<path d="M77.4925 119.998C74.5524 119.998 71.6092 118.879 69.3711 116.641C64.8919 112.165 64.8919 104.874 69.3711 100.398L73.4003 96.3689C77.8766 91.8927 85.1669 91.8927 89.6432 96.3689C94.1224 100.845 94.1224 108.135 89.6432 112.612L85.6139 116.641C83.3758 118.879 80.4327 119.998 77.4925 119.998ZM81.5217 99.009C80.1177 99.009 78.7106 99.543 77.6426 100.611L73.6133 104.64C71.4742 106.779 71.4742 110.26 73.6133 112.399C75.7525 114.538 79.2326 114.538 81.3717 112.399L85.4009 108.369C87.54 106.23 87.54 102.75 85.4009 100.611C84.3299 99.54 82.9228 99.009 81.5217 99.009Z" fill="#152141"/>
<path d="M141.512 87.0028C138.476 87.0028 135.571 85.8087 133.399 83.6396L120.886 71.123C119.713 69.9499 119.713 68.0508 120.886 66.8808C122.059 65.7077 123.955 65.7077 125.128 66.8808L137.641 79.3974C138.806 80.5585 140.393 81.1405 142.049 80.9755C143.708 80.8165 145.148 79.9494 146.111 78.5334C147.536 76.4332 147.134 73.3701 145.178 71.414C144.005 70.2409 144.005 68.3418 145.178 67.1688C146.351 65.9987 148.247 65.9957 149.42 67.1718C153.44 71.192 154.136 77.3873 151.076 81.8995C149.126 84.7827 146.039 86.6248 142.619 86.9518C142.247 86.9848 141.878 87.0028 141.512 87.0028Z" fill="#1652F0"/>
<path d="M162.009 72.0022C161.757 72.0022 161.505 71.9692 161.256 71.9062C160.476 71.7052 159.813 71.2012 159.411 70.5021L126.409 13.3403C125.587 11.9152 126.067 10.0911 127.483 9.25709L142.484 0.415646C143.171 0.00762541 143.993 -0.10338 144.77 0.0976299C145.544 0.30164 146.204 0.802665 146.603 1.4957L179.605 58.4985C180.424 59.9176 179.956 61.7327 178.552 62.5728L163.551 71.5732C163.08 71.8552 162.549 72.0022 162.009 72.0022ZM133.091 12.9143L163.08 64.8559L172.933 58.9456L142.925 7.11798L133.091 12.9143Z" fill="#152141"/>
<path d="M18.0019 72.0022C17.4619 72.0022 16.9308 71.8552 16.4568 71.5732L1.45607 62.5728C0.0520027 61.7297 -0.416021 59.9146 0.40302 58.4985L33.4047 1.4957C33.8067 0.802665 34.4667 0.30164 35.2378 0.0976299C36.0148 -0.10338 36.8338 0.00762541 37.5239 0.415646L52.5246 9.25709C53.9437 10.0911 54.4237 11.9152 53.5987 13.3403L20.597 70.5021C20.195 71.1982 19.532 71.7022 18.7519 71.9062C18.5059 71.9692 18.2539 72.0022 18.0019 72.0022ZM7.07535 58.9486L16.9278 64.8589L46.9173 12.9173L37.0829 7.11798L7.07535 58.9486Z" fill="#1652F0"/>
<path d="M147.299 72.2937C146.522 72.2937 145.754 71.9907 145.178 71.4146L117.888 44.1253C110.247 36.4839 97.9795 36.2049 90.0051 43.2942V48.0015C90.0051 56.2729 83.2758 63.0022 75.0044 63.0022H72.0042C68.695 63.0022 66.0039 60.3111 66.0039 57.0019V33.7267C66.0039 30.5226 67.252 27.5074 69.5201 25.2423L75.0104 19.749C80.2996 14.4598 85.5259 11.9967 91.4602 11.9967L123.007 11.9997C125.173 11.9997 127.45 11.8016 129.976 11.3906L130.936 17.3159C128.092 17.7749 125.497 18 123.007 18H91.4602C87.161 18 83.3958 19.848 79.2526 23.9943L73.7623 29.4875C72.6462 30.6006 72.0042 32.1487 72.0042 33.7267V57.0019H75.0044C79.9666 57.0019 84.0048 52.9637 84.0048 48.0015V42.0012C84.0048 41.2061 84.3198 40.4411 84.8838 39.88C95.1684 29.6135 111.87 29.6195 122.131 39.883L147.872 65.6243L157.394 60.7221L160.143 66.0564L148.673 71.9606C148.235 72.1857 147.767 72.2937 147.299 72.2937Z" fill="#152141"/>
<path d="M22.61 60.7227L19.8643 66.0576L31.3342 71.961L34.08 66.6261L22.61 60.7227Z" fill="#1652F0"/>
</svg>
