<svg width="130" height="120" viewBox="0 0 130 120" fill="none" xmlns="http://www.w3.org/2000/svg">
<path d="M76.6064 96.9228H53.3922C49.5525 96.9228 46.4279 93.8166 46.4279 89.9997V88.4143C46.4279 82.6451 44.0206 77.1274 39.8234 73.2805C32.2184 66.3135 27.8564 56.4251 27.8564 46.1535C27.8564 25.7951 44.5197 9.23047 64.9993 9.23047C85.4789 9.23047 102.142 25.7951 102.142 46.1535C102.142 56.4251 97.7802 66.3135 90.1752 73.2828C85.9781 77.1297 83.5707 82.6451 83.5707 88.4143V89.9997C83.5707 93.8166 80.4461 96.9228 76.6064 96.9228ZM64.9993 13.8459C47.0779 13.8459 32.4993 28.3382 32.4993 46.1535C32.4993 55.142 36.3157 63.7912 42.9713 69.8882C48.1202 74.6074 51.0707 81.362 51.0707 88.4143V89.9997C51.0707 91.2735 52.1131 92.3074 53.3922 92.3074H76.6064C77.8879 92.3074 78.9279 91.2735 78.9279 89.9997V88.4143C78.9279 81.3574 81.8784 74.6074 87.0273 69.8882C93.6805 63.7912 97.4993 55.1397 97.4993 46.1535C97.4993 28.3382 82.9207 13.8459 64.9993 13.8459Z" fill="#1652F0"/>
<path d="M71.9641 115.384H58.0356C54.1959 115.384 51.0713 112.278 51.0713 108.461V94.6152H55.7141V108.461C55.7141 109.735 56.7565 110.769 58.0356 110.769H71.9641C73.2456 110.769 74.2856 109.735 74.2856 108.461V94.6152H78.9284V108.461C78.9284 112.278 75.8038 115.384 71.9641 115.384Z" fill="#1652F0"/>
<path d="M64.9995 119.999C61.1598 119.999 58.0352 116.893 58.0352 113.076H62.678C62.678 114.35 63.7203 115.384 64.9995 115.384C66.2786 115.384 67.3209 114.35 67.3209 113.076H71.9637C71.9637 116.893 68.8391 119.999 64.9995 119.999Z" fill="#1652F0"/>
<path d="M92.8569 110.769C89.0172 110.769 85.8926 107.663 85.8926 103.846H90.5354C90.5354 105.12 91.5754 106.153 92.8569 106.153C94.1383 106.153 95.1783 105.12 95.1783 103.846H99.8212C99.8212 107.663 96.6965 110.769 92.8569 110.769Z" fill="#163587"/>
<path d="M76.6074 106.154H62.6789C61.3974 106.154 60.3574 105.123 60.3574 103.847C60.3574 102.571 61.3974 101.539 62.6789 101.539H76.6074C77.8912 101.539 78.9289 102.571 78.9289 103.847C78.9289 105.123 77.8912 106.154 76.6074 106.154Z" fill="#1652F0"/>
<path d="M99.8203 106.153H85.8917C84.608 106.153 83.5703 105.122 83.5703 103.845C83.5703 102.569 84.608 101.538 85.8917 101.538H99.8203C101.102 101.538 102.142 100.504 102.142 99.23V85.3839C102.142 84.1077 103.179 83.0762 104.463 83.0762C105.747 83.0762 106.785 84.1077 106.785 85.3839V99.23C106.785 103.047 103.66 106.153 99.8203 106.153Z" fill="#163587"/>
<path d="M104.464 96.924H90.5353C89.2515 96.924 88.2139 95.8924 88.2139 94.6163C88.2139 93.3401 89.2515 92.3086 90.5353 92.3086H104.464C105.748 92.3086 106.785 93.3401 106.785 94.6163C106.785 95.8924 105.748 96.924 104.464 96.924Z" fill="#163587"/>
<path d="M37.143 110.769C33.3034 110.769 30.1787 107.663 30.1787 103.846H34.8216C34.8216 105.12 35.8639 106.153 37.143 106.153C38.4221 106.153 39.4644 105.12 39.4644 103.846H44.1073C44.1073 107.663 40.9826 110.769 37.143 110.769Z" fill="#163587"/>
<path d="M44.1067 106.153H30.1782C26.3385 106.153 23.2139 103.047 23.2139 99.23V85.3839C23.2139 84.1077 24.2539 83.0762 25.5353 83.0762C26.8167 83.0762 27.8567 84.1077 27.8567 85.3839V99.23C27.8567 100.504 28.899 101.538 30.1782 101.538H44.1067C45.3882 101.538 46.4282 102.569 46.4282 103.845C46.4282 105.122 45.3882 106.153 44.1067 106.153Z" fill="#163587"/>
<path d="M39.4639 96.924H25.5353C24.2539 96.924 23.2139 95.8924 23.2139 94.6163C23.2139 93.3401 24.2539 92.3086 25.5353 92.3086H39.4639C40.7453 92.3086 41.7853 93.3401 41.7853 94.6163C41.7853 95.8924 40.7453 96.924 39.4639 96.924Z" fill="#163587"/>
<path d="M60.3562 69.2303C59.7619 69.2303 59.1676 69.0041 58.7149 68.5541L42.4649 52.4003C41.5573 51.498 41.5573 50.0395 42.4649 49.1372L49.4292 42.2141C50.3369 41.3118 51.804 41.3118 52.7117 42.2141L60.3562 49.8134L77.2864 32.9834C78.194 32.0811 79.6612 32.0811 80.5689 32.9834L87.5331 39.9064C88.4408 40.8088 88.4408 42.2672 87.5331 43.1695L61.9974 68.5541C61.5448 69.0041 60.9505 69.2303 60.3562 69.2303ZM47.3887 50.7688L60.3562 63.6595L82.6094 41.538L78.9276 37.878L61.9974 54.708C61.0898 55.6103 59.6226 55.6103 58.7149 54.708L51.0705 47.1088L47.3887 50.7688Z" fill="#1652F0"/>
<path d="M104.464 87.6923H81.475V83.0769H104.464C105.746 83.0769 106.786 82.0431 106.786 80.7692V79.1838C106.786 72.1269 109.736 65.3769 114.885 60.6577C121.538 54.5608 125.357 45.9092 125.357 36.9231C125.357 19.1077 110.778 4.61538 92.8569 4.61538C84.5532 4.61538 76.6371 7.75385 70.5643 13.4562L67.377 10.1031C74.3157 3.58846 83.3623 0 92.8569 0C113.337 0 130 16.5646 130 36.9231C130 47.1946 125.638 57.0831 118.033 64.0523C113.836 67.8992 111.428 73.4146 111.428 79.1838V80.7692C111.428 84.5862 108.304 87.6923 104.464 87.6923Z" fill="#163587"/>
<path d="M48.5271 87.6923H25.5357C21.6961 87.6923 18.5714 84.5862 18.5714 80.7692V79.1838C18.5714 73.4146 16.1641 67.8969 11.967 64.05C4.36196 57.0831 0 47.1946 0 36.9231C0 16.5646 16.6632 0 37.1429 0C46.6352 0 55.6841 3.58846 62.6205 10.1031L59.4332 13.4562C53.3627 7.75385 45.4466 4.61538 37.1429 4.61538C19.2214 4.61538 4.64286 19.1077 4.64286 36.9231C4.64286 45.9115 8.45929 54.5608 15.1148 60.6577C20.2638 65.3769 23.2143 72.1315 23.2143 79.1838V80.7692C23.2143 82.0431 24.2566 83.0769 25.5357 83.0769H48.5271V87.6923Z" fill="#163587"/>
</svg>
