<svg width="130" height="120" viewBox="0 0 130 120" fill="none" xmlns="http://www.w3.org/2000/svg">
<path d="M55.7141 103.846H51.0713V117.692H55.7141V103.846Z" fill="#163587"/>
<path d="M85.8933 120H44.1076C42.8261 120 41.7861 118.966 41.7861 117.692C41.7861 116.419 42.8261 115.385 44.1076 115.385H85.8933C87.1747 115.385 88.2147 116.419 88.2147 117.692C88.2147 118.966 87.1747 120 85.8933 120Z" fill="#163587"/>
<path d="M78.929 103.846H74.2861V117.692H78.929V103.846Z" fill="#163587"/>
<path d="M123.036 106.154H6.96429C3.12464 106.154 0 103.048 0 99.2312V25.385C0 21.5681 3.12464 18.4619 6.96429 18.4619H60.3571C61.6386 18.4619 62.6786 19.4958 62.6786 20.7696C62.6786 22.0435 61.6386 23.0773 60.3571 23.0773H6.96429C5.68518 23.0773 4.64286 24.1135 4.64286 25.385V99.2312C4.64286 100.503 5.68518 101.539 6.96429 101.539H123.036C124.315 101.539 125.357 100.503 125.357 99.2312V25.385C125.357 24.1135 124.315 23.0773 123.036 23.0773H116.071C114.79 23.0773 113.75 22.0435 113.75 20.7696C113.75 19.4958 114.79 18.4619 116.071 18.4619H123.036C126.875 18.4619 130 21.5681 130 25.385V99.2312C130 103.048 126.875 106.154 123.036 106.154Z" fill="#163587"/>
<path d="M37.1424 64.6152C29.4608 64.6152 23.2139 58.4052 23.2139 50.769C23.2139 43.1329 29.4608 36.9229 37.1424 36.9229C44.824 36.9229 51.071 43.1329 51.071 50.769C51.071 58.4052 44.824 64.6152 37.1424 64.6152ZM37.1424 41.5382C32.0214 41.5382 27.8567 45.6782 27.8567 50.769C27.8567 55.8598 32.0214 59.9998 37.1424 59.9998C42.2635 59.9998 46.4282 55.8598 46.4282 50.769C46.4282 45.6782 42.2635 41.5382 37.1424 41.5382Z" fill="#1652F0"/>
<path d="M58.0359 92.3075C56.7544 92.3075 55.7144 91.2736 55.7144 89.9998V77.7875C55.7144 74.9398 53.9966 72.4175 51.3362 71.3605L46.9859 69.6298L38.7819 77.7852C37.8742 78.6875 36.4071 78.6875 35.4994 77.7852L27.2955 69.6298L22.9451 71.3605C20.2894 72.4175 18.5716 74.9398 18.5716 77.7875V89.9998C18.5716 91.2736 17.5316 92.3075 16.2501 92.3075C14.9687 92.3075 13.9287 91.2736 13.9287 89.9998V77.7875C13.9287 73.0405 16.791 68.8359 21.225 67.0728L26.996 64.779C27.8573 64.4375 28.8416 64.6359 29.4985 65.2913L37.143 72.8905L44.7875 65.2913C45.4421 64.6382 46.431 64.4375 47.29 64.779L53.061 67.0728C57.495 68.8359 60.3573 73.0405 60.3573 77.7875V89.9998C60.3573 91.2736 59.3173 92.3075 58.0359 92.3075Z" fill="#1652F0"/>
<path d="M88.2143 64.6154H58.0357C57.0979 64.6154 56.2506 64.0523 55.8907 63.1915C55.5309 62.3308 55.7306 61.3362 56.3945 60.6762L63.6489 53.4646C58.5163 47.5915 55.7143 40.1631 55.7143 32.3077C55.7143 14.4923 70.2929 0 88.2143 0C106.136 0 120.714 14.4923 120.714 32.3077C120.714 50.1231 106.136 64.6154 88.2143 64.6154ZM63.6397 60H88.2143C103.575 60 116.071 47.5777 116.071 32.3077C116.071 17.0377 103.575 4.61538 88.2143 4.61538C72.8534 4.61538 60.3572 17.0377 60.3572 32.3077C60.3572 39.7038 63.2543 46.6569 68.517 51.8885C69.4247 52.7908 69.4247 54.2492 68.517 55.1515L63.6397 60Z" fill="#1652F0"/>
<path d="M99.8218 27.6925H76.6076C75.3261 27.6925 74.2861 26.6587 74.2861 25.3848C74.2861 24.111 75.3261 23.0771 76.6076 23.0771H99.8218C101.103 23.0771 102.143 24.111 102.143 25.3848C102.143 26.6587 101.103 27.6925 99.8218 27.6925Z" fill="#1652F0"/>
<path d="M99.8218 41.5382H76.6076C75.3261 41.5382 74.2861 40.5044 74.2861 39.2305C74.2861 37.9567 75.3261 36.9229 76.6076 36.9229H99.8218C101.103 36.9229 102.143 37.9567 102.143 39.2305C102.143 40.5044 101.103 41.5382 99.8218 41.5382Z" fill="#1652F0"/>
<path d="M48.7501 92.308C47.4687 92.308 46.4287 91.2742 46.4287 90.0003V83.0772C46.4287 81.8034 47.4687 80.7695 48.7501 80.7695C50.0316 80.7695 51.0716 81.8034 51.0716 83.0772V90.0003C51.0716 91.2742 50.0316 92.308 48.7501 92.308Z" fill="#1652F0"/>
<path d="M25.5353 92.308C24.2539 92.308 23.2139 91.2742 23.2139 90.0003V83.0772C23.2139 81.8034 24.2539 80.7695 25.5353 80.7695C26.8167 80.7695 27.8567 81.8034 27.8567 83.0772V90.0003C27.8567 91.2742 26.8167 92.308 25.5353 92.308Z" fill="#1652F0"/>
<path d="M127.679 92.3078H2.32143C1.04 92.3078 0 91.2739 0 90.0001C0 88.7262 1.04 87.6924 2.32143 87.6924H127.679C128.96 87.6924 130 88.7262 130 90.0001C130 91.2739 128.96 92.3078 127.679 92.3078Z" fill="#163587"/>
</svg>
