<svg xmlns="http://www.w3.org/2000/svg" xmlns:xlink="http://www.w3.org/1999/xlink" width="32.366" height="20" viewBox="0 0 32.366 20"><defs><style>.a{clip-path:url(#a);}.b{fill:#ff5f00;}.c{clip-path:url(#b);}.d{fill:#eb001b;}.e{clip-path:url(#c);}.f{fill:#f79e1b;}</style><clipPath id="a"><rect width="9.547" height="15.801"/></clipPath><clipPath id="b"><path d="M54.443,45.7a10,10,0,0,1,3.8-7.857A9.79,9.79,0,0,0,52.1,35.7a10,10,0,1,0,6.143,17.857,9.936,9.936,0,0,1-3.8-7.857" transform="translate(-42.2 -35.7)"/></clipPath><clipPath id="c"><path d="M94.444,45.7A9.895,9.895,0,0,1,78.4,53.557a10.021,10.021,0,0,0,0-15.714A9.79,9.79,0,0,1,84.543,35.7a9.934,9.934,0,0,1,9.9,10" transform="translate(-78.4 -35.7)"/></clipPath></defs><g transform="translate(11.387 2.122)"><g transform="translate(0 0)"><g class="a"><rect class="b" width="13.966" height="20.278" transform="translate(-2.21 -2.238)"/></g></g></g><g transform="translate(0 0)"><g class="c"><rect class="d" width="20.463" height="24.509" transform="translate(-2.254 -2.232)"/></g></g><g transform="translate(16.323)"><g transform="translate(0 0)"><g class="e"><rect class="f" width="20.463" height="24.509" transform="translate(-2.21 -2.232)"/></g></g></g></svg>