<svg width="25" height="24" viewBox="0 0 25 24" fill="none" xmlns="http://www.w3.org/2000/svg">
<path d="M21.75 11.5C21.7534 12.8199 21.4451 14.1219 20.85 15.3C20.1444 16.7118 19.0598 17.8992 17.7174 18.7293C16.3751 19.5594 14.8282 19.9994 13.25 20C11.9301 20.0035 10.6281 19.6951 9.45 19.1L3.75 21L5.65 15.3C5.05493 14.1219 4.74656 12.8199 4.75 11.5C4.75061 9.92179 5.19061 8.37488 6.02072 7.03258C6.85083 5.69028 8.03825 4.6056 9.45 3.90003C10.6281 3.30496 11.9301 2.99659 13.25 3.00003H13.75C15.8343 3.11502 17.803 3.99479 19.2791 5.47089C20.7552 6.94699 21.635 8.91568 21.75 11V11.5Z" stroke="white" stroke-width="2" stroke-linecap="round" stroke-linejoin="round"/>
</svg>
