<svg width="44" height="44" viewBox="0 0 44 44" fill="none" xmlns="http://www.w3.org/2000/svg">
<path d="M42.2341 16.36C42.1084 15.9898 41.877 15.6645 41.5685 15.4243C41.26 15.184 40.8879 15.0394 40.4981 15.0082L29.0961 14.1023L24.162 3.18178C24.0049 2.83005 23.7493 2.53131 23.4261 2.32161C23.1029 2.11191 22.7259 2.00021 22.3407 2C21.9554 1.99979 21.5783 2.11107 21.2549 2.32042C20.9314 2.52976 20.6755 2.82822 20.518 3.17978L15.584 14.1023L4.18191 15.0082C3.79882 15.0386 3.43258 15.1786 3.12701 15.4116C2.82144 15.6446 2.58948 15.9607 2.45888 16.3221C2.32828 16.6835 2.30457 17.0748 2.39059 17.4493C2.4766 17.8238 2.6687 18.1656 2.9439 18.4338L11.3699 26.6467L8.38993 39.549C8.29945 39.9395 8.32845 40.3482 8.47317 40.7221C8.6179 41.0959 8.87166 41.4177 9.20154 41.6456C9.53142 41.8734 9.92218 41.9969 10.3231 41.9999C10.724 42.003 11.1166 41.8855 11.4499 41.6627L22.34 34.4036L33.2301 41.6627C33.5708 41.8888 33.9725 42.0053 34.3813 41.9963C34.7902 41.9873 35.1865 41.8534 35.5169 41.6125C35.8473 41.3717 36.096 41.0354 36.2296 40.649C36.3632 40.2625 36.3752 39.8444 36.2641 39.451L32.6061 26.6527L41.6781 18.4897C42.2721 17.9538 42.4901 17.1179 42.2341 16.36Z" stroke="#0066FF" stroke-width="3"/>
</svg>
