<svg width="328" height="235" viewBox="0 0 328 235" fill="none" xmlns="http://www.w3.org/2000/svg">
<path d="M268.213 0H66.5107C57.2276 0 49.7021 7.51522 49.7021 16.7857V218.214C49.7021 227.485 57.2276 235 66.5107 235H268.213C277.496 235 285.021 227.485 285.021 218.214V16.7857C285.021 7.51522 277.496 0 268.213 0Z" fill="url(#paint0_linear_1861_52941)"/>
<g filter="url(#filter0_d_1861_52941)">
<path d="M86.6809 90.6436H313.596C315.825 90.6436 317.962 91.5278 319.538 93.1018C321.115 94.6757 322 96.8105 322 99.0364V141.001C322 143.227 321.115 145.361 319.538 146.935C317.962 148.509 315.825 149.394 313.596 149.394H86.6809C84.4519 149.394 82.3143 148.509 80.7382 146.935C79.1621 145.361 78.2766 143.227 78.2766 141.001V99.0364C78.2766 96.8105 79.1621 94.6757 80.7382 93.1018C82.3143 91.5278 84.4519 90.6436 86.6809 90.6436V90.6436Z" fill="white"/>
</g>
<path d="M211.064 104.072H167.362C164.577 104.072 162.319 106.327 162.319 109.108C162.319 111.889 164.577 114.144 167.362 114.144H211.064C213.849 114.144 216.107 111.889 216.107 109.108C216.107 106.327 213.849 104.072 211.064 104.072Z" fill="#B4DAFF"/>
<path d="M241.319 125.894H167.362C164.577 125.894 162.319 128.148 162.319 130.929C162.319 133.71 164.577 135.965 167.362 135.965H241.319C244.104 135.965 246.362 133.71 246.362 130.929C246.362 128.148 244.104 125.894 241.319 125.894Z" fill="#DEE9FC"/>
<path d="M129.543 135.965C138.361 135.965 145.511 128.826 145.511 120.019C145.511 111.212 138.361 104.072 129.543 104.072C120.724 104.072 113.574 111.212 113.574 120.019C113.574 128.826 120.724 135.965 129.543 135.965Z" fill="#1485FD"/>
<g filter="url(#filter1_d_1861_52941)">
<path d="M14.4043 162.82H241.319C243.548 162.82 245.686 163.705 247.262 165.279C248.838 166.852 249.723 168.987 249.723 171.213V213.177C249.723 215.403 248.838 217.538 247.262 219.112C245.686 220.686 243.548 221.57 241.319 221.57H14.4043C12.1753 221.57 10.0377 220.686 8.46155 219.112C6.88545 217.538 6 215.403 6 213.177V171.213C6 168.987 6.88545 166.852 8.46155 165.279C10.0377 163.705 12.1753 162.82 14.4043 162.82V162.82Z" fill="white"/>
</g>
<path d="M138.787 176.25H95.0853C92.3004 176.25 90.0427 178.505 90.0427 181.286C90.0427 184.067 92.3004 186.321 95.0853 186.321H138.787C141.572 186.321 143.83 184.067 143.83 181.286C143.83 178.505 141.572 176.25 138.787 176.25Z" fill="#B4DAFF"/>
<path d="M169.043 198.071H95.0853C92.3004 198.071 90.0427 200.326 90.0427 203.107C90.0427 205.888 92.3004 208.143 95.0853 208.143H169.043C171.828 208.143 174.085 205.888 174.085 203.107C174.085 200.326 171.828 198.071 169.043 198.071Z" fill="#DEE9FC"/>
<path d="M35.4151 208.142C44.234 208.142 51.3832 201.002 51.3832 192.195C51.3832 183.388 44.234 176.249 35.4151 176.249C26.5962 176.249 19.447 183.388 19.447 192.195C19.447 201.002 26.5962 208.142 35.4151 208.142Z" fill="#1485FD"/>
<g filter="url(#filter2_d_1861_52941)">
<path d="M241.319 18.4648H14.4043C9.76271 18.4648 6 22.2225 6 26.8577V68.822C6 73.4572 9.76271 77.2148 14.4043 77.2148H241.319C245.961 77.2148 249.723 73.4572 249.723 68.822V26.8577C249.723 22.2225 245.961 18.4648 241.319 18.4648Z" fill="white"/>
</g>
<path d="M135.426 31.8926H91.7235C88.9385 31.8926 86.6809 34.1471 86.6809 36.9283C86.6809 39.7094 88.9385 41.964 91.7235 41.964H135.426C138.211 41.964 140.468 39.7094 140.468 36.9283C140.468 34.1471 138.211 31.8926 135.426 31.8926Z" fill="#B4DAFF"/>
<path d="M165.681 53.7139H91.7235C88.9385 53.7139 86.6809 55.9684 86.6809 58.7496C86.6809 61.5307 88.9385 63.7853 91.7235 63.7853H165.681C168.466 63.7853 170.723 61.5307 170.723 58.7496C170.723 55.9684 168.466 53.7139 165.681 53.7139Z" fill="#DEE9FC"/>
<path d="M57.2659 63.7845C66.0849 63.7845 73.234 56.645 73.234 47.838C73.234 39.0311 66.0849 31.8916 57.2659 31.8916C48.447 31.8916 41.2979 39.0311 41.2979 47.838C41.2979 56.645 48.447 63.7845 57.2659 63.7845Z" fill="#1485FD"/>
<path d="M50.7879 43.0483C50.866 42.9702 50.9587 42.9082 51.0608 42.8658C51.1629 42.8235 51.2724 42.8018 51.3829 42.8018C51.4935 42.8018 51.6029 42.8235 51.7051 42.8658C51.8072 42.9082 51.8999 42.9702 51.978 43.0483L56.4255 47.4915L60.873 43.0483C60.9512 42.9703 61.0439 42.9084 61.146 42.8662C61.2481 42.8239 61.3575 42.8022 61.468 42.8022C61.5786 42.8022 61.688 42.8239 61.7901 42.8662C61.8922 42.9084 61.9849 42.9703 62.0631 43.0483C62.1412 43.1264 62.2032 43.219 62.2455 43.321C62.2878 43.4229 62.3095 43.5322 62.3095 43.6425C62.3095 43.7529 62.2878 43.8622 62.2455 43.9641C62.2032 44.0661 62.1412 44.1587 62.0631 44.2368L57.6139 48.6783L62.0631 53.1198C62.1412 53.1978 62.2032 53.2904 62.2455 53.3924C62.2878 53.4943 62.3095 53.6036 62.3095 53.714C62.3095 53.8243 62.2878 53.9336 62.2455 54.0356C62.2032 54.1375 62.1412 54.2302 62.0631 54.3082C61.9849 54.3862 61.8922 54.4481 61.7901 54.4904C61.688 54.5326 61.5786 54.5543 61.468 54.5543C61.3575 54.5543 61.2481 54.5326 61.146 54.4904C61.0439 54.4481 60.9512 54.3862 60.873 54.3082L56.4255 49.865L51.978 54.3082C51.8998 54.3862 51.8071 54.4481 51.705 54.4904C51.6029 54.5326 51.4934 54.5543 51.3829 54.5543C51.2724 54.5543 51.163 54.5326 51.0609 54.4904C50.9588 54.4481 50.8661 54.3862 50.7879 54.3082C50.7098 54.2302 50.6478 54.1375 50.6055 54.0356C50.5632 53.9336 50.5415 53.8243 50.5415 53.714C50.5415 53.6036 50.5632 53.4943 50.6055 53.3924C50.6478 53.2904 50.7098 53.1978 50.7879 53.1198L55.2371 48.6783L50.7879 44.2368C50.7097 44.1588 50.6476 44.0662 50.6052 43.9642C50.5628 43.8622 50.541 43.7529 50.541 43.6425C50.541 43.5321 50.5628 43.4228 50.6052 43.3209C50.6476 43.2189 50.7097 43.1263 50.7879 43.0483Z" fill="white"/>
<path d="M123.065 115.227C123.143 115.149 123.235 115.087 123.337 115.045C123.44 115.002 123.549 114.98 123.66 114.98C123.77 114.98 123.88 115.002 123.982 115.045C124.084 115.087 124.177 115.149 124.255 115.227L128.702 119.67L133.15 115.227C133.228 115.149 133.321 115.087 133.423 115.045C133.525 115.003 133.634 114.981 133.745 114.981C133.855 114.981 133.965 115.003 134.067 115.045C134.169 115.087 134.262 115.149 134.34 115.227C134.418 115.305 134.48 115.398 134.522 115.5C134.564 115.602 134.586 115.711 134.586 115.821C134.586 115.932 134.564 116.041 134.522 116.143C134.48 116.245 134.418 116.337 134.34 116.415L129.89 120.857L134.34 125.298C134.418 125.377 134.48 125.469 134.522 125.571C134.564 125.673 134.586 125.782 134.586 125.893C134.586 126.003 134.564 126.112 134.522 126.214C134.48 126.316 134.418 126.409 134.34 126.487C134.262 126.565 134.169 126.627 134.067 126.669C133.965 126.711 133.855 126.733 133.745 126.733C133.634 126.733 133.525 126.711 133.423 126.669C133.321 126.627 133.228 126.565 133.15 126.487L128.702 122.044L124.255 126.487C124.176 126.565 124.084 126.627 123.982 126.669C123.879 126.711 123.77 126.733 123.66 126.733C123.549 126.733 123.44 126.711 123.338 126.669C123.235 126.627 123.143 126.565 123.065 126.487C122.986 126.409 122.924 126.316 122.882 126.214C122.84 126.112 122.818 126.003 122.818 125.893C122.818 125.782 122.84 125.673 122.882 125.571C122.924 125.469 122.986 125.377 123.065 125.298L127.514 120.857L123.065 116.415C122.986 116.338 122.924 116.245 122.882 116.143C122.839 116.041 122.818 115.932 122.818 115.821C122.818 115.711 122.839 115.602 122.882 115.5C122.924 115.398 122.986 115.305 123.065 115.227Z" fill="white"/>
<path d="M28.9368 187.405C29.0149 187.327 29.1077 187.265 29.2098 187.222C29.3119 187.18 29.4213 187.158 29.5319 187.158C29.6424 187.158 29.7519 187.18 29.854 187.222C29.9561 187.265 30.0488 187.327 30.1269 187.405L34.5744 191.848L39.022 187.405C39.1001 187.327 39.1929 187.265 39.295 187.223C39.397 187.18 39.5065 187.159 39.617 187.159C39.7275 187.159 39.8369 187.18 39.939 187.223C40.0411 187.265 40.1339 187.327 40.212 187.405C40.2901 187.483 40.3521 187.575 40.3944 187.677C40.4367 187.779 40.4585 187.889 40.4585 187.999C40.4585 188.109 40.4367 188.219 40.3944 188.321C40.3521 188.423 40.2901 188.515 40.212 188.593L35.7628 193.035L40.212 197.476C40.2901 197.554 40.3521 197.647 40.3944 197.749C40.4367 197.851 40.4585 197.96 40.4585 198.07C40.4585 198.181 40.4367 198.29 40.3944 198.392C40.3521 198.494 40.2901 198.587 40.212 198.665C40.1339 198.743 40.0411 198.805 39.939 198.847C39.8369 198.889 39.7275 198.911 39.617 198.911C39.5065 198.911 39.397 198.889 39.295 198.847C39.1929 198.805 39.1001 198.743 39.022 198.665L34.5744 194.221L30.1269 198.665C30.0488 198.743 29.956 198.805 29.8539 198.847C29.7518 198.889 29.6424 198.911 29.5319 198.911C29.4214 198.911 29.3119 198.889 29.2098 198.847C29.1078 198.805 29.015 198.743 28.9368 198.665C28.8587 198.587 28.7967 198.494 28.7544 198.392C28.7121 198.29 28.6904 198.181 28.6904 198.07C28.6904 197.96 28.7121 197.851 28.7544 197.749C28.7967 197.647 28.8587 197.554 28.9368 197.476L33.3861 193.035L28.9368 188.593C28.8586 188.515 28.7965 188.423 28.7541 188.321C28.7117 188.219 28.6899 188.109 28.6899 187.999C28.6899 187.889 28.7117 187.779 28.7541 187.677C28.7965 187.575 28.8586 187.483 28.9368 187.405Z" fill="white"/>
<defs>
<filter id="filter0_d_1861_52941" x="72.2766" y="87.6436" width="255.723" height="70.75" filterUnits="userSpaceOnUse" color-interpolation-filters="sRGB">
<feFlood flood-opacity="0" result="BackgroundImageFix"/>
<feColorMatrix in="SourceAlpha" type="matrix" values="0 0 0 0 0 0 0 0 0 0 0 0 0 0 0 0 0 0 127 0" result="hardAlpha"/>
<feOffset dy="3"/>
<feGaussianBlur stdDeviation="3"/>
<feColorMatrix type="matrix" values="0 0 0 0 0 0 0 0 0 0 0 0 0 0 0 0 0 0 0.161 0"/>
<feBlend mode="normal" in2="BackgroundImageFix" result="effect1_dropShadow_1861_52941"/>
<feBlend mode="normal" in="SourceGraphic" in2="effect1_dropShadow_1861_52941" result="shape"/>
</filter>
<filter id="filter1_d_1861_52941" x="0" y="159.82" width="255.723" height="70.75" filterUnits="userSpaceOnUse" color-interpolation-filters="sRGB">
<feFlood flood-opacity="0" result="BackgroundImageFix"/>
<feColorMatrix in="SourceAlpha" type="matrix" values="0 0 0 0 0 0 0 0 0 0 0 0 0 0 0 0 0 0 127 0" result="hardAlpha"/>
<feOffset dy="3"/>
<feGaussianBlur stdDeviation="3"/>
<feColorMatrix type="matrix" values="0 0 0 0 0 0 0 0 0 0 0 0 0 0 0 0 0 0 0.161 0"/>
<feBlend mode="normal" in2="BackgroundImageFix" result="effect1_dropShadow_1861_52941"/>
<feBlend mode="normal" in="SourceGraphic" in2="effect1_dropShadow_1861_52941" result="shape"/>
</filter>
<filter id="filter2_d_1861_52941" x="0" y="15.4648" width="255.723" height="70.75" filterUnits="userSpaceOnUse" color-interpolation-filters="sRGB">
<feFlood flood-opacity="0" result="BackgroundImageFix"/>
<feColorMatrix in="SourceAlpha" type="matrix" values="0 0 0 0 0 0 0 0 0 0 0 0 0 0 0 0 0 0 127 0" result="hardAlpha"/>
<feOffset dy="3"/>
<feGaussianBlur stdDeviation="3"/>
<feColorMatrix type="matrix" values="0 0 0 0 0 0 0 0 0 0 0 0 0 0 0 0 0 0 0.161 0"/>
<feBlend mode="normal" in2="BackgroundImageFix" result="effect1_dropShadow_1861_52941"/>
<feBlend mode="normal" in="SourceGraphic" in2="effect1_dropShadow_1861_52941" result="shape"/>
</filter>
<linearGradient id="paint0_linear_1861_52941" x1="167.362" y1="0" x2="167.362" y2="235" gradientUnits="userSpaceOnUse">
<stop stop-color="#E3ECFA"/>
<stop offset="1" stop-color="#DAE7FF"/>
</linearGradient>
</defs>
</svg>
