<svg xmlns="http://www.w3.org/2000/svg" width="187.56" height="146.1" viewBox="0 0 187.56 146.1"><defs><style>.a,.e{fill:#bbdefb;}.a{fill-rule:evenodd;}.b{fill:#fff;}.c{fill:#1652f0;}.d{fill:none;stroke-width:1.5px;}.d,.e{stroke:#fff;}</style></defs><path class="a" d="M107.828,192a25.521,25.521,0,0,1,30.2-34.158Q138,157.175,138,156.5c0-21.263,18.8-38.5,42-38.5,18.91,0,34.9,11.456,40.165,27.21A34.915,34.915,0,0,1,224,145c18.225,0,33,14.1,33,31.5S242.225,208,224,208q-.683,0-1.358-.026v.314H131.3V208H98a8,8,0,0,1,0-16Z" transform="translate(-71 -116.44)"/><path class="b" d="M107.828,192v1.56h2.308l-.86-2.141Zm30.2-34.158-.4,1.508,2.035.538-.078-2.1Zm82.14-12.632-1.479.495.4,1.194,1.252-.138Zm2.477,62.764.06-1.559-1.62-.062v1.621Zm0,.314v1.56h1.56v-1.56Zm-91.346,0h-1.559v1.56H131.3Zm0-.288h1.56v-1.56H131.3Zm-22.02-16.581a23.864,23.864,0,0,1-1.716-8.919h-3.12a26.994,26.994,0,0,0,1.941,10.081ZM107.56,182.5a23.94,23.94,0,0,1,23.94-23.94v-3.12a27.06,27.06,0,0,0-27.06,27.06Zm23.94-23.94a24.009,24.009,0,0,1,6.127.79l.8-3.016a27.124,27.124,0,0,0-6.923-.894Zm8.084-.776q-.024-.639-.024-1.284h-3.12q0,.7.027,1.4Zm-.024-1.284c0-20.277,17.975-36.94,40.44-36.94v-3.12c-23.927,0-43.56,17.811-43.56,40.06ZM180,119.56c18.295,0,33.652,11.078,38.686,26.145l2.959-.989C216.152,128.275,199.526,116.44,180,116.44Zm40.337,27.2a33.27,33.27,0,0,1,3.663-.2v-3.12a36.545,36.545,0,0,0-4.006.22Zm3.663-.2c17.433,0,31.44,13.472,31.44,29.94h3.12c0-18.326-15.542-33.06-34.56-33.06Zm31.44,29.94c0,16.468-14.007,29.94-31.44,29.94v3.12c19.018,0,34.56-14.734,34.56-33.06ZM224,206.44q-.652,0-1.3-.025l-.12,3.117q.705.027,1.418.028Zm-2.918,1.534v.314h3.12v-.314Zm1.56-1.245H131.3v3.119h91.346Zm-89.786,1.559V208h-3.119v.288Zm-1.56-1.848H98v3.12h33.3Zm-33.3,0A6.44,6.44,0,0,1,91.56,200H88.44A9.56,9.56,0,0,0,98,209.56ZM91.56,200A6.44,6.44,0,0,1,98,193.56v-3.12A9.56,9.56,0,0,0,88.44,200ZM98,193.56h9.828v-3.12H98Z" transform="translate(-71 -116.44)"/><circle class="c" cx="2.5" cy="2.5" r="2.5" transform="translate(89 46.56)"/><circle class="c" cx="2.5" cy="2.5" r="2.5" transform="translate(121 46.56)"/><rect class="c" width="17" height="4" rx="2" transform="translate(100 66.56)"/><path class="d" d="M175.615,232.819l.44-1.815H164.062l3.889-23.253h13.209v6.644H192l-.047.1c-.63,1.4-1.531,3.407-2.617,5.807-2.171,4.8-5.077,11.178-8.019,17.5S175.4,250.4,173.09,254.981c-1.157,2.292-2.137,4.139-2.859,5.357q-.278.468-.492.791c.081-.826.238-1.923.458-3.236.486-2.9,1.248-6.654,2.053-10.384s1.645-7.395,2.286-10.138c.32-1.372.59-2.511.78-3.305.095-.4.17-.711.221-.922l.059-.242.015-.061,0-.015v0l-.522-.57Zm-6.387,28.967c-.013.007-.01,0,0,0Zm.453.5c0,.013,0,.02,0,.022A.14.14,0,0,1,169.682,262.29Z" transform="translate(-71 -116.44)"/><rect class="b" width="14" height="3" rx="1.5" transform="translate(20 71.56) rotate(-90)"/><rect class="b" width="13" height="3" rx="1.5" transform="translate(13 83.56) rotate(180)"/><rect class="b" width="12.462" height="3.18" rx="1.59" transform="translate(14.393 77.137) rotate(-135)"/><path class="e" d="M168.342,209.848h12.23v5.258H190.8l-19.832,42.486,6.267-27.51H164.807Z" transform="translate(-71 -116.44)"/></svg>