<svg width="66" height="66" viewBox="0 0 66 66" fill="none" xmlns="http://www.w3.org/2000/svg">
<rect x="5" y="5" width="56" height="56" rx="28" fill="#D0DCFC"/>
<path d="M44.6666 31.9262V32.9995C44.6652 35.5153 43.8505 37.9633 42.3441 39.9783C40.8378 41.9933 38.7204 43.4674 36.3078 44.1807C33.8953 44.8941 31.3167 44.8084 28.9568 43.9365C26.5969 43.0647 24.582 41.4533 23.2127 39.3428C21.8434 37.2322 21.193 34.7356 21.3585 32.2252C21.5241 29.7148 22.4967 27.3252 24.1312 25.4128C25.7658 23.5003 27.9748 22.1675 30.4288 21.613C32.8828 21.0586 35.4502 21.3122 37.7483 22.3362M44.6666 23.6662L32.9999 35.3445L29.4999 31.8445" stroke="#1652F0" stroke-width="2.33333" stroke-linecap="round" stroke-linejoin="round"/>
<rect x="5" y="5" width="56" height="56" rx="28" stroke="#E8EEFD" stroke-width="10"/>
</svg>
