<svg width="108" height="108" viewBox="0 0 108 108" fill="none" xmlns="http://www.w3.org/2000/svg">
<rect width="108" height="108" fill="#E5E5E5"/>
<g clip-path="url(#clip0_1_2)">
<rect width="1440" height="8797" transform="translate(-384 -4487)" fill="white"/>
<g style="mix-blend-mode:darken">
<path d="M11.5287 26.3937C11.6763 26.0773 11.817 25.7538 11.9717 25.4374C12.5436 24.2301 13.5048 23.2501 14.7008 22.655C15.8968 22.0598 17.2582 21.884 18.5661 22.1558C19.8741 22.4277 21.0527 23.1313 21.9125 24.1537C22.7724 25.1761 23.2636 26.4579 23.3071 27.7931C23.3564 29.4245 23.3071 31.0629 23.3071 32.5959C24.4363 32.41 25.5807 32.3322 26.7246 32.3638C28.1543 32.5436 29.4675 33.244 30.4133 34.3311C31.359 35.4182 31.8708 36.8158 31.8509 38.2566C31.8509 41.1748 31.8509 44.0931 31.8509 47.0113V47.9958C32.9751 47.8072 34.1148 47.7271 35.2544 47.7567C36.7018 47.9411 38.029 48.6573 38.9777 49.7659C39.9265 50.8745 40.4291 52.2964 40.3877 53.7549C40.3877 58.8812 40.3877 64.0075 40.3877 69.1338C40.3721 69.4812 40.4312 69.8279 40.561 70.1506C40.6908 70.4733 40.8883 70.7644 41.1401 71.0043C43.4044 73.374 45.5983 75.8141 47.8696 78.1698C48.8011 79.1028 49.5313 80.217 50.0151 81.4434C50.4989 82.6698 50.726 83.9825 50.6824 85.3002C50.6262 91.8891 50.6824 98.471 50.6824 105.06C50.6824 107.008 50.1761 107.5 48.2001 107.5H29.0733C27.2731 107.5 26.7458 106.959 26.7458 105.13C26.7458 103.021 26.7106 100.911 26.7458 98.8015C26.7745 97.9825 26.6282 97.1668 26.3166 96.4089C26.0049 95.651 25.5351 94.9683 24.9385 94.4065C20.7194 90.2436 16.5401 86.0619 12.4006 81.8615C11.9482 81.4133 11.5601 80.9045 11.2474 80.3497C8.03614 74.4944 4.84129 68.6322 1.66286 62.7628C1.31885 62.1121 1.13334 61.3893 1.12141 60.6533C1.08625 51.575 1.3183 42.4828 1.02296 33.4186C0.804966 27.5399 6.23361 23.5177 11.5287 26.3937ZM30.557 79.4566C30.2758 79.1191 30.0437 78.866 29.8539 78.5917C23.933 71.0629 18.0261 63.527 12.1334 55.9841C11.6898 55.3688 11.4445 54.6328 11.4302 53.8745C11.381 46.8426 11.4302 39.7755 11.374 32.7225C11.3656 31.9133 11.1579 31.1187 10.7692 30.4089C10.401 29.7888 9.83314 29.312 9.15868 29.0566C8.48423 28.8011 7.74304 28.782 7.05636 29.0026C6.31189 29.2066 5.65936 29.6586 5.2067 30.2839C4.75405 30.9092 4.52839 31.6702 4.56705 32.4412C4.56705 41.6999 4.56705 50.9586 4.56705 60.2173C4.58114 60.7113 4.71636 61.1942 4.96084 61.6237C7.98457 67.2211 11.0317 72.8091 14.1023 78.3878C14.3766 78.8838 14.7199 79.3384 15.122 79.7379C19.2145 83.8493 23.3165 87.9536 27.4278 92.0508C28.3347 92.9115 29.0497 93.9539 29.5259 95.11C30.0021 96.266 30.2289 97.5096 30.1914 98.7593C30.1914 100.25 30.1914 101.748 30.1914 103.246C30.2018 103.505 30.2277 103.763 30.2687 104.019H47.286V102.81C47.286 96.9732 47.2508 91.1296 47.286 85.2931C47.3151 84.4059 47.1623 83.522 46.837 82.6961C46.5117 81.8701 46.0208 81.1194 45.3944 80.4903C40.6971 75.5188 36.049 70.505 31.3868 65.5053C29.2772 63.241 27.1677 60.9697 25.0581 58.7195C24.0525 57.6577 22.625 57.6717 21.9359 58.7195C21.3944 59.5352 21.5421 62.5027 22.168 63.2973C25.5808 67.6336 28.9889 71.9747 32.3924 76.3204C32.6666 76.665 32.9338 77.0236 33.2222 77.4174L30.557 79.4566ZM18.209 58.2765C18.6872 57.5381 19.1583 56.8701 19.5591 56.1669C19.7526 55.847 19.866 55.4852 19.8896 55.1121C19.8896 46.1769 19.8896 37.2393 19.8896 28.2994C19.8896 26.6047 18.863 25.4866 17.3792 25.4374C15.8955 25.3882 14.7774 26.5766 14.7704 28.3134C14.7704 36.6111 14.7704 44.9064 14.7704 53.1994C14.7427 53.5117 14.8088 53.825 14.9602 54.0995C16.0361 55.527 17.1472 56.9123 18.209 58.2765ZM28.4545 57.06V52.2993C28.4545 47.6723 28.4545 43.0524 28.4545 38.4254C28.4753 38.0787 28.4254 37.7314 28.3077 37.4047C28.1901 37.0779 28.0072 36.7785 27.7701 36.5247C27.5331 36.2709 27.2469 36.068 26.9289 35.9283C26.611 35.7887 26.2679 35.7151 25.9206 35.7123C25.5733 35.7094 25.2291 35.7772 24.9089 35.9116C24.5887 36.0461 24.2991 36.2442 24.0579 36.4941C23.8167 36.7439 23.6289 37.0403 23.5059 37.365C23.3828 37.6898 23.3272 38.0362 23.3423 38.3831C23.3423 38.4535 23.3423 38.5238 23.3423 38.5941C23.3423 43.6477 23.3423 48.699 23.3423 53.7479C23.3552 53.9952 23.3811 54.2417 23.4196 54.4863C25.5433 54.4581 26.9848 55.6114 28.4545 57.06ZM36.9983 66.5108C36.9983 62.0667 36.9983 57.946 36.9983 53.8534C37.0244 53.5013 36.9776 53.1476 36.8608 52.8144C36.744 52.4813 36.5597 52.1758 36.3195 51.917C36.0793 51.6583 35.7882 51.452 35.4646 51.3108C35.141 51.1697 34.7917 51.0969 34.4387 51.0969C34.0856 51.0969 33.7364 51.1697 33.4127 51.3108C33.0891 51.452 32.7981 51.6583 32.5578 51.917C32.3176 52.1758 32.1333 52.4813 32.0165 52.8144C31.8997 53.1476 31.8529 53.5013 31.8791 53.8534C31.8791 56.0192 31.8791 58.1921 31.8791 60.3579C31.8549 60.6677 31.934 60.9768 32.1041 61.2369C33.6511 62.9457 35.2614 64.6122 36.9983 66.5108Z" fill="#00308F" stroke="#00308F" stroke-miterlimit="10"/>
<path d="M76.3138 48.1011C76.3138 45.2884 76.3138 42.4756 76.3138 39.6628C76.2831 38.8814 76.3089 38.0988 76.3911 37.3212C76.5188 36.4739 76.828 35.6642 77.2976 34.9474C77.7673 34.2307 78.3861 33.6239 79.112 33.1685C79.8378 32.7131 80.6535 32.4199 81.5031 32.3089C82.3528 32.1979 83.2163 32.2717 84.0348 32.5254L84.8646 32.7715C84.8646 31.2808 84.8646 29.8744 84.8646 28.461C84.8646 25.1067 86.6859 22.744 89.7307 22.1322C92.5435 21.5415 95.1804 23.0675 96.4813 26.0842C96.5454 26.2043 96.6182 26.3194 96.6993 26.4287C98.1971 25.5402 99.9739 25.2466 101.678 25.606C103.176 25.9121 104.525 26.7186 105.504 27.893C106.483 29.0674 107.033 30.5398 107.064 32.0683C107.107 41.7513 107.064 51.4343 107.064 61.1243C107.034 61.6528 106.877 62.1664 106.607 62.622C103.373 68.5898 100.119 74.5529 96.847 80.5113C96.5659 81.0044 96.218 81.4564 95.8133 81.8544C91.6715 86.0173 87.5297 90.1872 83.3457 94.3149C82.7056 94.9069 82.2022 95.6313 81.8707 96.4377C81.5391 97.2441 81.3874 98.1131 81.426 98.9842C81.4893 101.094 81.426 103.26 81.426 105.39C81.426 106.867 80.8142 107.5 79.3586 107.5H59.5989C58.1222 107.5 57.4893 106.895 57.4893 105.439C57.4893 98.4591 57.4893 91.4787 57.4893 84.4984C57.4841 82.3347 58.3214 80.254 59.8239 78.697C62.2429 76.0882 64.69 73.5004 67.0808 70.8635C67.4614 70.4264 67.6843 69.8742 67.7137 69.2954C67.7559 64.373 67.7137 59.4014 67.7137 54.451C67.7137 49.5005 71.1101 46.7932 75.9481 48.1222C76.0704 48.1258 76.1927 48.1187 76.3138 48.1011ZM78.0225 104.026C78.0225 102.275 78.0647 100.637 78.0225 99.0052C77.9651 97.6681 78.1996 96.3344 78.7097 95.097C79.2197 93.8596 79.993 92.7481 80.9759 91.8397C85.0404 87.8456 89.0486 83.8022 93.0638 79.7588C93.4891 79.3433 93.8536 78.8698 94.1467 78.3525C97.1986 72.8066 100.229 67.2491 103.239 61.6798C103.494 61.1827 103.636 60.6351 103.654 60.0765C103.696 57.6505 103.654 55.2315 103.654 52.8125C103.654 46.0853 103.654 39.3558 103.654 32.6239C103.714 31.8908 103.543 31.1572 103.165 30.5265C102.786 29.8958 102.22 29.3996 101.544 29.1079C101.013 28.8954 100.437 28.8196 99.8692 28.8875C99.3011 28.9554 98.7592 29.1648 98.2932 29.4965C97.8271 29.8283 97.4517 30.2716 97.2015 30.7861C96.9513 31.3005 96.8342 31.8696 96.861 32.441C96.861 39.5644 96.861 46.6877 96.8188 53.811C96.8053 54.6108 96.5449 55.3869 96.0735 56.0331C90.1948 63.5948 84.288 71.1307 78.353 78.6408C78.1421 78.908 77.903 79.1541 77.6498 79.4565L75.0339 77.3469C78.4515 72.9941 81.7072 68.6625 85.181 64.5207C85.7444 63.8499 86.1607 63.0682 86.403 62.2264C86.6453 61.3845 86.7081 60.5012 86.5874 59.6335C86.5746 59.3023 86.4719 58.9808 86.2905 58.7035C86.109 58.4261 85.8556 58.2033 85.5573 58.0588C85.259 57.9144 84.9271 57.8537 84.597 57.8834C84.2669 57.913 83.951 58.0318 83.6832 58.2271C83.404 58.45 83.1473 58.6996 82.9167 58.9725C76.1614 66.2107 69.4037 73.4442 62.6437 80.673C62.0842 81.2444 61.6447 81.9221 61.3513 82.666C61.0578 83.41 60.9162 84.2052 60.9349 85.0047C60.9349 90.9888 60.9349 96.959 60.9349 102.95C60.9349 103.295 60.9349 103.653 60.9841 104.012L78.0225 104.026ZM89.9768 58.2552C91.0245 56.9262 92.0864 55.6042 93.1271 54.24C93.3123 53.9458 93.4053 53.603 93.3943 53.2555C93.3943 44.8875 93.3943 36.5219 93.3943 28.1586C93.4125 27.8116 93.3599 27.4646 93.2397 27.1387C93.1194 26.8127 92.9341 26.5146 92.6949 26.2626C92.4558 26.0106 92.1678 25.8099 91.8486 25.6727C91.5294 25.5356 91.1856 25.4649 90.8382 25.4649C90.4908 25.4649 90.147 25.5356 89.8278 25.6727C89.5086 25.8099 89.2206 26.0106 88.9814 26.2626C88.7423 26.5146 88.557 26.8127 88.4368 27.1387C88.3165 27.4646 88.2639 27.8116 88.2821 28.1586C88.2821 37.1735 88.2821 46.1838 88.2821 55.1893C88.296 55.5305 88.3977 55.8623 88.5774 56.1527C89.0064 56.8348 89.4775 57.4958 89.9768 58.2552ZM84.8505 54.4931C84.8505 48.9309 84.8505 43.4882 84.8505 38.0525C84.8225 37.4803 84.597 36.9356 84.2123 36.5112C83.8276 36.0868 83.3076 35.8089 82.741 35.7249C81.1306 35.4577 79.7946 36.7094 79.7946 38.5377C79.7946 44.5148 79.7946 50.4943 79.7946 56.4762C79.7946 56.673 79.7946 56.8699 79.8438 57.3481C81.1728 55.6464 82.6284 54.4439 84.8505 54.4931ZM71.1945 66.2787C71.3308 66.2273 71.4587 66.1563 71.5743 66.0677C73.058 64.4926 74.5487 62.9104 76.0044 61.3071C76.1949 61.0616 76.2987 60.7599 76.2997 60.4492C76.2997 58.1779 76.3419 55.8995 76.2997 53.6282C76.2712 52.9748 75.993 52.3571 75.5224 51.9029C75.0518 51.4486 74.4247 51.1923 73.7707 51.1869C73.1166 51.1815 72.4854 51.4273 72.0073 51.8738C71.5293 52.3202 71.2408 52.9331 71.2015 53.586C71.1664 57.7982 71.1945 61.9962 71.1945 66.2787Z" fill="#00308F" stroke="#00308F" stroke-miterlimit="10"/>
<path d="M54.1002 6.12017C55.9074 4.38292 58.0652 3.05224 60.4289 2.21744C70.6604 -1.12976 81.1661 7.7375 79.6261 18.3909C79.1622 22.0605 77.3923 25.4405 74.6404 27.9121C68.2883 33.6783 61.9408 39.4515 55.598 45.2317C54.501 46.2232 53.7767 46.2373 52.7079 45.2739C46.2807 39.4304 39.8254 33.615 33.4404 27.7293C30.8119 25.356 29.1018 22.1339 28.6095 18.6269C28.1171 15.1199 28.8738 11.5515 30.7472 8.54617C31.853 6.74231 33.3349 5.1981 35.0916 4.01881C36.8484 2.83952 38.8387 2.05289 40.9271 1.71251C43.0154 1.37213 45.1525 1.48602 47.1928 2.04642C49.2331 2.60683 51.1286 3.60056 52.7501 4.95988C53.1509 5.31148 53.5798 5.68419 54.1002 6.12017ZM54.1002 41.9478C60.4289 36.1816 66.7576 30.5842 72.8684 24.7899C75.0182 22.6815 76.2641 19.8198 76.3428 16.8097C76.4216 13.7995 75.327 10.8766 73.2903 8.65868C69.1134 4.0809 62.4541 3.67305 57.5247 7.69531C56.8637 8.23677 56.2168 8.79933 55.5628 9.34782C54.3815 10.3393 53.7767 10.3323 52.5672 9.34782C51.7515 8.64463 50.9569 7.94143 50.106 7.30153C48.7926 6.24999 47.2509 5.52095 45.6047 5.17291C43.9585 4.82488 42.2537 4.86752 40.627 5.29742C38.5986 5.73916 36.7375 6.74847 35.2609 8.20766C33.7843 9.66686 32.7529 11.5158 32.2871 13.5388C31.6814 15.5885 31.6746 17.7687 32.2677 19.8221C32.8608 21.8755 34.029 23.7164 35.6343 25.1275C38.6581 27.9965 41.7873 30.753 44.8673 33.5658L54.1002 41.9478Z" fill="#1752F0" stroke="#1752F0" stroke-width="2" stroke-miterlimit="10"/>
</g>
</g>
<defs>
<clipPath id="clip0_1_2">
<rect width="1440" height="8797" fill="white" transform="translate(-384 -4487)"/>
</clipPath>
</defs>
</svg>
