<svg width="41" height="40" viewBox="0 0 41 40" fill="none" xmlns="http://www.w3.org/2000/svg">
<path d="M40.2341 14.36C40.1084 13.9898 39.877 13.6645 39.5685 13.4243C39.26 13.184 38.8879 13.0394 38.4981 13.0082L27.0961 12.1023L22.162 1.18178C22.0049 0.83005 21.7493 0.531308 21.4261 0.321608C21.1029 0.111908 20.7259 0.00021173 20.3407 3.00717e-07C19.9554 -0.000211129 19.5783 0.111071 19.2549 0.320416C18.9314 0.529762 18.6755 0.828223 18.518 1.17978L13.584 12.1023L2.18191 13.0082C1.79882 13.0386 1.43258 13.1786 1.12701 13.4116C0.821443 13.6446 0.589484 13.9607 0.458883 14.3221C0.328283 14.6835 0.304572 15.0748 0.390586 15.4493C0.476601 15.8238 0.6687 16.1656 0.9439 16.4338L9.36995 24.6467L6.38993 37.549C6.29945 37.9395 6.32845 38.3482 6.47317 38.7221C6.6179 39.096 6.87166 39.4177 7.20154 39.6456C7.53142 39.8734 7.92218 39.9969 8.32311 39.9999C8.72404 40.003 9.11664 39.8855 9.44995 39.6627L20.34 32.4036L31.2301 39.6627C31.5708 39.8888 31.9725 40.0053 32.3813 39.9963C32.7902 39.9873 33.1865 39.8534 33.5169 39.6125C33.8473 39.3717 34.096 39.0354 34.2296 38.649C34.3632 38.2625 34.3752 37.8444 34.2641 37.451L30.6061 24.6527L39.6781 16.4897C40.2721 15.9538 40.4901 15.1179 40.2341 14.36Z" fill="#0066FF"/>
</svg>
