<svg width="20" height="21" viewBox="0 0 20 21" fill="none" xmlns="http://www.w3.org/2000/svg">
<path d="M15.5003 21.0001C14.4183 21.0126 13.3927 20.5182 12.7286 19.6638C12.0645 18.8095 11.8383 17.6936 12.1173 16.6481L5.85734 13.0701C4.77562 14.0611 3.19002 14.2709 1.88782 13.5952C0.585628 12.9195 -0.15579 11.5023 0.0317029 10.0473C0.219196 8.59226 1.29566 7.40932 2.72661 7.08583C4.15756 6.76234 5.63819 7.3672 6.43334 8.60008L12.1163 5.35108C12.0428 5.07327 12.0038 4.78744 12.0003 4.50008C11.986 2.8268 13.1481 1.37322 14.7835 1.0189C16.4189 0.664584 18.0785 1.50683 18.758 3.036C19.4375 4.56517 18.9503 6.36131 17.5913 7.33759C16.2323 8.31387 14.3746 8.20217 13.1423 7.07008L6.99134 10.5851C6.98524 10.8444 6.949 11.1021 6.88334 11.3531L13.1423 14.9301C14.2946 13.8726 16.0091 13.7094 17.3402 14.5304C18.6713 15.3514 19.295 16.9568 18.8672 18.4611C18.4394 19.9654 17.0643 21.0024 15.5003 21.0001ZM15.5003 16.0001C14.6719 16.0001 14.0003 16.6717 14.0003 17.5001C14.0003 18.3285 14.6719 19.0001 15.5003 19.0001C16.3288 19.0001 17.0003 18.3285 17.0003 17.5001C17.0003 16.6717 16.3288 16.0001 15.5003 16.0001ZM3.50034 9.00008C2.67191 9.00008 2.00034 9.67165 2.00034 10.5001C2.00034 11.3285 2.67191 12.0001 3.50034 12.0001C4.32876 12.0001 5.00034 11.3285 5.00034 10.5001C5.00034 9.67165 4.32876 9.00008 3.50034 9.00008ZM15.5003 3.00008C14.6719 3.00008 14.0003 3.67165 14.0003 4.50008C14.0003 5.32851 14.6719 6.00008 15.5003 6.00008C16.3288 6.00008 17.0003 5.32851 17.0003 4.50008C17.0003 3.67165 16.3288 3.00008 15.5003 3.00008Z" fill="#5B647A"/>
</svg>
