<svg width="1183" height="125" viewBox="0 0 1183 125" fill="none" xmlns="http://www.w3.org/2000/svg">
<path d="M1.2998 110.729C1.53068 110.312 1.88139 109.973 2.30667 109.757C2.73194 109.541 3.21223 109.457 3.68553 109.517C8.105 109.556 12.5245 109.517 16.9504 109.517H18.1889V108.122C18.1889 76.7816 18.1889 45.4434 18.1889 14.1074C18.1889 13.0188 18.3584 12.0932 19.3362 11.5H64.313C65.3169 11.9758 65.5581 12.8037 65.5581 13.8531C65.532 26.1598 65.532 38.4709 65.5581 50.7863V52.09H88.3007C90.4974 52.09 90.9081 52.5006 90.9081 54.6648V109.55H100.347C100.642 109.53 100.938 109.53 101.233 109.55C101.647 109.582 102.035 109.768 102.318 110.072C102.602 110.376 102.761 110.775 102.765 111.19C102.77 111.606 102.618 112.008 102.34 112.317C102.063 112.626 101.679 112.82 101.266 112.861C100.936 112.884 100.605 112.884 100.275 112.861C68.1176 112.861 35.9711 112.861 3.83546 112.861C2.75992 112.861 1.87994 112.672 1.33891 111.662L1.2998 110.729ZM62.0968 14.9091H21.6372V109.426H26.6563V108.291C26.6563 103.729 26.6563 99.1136 26.6563 94.5247C26.6563 91.5001 28.5727 89.4469 31.5386 89.2448C32.5229 89.1731 33.4941 89.1992 34.5045 89.2057C38.1417 89.2057 40.1494 91.2264 40.1559 94.8441C40.1559 99.3635 40.1559 103.885 40.1559 108.409V109.426H43.5259V108.122C43.5259 90.2703 43.5259 72.4121 43.5259 54.5474C43.5259 52.5919 44.0213 52.0639 45.9638 52.0639H62.0772L62.0968 14.9091ZM46.9807 109.426H87.3946V55.4926H46.9807V109.426ZM36.7598 109.426C36.7598 104.283 36.7598 99.2114 36.7598 94.1401C36.7671 93.9387 36.7328 93.7379 36.6591 93.5504C36.5853 93.3628 36.4737 93.1924 36.3312 93.0499C36.1887 92.9074 36.0183 92.7958 35.8308 92.722C35.6432 92.6483 35.4425 92.614 35.241 92.6213C34.3219 92.5626 33.3963 92.5822 32.4707 92.5822C30.5804 92.5822 30.0524 93.1037 30.0459 94.9744C30.0459 99.4591 30.0459 103.942 30.0459 108.422C30.0459 108.741 30.0459 109.074 30.085 109.426H36.7598Z" fill="#00308F"/>
<path d="M50.3179 48.6819C48.7665 48.6819 47.2216 48.6819 45.6703 48.6819C44.1189 48.6819 43.5583 48.0301 43.5518 46.5634C43.5257 43.4694 43.5257 40.371 43.5518 37.2682C43.5518 35.782 44.2036 35.1693 45.6703 35.1562C48.7665 35.1562 51.8627 35.1562 54.9655 35.1562C56.4582 35.1562 57.0709 35.8081 57.084 37.2682C57.084 40.3666 57.084 43.465 57.084 46.5634C57.084 48.0757 56.4321 48.6754 54.8677 48.6884C53.3033 48.7015 51.8367 48.6819 50.3179 48.6819ZM53.6488 45.2532V38.6045H47V45.2532H53.6488Z" fill="#00308F"/>
<path d="M40.1623 41.9025C40.1623 43.4864 40.1623 45.0704 40.1623 46.6478C40.1623 48.0232 39.5496 48.662 38.2068 48.6751C35.0388 48.7011 31.8731 48.7011 28.7095 48.6751C27.308 48.6751 26.7018 48.0232 26.6953 46.5631C26.6953 43.4604 26.6953 40.3619 26.6953 37.2679C26.6953 35.7752 27.295 35.1625 28.8008 35.1494C31.897 35.1494 34.9997 35.1494 38.096 35.1494C39.6148 35.1494 40.1819 35.7491 40.1949 37.2548C40.2079 38.7606 40.1623 40.3315 40.1623 41.9025ZM30.0914 38.5911V45.2268H36.6945V38.5911H30.0914Z" fill="#00308F"/>
<path d="M50.2657 31.7522C48.6883 31.7522 47.1043 31.7522 45.5203 31.7522C44.2166 31.7522 43.5648 31.1003 43.5648 29.7967C43.5344 26.5983 43.5344 23.4 43.5648 20.2016C43.5648 18.8523 44.2558 18.2461 45.6311 18.2461C48.7687 18.2461 51.8996 18.2461 55.0241 18.2461C56.4386 18.2461 57.0839 18.8979 57.0905 20.3124C57.1252 23.4412 57.1252 26.5722 57.0905 29.7054C57.0905 31.146 56.4712 31.7326 55.0241 31.7522C53.4336 31.7717 51.8497 31.7522 50.2657 31.7522ZM47.0065 21.6552V28.3235H53.6357V21.6552H47.0065Z" fill="#00308F"/>
<path d="M33.3962 52.0645C35.0128 52.0645 36.6554 52.0645 38.2394 52.0645C39.5431 52.0645 40.1428 52.7163 40.1493 53.9418C40.1754 57.1705 40.1754 60.3993 40.1493 63.6281C40.1493 64.9317 39.4974 65.5445 38.1938 65.551C35.0324 65.551 31.8644 65.551 28.703 65.551C27.3211 65.551 26.6823 64.8992 26.6758 63.5955C26.6758 60.4319 26.6758 57.2683 26.6758 54.1047C26.6758 52.7228 27.3276 52.1036 28.6704 52.0905C30.2348 52.0644 31.7927 52.0645 33.3962 52.0645ZM30.137 55.4866V62.1093H36.7532V55.4866H30.137Z" fill="#00308F"/>
<path d="M26.6562 75.6612C26.6562 74.1098 26.6562 72.5585 26.6562 71.0136C26.6562 69.5991 27.3081 68.9538 28.7225 68.9473C31.8514 68.9473 34.9824 68.9473 38.1155 68.9473C39.5365 68.9473 40.1493 69.5991 40.1558 71.0136C40.1558 74.1511 40.1558 77.2821 40.1558 80.4066C40.1558 81.8602 39.5691 82.4468 38.109 82.4534C34.9802 82.4534 31.8492 82.4534 28.716 82.4534C27.2364 82.4534 26.6627 81.8015 26.6562 80.3088C26.6497 78.8161 26.6562 77.2061 26.6562 75.6612ZM36.7271 72.402H30.1044V79.0442H36.7271V72.402Z" fill="#00308F"/>
<path d="M40.1615 25.0262C40.1615 26.6102 40.1615 28.1942 40.1615 29.7716C40.1615 31.1209 39.5748 31.7271 38.2451 31.7271C35.012 31.7532 31.781 31.7532 28.5522 31.7271C27.2877 31.7271 26.6749 31.0753 26.6684 29.8173C26.6684 26.5841 26.6684 23.3532 26.6684 20.1244C26.6396 19.8743 26.6666 19.6208 26.7476 19.3824C26.8286 19.1439 26.9615 18.9264 27.1367 18.7456C27.312 18.5647 27.5251 18.4251 27.7609 18.3366C27.9967 18.2481 28.2492 18.2131 28.5001 18.2341C31.7897 18.1993 35.0858 18.1993 38.3885 18.2341C38.6307 18.2164 38.8738 18.2522 39.1006 18.3389C39.3274 18.4257 39.5323 18.5612 39.7009 18.736C39.8695 18.9108 39.9975 19.1205 40.076 19.3503C40.1545 19.5801 40.1814 19.8244 40.155 20.0658C40.1876 21.7084 40.155 23.3249 40.155 25.0067L40.1615 25.0262ZM36.7393 21.6953H30.0841V28.305H36.7393V21.6953Z" fill="#00308F"/>
<path d="M75.6746 75.7001C77.1934 75.7001 78.7057 75.7001 80.2375 75.7001C81.7693 75.7001 82.4342 76.3128 82.4472 77.8316C82.4733 80.93 82.4733 84.0284 82.4472 87.1268C82.4472 88.613 81.7954 89.2192 80.3287 89.2322C77.226 89.2322 74.1254 89.2322 71.027 89.2322C69.5408 89.2322 68.9281 88.5804 68.915 87.1138C68.915 84.0197 68.915 80.9213 68.915 77.8185C68.915 76.3519 69.5669 75.7261 71.04 75.7001C72.5132 75.674 74.1232 75.7001 75.6746 75.7001ZM72.285 79.1353C72.285 81.2537 72.285 83.2875 72.285 85.3212C72.3229 85.4423 72.3915 85.5515 72.484 85.6383C72.5765 85.725 72.6898 85.7865 72.813 85.8166C74.8402 85.8557 76.874 85.8166 78.9664 85.8166V79.1353H72.285Z" fill="#1752F0"/>
<path d="M65.5119 82.4404C65.5119 84.0243 65.5119 85.6083 65.5119 87.1857C65.5119 88.5872 64.9253 89.213 63.5564 89.226C60.3928 89.2608 57.2292 89.2608 54.0656 89.226C52.6316 89.226 52.0319 88.5742 52.0254 87.1532C52.0254 84.0156 52.0254 80.8825 52.0254 77.7536C52.0254 76.3913 52.6772 75.7199 53.9809 75.7069C57.1814 75.7069 60.382 75.6743 63.576 75.7069C64.8796 75.7069 65.4859 76.3587 65.4989 77.6624C65.5315 79.2789 65.5119 80.8629 65.5119 82.4404ZM55.4345 85.7778H62.0572V79.1681H55.4345V85.7778Z" fill="#1752F0"/>
<path d="M75.7783 92.6286C77.3231 92.6286 78.8745 92.6286 80.4259 92.6286C81.8013 92.6286 82.4205 93.2413 82.4336 94.6297C82.4596 97.7977 82.4596 100.963 82.4336 104.127C82.4336 105.496 81.7817 106.128 80.4063 106.135C77.2428 106.135 74.0792 106.135 70.9156 106.135C69.5663 106.135 68.9144 105.483 68.9014 104.107C68.8753 100.944 68.8753 97.7803 68.9014 94.6167C68.9014 93.2413 69.5532 92.6612 70.9221 92.6612C72.5452 92.609 74.1617 92.6286 75.7783 92.6286ZM72.3301 102.732H78.9853V96.0768H72.3301V102.732Z" fill="#1752F0"/>
<path d="M75.6609 58.8173C77.2123 58.8173 78.7572 58.8173 80.3085 58.8173C81.7621 58.8173 82.414 59.404 82.4335 60.8185C82.4661 63.9799 82.4335 67.1413 82.4335 70.3092C82.4335 71.7368 81.7817 72.3039 80.3216 72.3104C77.2275 72.3104 74.1313 72.3104 71.0329 72.3104C69.5271 72.3104 68.9144 71.7237 68.9014 70.2245C68.9014 67.1304 68.9014 64.032 68.9014 60.9293C68.9014 59.43 69.5532 58.8304 71.0133 58.8173C72.4734 58.8043 74.1096 58.8173 75.6609 58.8173ZM78.9918 68.9013V62.246H72.3496V68.9013H78.9918Z" fill="#1752F0"/>
<path d="M65.5126 65.5564C65.5126 67.1339 65.5126 68.7178 65.5126 70.3018C65.5126 71.6967 64.9064 72.3029 63.557 72.3095C60.3891 72.3095 57.2234 72.3095 54.0598 72.3095C52.6388 72.3095 52.0456 71.6576 52.0391 70.2301C52.0391 67.136 52.0391 64.0376 52.0391 60.9349C52.0391 59.4357 52.6453 58.8229 54.1315 58.8164C57.2299 58.8164 60.3283 58.8164 63.4267 58.8164C64.9324 58.8164 65.5256 59.4031 65.5386 60.9088C65.5517 62.4146 65.5126 64.005 65.5126 65.5564ZM62.0774 68.8938V62.2516H55.4547V68.8938H62.0774Z" fill="#1752F0"/>
<path d="M65.5123 99.381C65.5123 100.965 65.5123 102.549 65.5123 104.126C65.5123 105.502 64.8604 106.134 63.5046 106.141C60.341 106.141 57.1774 106.141 54.0138 106.141C52.658 106.141 52.0192 105.489 52.0127 104.113C52.0127 100.95 52.0127 97.7861 52.0127 94.6225C52.0127 93.3189 52.6189 92.667 53.9291 92.667C57.1535 92.6409 60.3845 92.6409 63.6219 92.667C64.9256 92.667 65.4862 93.3189 65.5058 94.5704C65.5318 96.1544 65.5123 97.7644 65.5123 99.381ZM55.4674 96.0501V102.712H62.064V96.0501H55.4674Z" fill="#1752F0"/>
<path d="M88.9262 112.359C88.3275 112.359 87.7531 112.122 87.3291 111.699C86.9051 111.277 86.6661 110.703 86.6643 110.104V56.347H47.554V110.078C47.554 110.678 47.3157 111.253 46.8915 111.677C46.4674 112.102 45.892 112.34 45.2922 112.34C44.6923 112.34 44.1169 112.102 43.6928 111.677C43.2686 111.253 43.0303 110.678 43.0303 110.078V54.0851C43.0303 53.4852 43.2686 52.9099 43.6928 52.4857C44.1169 52.0616 44.6923 51.8232 45.2922 51.8232H88.9653C89.5652 51.8232 90.1405 52.0616 90.5647 52.4857C90.9889 52.9099 91.2272 53.4852 91.2272 54.0851V110.078C91.2308 110.38 91.1735 110.68 91.0589 110.96C90.9443 111.24 90.7746 111.493 90.56 111.706C90.3453 111.919 90.0901 112.086 89.8094 112.199C89.5288 112.311 89.2284 112.366 88.9262 112.359Z" fill="#1752F0"/>
<path d="M101.344 113.5H2.65546C2.05038 113.5 1.47009 113.26 1.04224 112.832C0.614386 112.404 0.374023 111.824 0.374023 111.219C0.374023 110.614 0.614386 110.034 1.04224 109.606C1.47009 109.178 2.05038 108.938 2.65546 108.938H101.344C101.949 108.938 102.529 109.178 102.957 109.606C103.385 110.034 103.625 110.614 103.625 111.219C103.625 111.824 103.385 112.404 102.957 112.832C102.529 113.26 101.949 113.5 101.344 113.5Z" fill="#00308F"/>
<path d="M281.529 34.3937C281.676 34.0773 281.817 33.7538 281.972 33.4374C282.544 32.2301 283.505 31.2501 284.701 30.655C285.897 30.0598 287.258 29.884 288.566 30.1558C289.874 30.4277 291.053 31.1313 291.913 32.1537C292.772 33.1761 293.264 34.4579 293.307 35.7931C293.356 37.4245 293.307 39.0629 293.307 40.5959C294.436 40.41 295.581 40.3322 296.725 40.3638C298.154 40.5436 299.468 41.244 300.413 42.3311C301.359 43.4182 301.871 44.8158 301.851 46.2566C301.851 49.1748 301.851 52.0931 301.851 55.0113V55.9958C302.975 55.8072 304.115 55.7271 305.254 55.7567C306.702 55.9411 308.029 56.6573 308.978 57.7659C309.926 58.8745 310.429 60.2964 310.388 61.7549C310.388 66.8812 310.388 72.0075 310.388 77.1338C310.372 77.4812 310.431 77.8279 310.561 78.1506C310.691 78.4733 310.888 78.7644 311.14 79.0043C313.404 81.374 315.598 83.8141 317.87 86.1698C318.801 87.1028 319.531 88.217 320.015 89.4434C320.499 90.6698 320.726 91.9825 320.682 93.3002C320.626 99.8891 320.682 106.471 320.682 113.06C320.682 115.008 320.176 115.5 318.2 115.5H299.073C297.273 115.5 296.746 114.959 296.746 113.13C296.746 111.021 296.711 108.911 296.746 106.801C296.775 105.982 296.628 105.167 296.317 104.409C296.005 103.651 295.535 102.968 294.939 102.407C290.719 98.2436 286.54 94.0619 282.401 89.8615C281.948 89.4133 281.56 88.9045 281.247 88.3497C278.036 82.4944 274.841 76.6322 271.663 70.7628C271.319 70.1121 271.133 69.3893 271.121 68.6533C271.086 59.575 271.318 50.4828 271.023 41.4186C270.805 35.5399 276.234 31.5177 281.529 34.3937ZM300.557 87.4566C300.276 87.1191 300.044 86.866 299.854 86.5917C293.933 79.0629 288.026 71.527 282.133 63.9841C281.69 63.3688 281.444 62.6328 281.43 61.8745C281.381 54.8426 281.43 47.7755 281.374 40.7225C281.366 39.9133 281.158 39.1187 280.769 38.4089C280.401 37.7888 279.833 37.312 279.159 37.0566C278.484 36.8011 277.743 36.782 277.056 37.0026C276.312 37.2066 275.659 37.6586 275.207 38.2839C274.754 38.9092 274.528 39.6702 274.567 40.4412C274.567 49.6999 274.567 58.9586 274.567 68.2173C274.581 68.7113 274.716 69.1942 274.961 69.6237C277.985 75.2211 281.032 80.8091 284.102 86.3878C284.377 86.8838 284.72 87.3384 285.122 87.7379C289.215 91.8493 293.316 95.9536 297.428 100.051C298.335 100.912 299.05 101.954 299.526 103.11C300.002 104.266 300.229 105.51 300.191 106.759C300.191 108.25 300.191 109.748 300.191 111.246C300.202 111.505 300.228 111.763 300.269 112.019H317.286V110.81C317.286 104.973 317.251 99.1296 317.286 93.2931C317.315 92.4059 317.162 91.522 316.837 90.6961C316.512 89.8701 316.021 89.1194 315.394 88.4903C310.697 83.5188 306.049 78.505 301.387 73.5053C299.277 71.241 297.168 68.9697 295.058 66.7195C294.053 65.6577 292.625 65.6717 291.936 66.7195C291.394 67.5352 291.542 70.5027 292.168 71.2973C295.581 75.6336 298.989 79.9747 302.392 84.3204C302.667 84.665 302.934 85.0236 303.222 85.4174L300.557 87.4566ZM288.209 66.2765C288.687 65.5381 289.158 64.8701 289.559 64.1669C289.753 63.847 289.866 63.4852 289.89 63.1121C289.89 54.1769 289.89 45.2393 289.89 36.2994C289.89 34.6047 288.863 33.4866 287.379 33.4374C285.895 33.3882 284.777 34.5766 284.77 36.3134C284.77 44.6111 284.77 52.9064 284.77 61.1994C284.743 61.5117 284.809 61.825 284.96 62.0995C286.036 63.527 287.147 64.9123 288.209 66.2765ZM298.455 65.06V60.2993C298.455 55.6723 298.455 51.0524 298.455 46.4254C298.475 46.0787 298.425 45.7314 298.308 45.4047C298.19 45.0779 298.007 44.7785 297.77 44.5247C297.533 44.2709 297.247 44.068 296.929 43.9283C296.611 43.7887 296.268 43.7151 295.921 43.7123C295.573 43.7094 295.229 43.7772 294.909 43.9116C294.589 44.0461 294.299 44.2442 294.058 44.4941C293.817 44.7439 293.629 45.0403 293.506 45.365C293.383 45.6898 293.327 46.0362 293.342 46.3831C293.342 46.4535 293.342 46.5238 293.342 46.5941C293.342 51.6477 293.342 56.699 293.342 61.7479C293.355 61.9952 293.381 62.2417 293.42 62.4863C295.543 62.4581 296.985 63.6114 298.455 65.06ZM306.998 74.5108C306.998 70.0667 306.998 65.946 306.998 61.8534C307.024 61.5013 306.978 61.1476 306.861 60.8144C306.744 60.4813 306.56 60.1758 306.319 59.917C306.079 59.6583 305.788 59.452 305.465 59.3108C305.141 59.1697 304.792 59.0969 304.439 59.0969C304.086 59.0969 303.736 59.1697 303.413 59.3108C303.089 59.452 302.798 59.6583 302.558 59.917C302.318 60.1758 302.133 60.4813 302.017 60.8144C301.9 61.1476 301.853 61.5013 301.879 61.8534C301.879 64.0192 301.879 66.1921 301.879 68.3579C301.855 68.6677 301.934 68.9768 302.104 69.2369C303.651 70.9457 305.261 72.6122 306.998 74.5108Z" fill="#00308F" stroke="#00308F" stroke-miterlimit="10"/>
<path d="M346.314 56.1011C346.314 53.2884 346.314 50.4756 346.314 47.6628C346.283 46.8814 346.309 46.0988 346.391 45.3212C346.519 44.4739 346.828 43.6642 347.298 42.9474C347.767 42.2307 348.386 41.6239 349.112 41.1685C349.838 40.7131 350.653 40.4199 351.503 40.3089C352.353 40.1979 353.216 40.2717 354.035 40.5254L354.865 40.7715C354.865 39.2808 354.865 37.8744 354.865 36.461C354.865 33.1067 356.686 30.744 359.731 30.1322C362.543 29.5415 365.18 31.0675 366.481 34.0842C366.545 34.2043 366.618 34.3194 366.699 34.4287C368.197 33.5402 369.974 33.2466 371.678 33.606C373.176 33.9121 374.525 34.7186 375.504 35.893C376.483 37.0674 377.033 38.5398 377.064 40.0683C377.107 49.7513 377.064 59.4343 377.064 69.1243C377.034 69.6528 376.877 70.1664 376.607 70.622C373.373 76.5898 370.119 82.5529 366.847 88.5113C366.566 89.0044 366.218 89.4564 365.813 89.8544C361.671 94.0173 357.53 98.1872 353.346 102.315C352.706 102.907 352.202 103.631 351.871 104.438C351.539 105.244 351.387 106.113 351.426 106.984C351.489 109.094 351.426 111.26 351.426 113.39C351.426 114.867 350.814 115.5 349.359 115.5H329.599C328.122 115.5 327.489 114.895 327.489 113.439C327.489 106.459 327.489 99.4787 327.489 92.4984C327.484 90.3347 328.321 88.254 329.824 86.697C332.243 84.0882 334.69 81.5004 337.081 78.8635C337.461 78.4264 337.684 77.8742 337.714 77.2954C337.756 72.373 337.714 67.4014 337.714 62.451C337.714 57.5005 341.11 54.7932 345.948 56.1222C346.07 56.1258 346.193 56.1187 346.314 56.1011ZM348.023 112.026C348.023 110.275 348.065 108.637 348.023 107.005C347.965 105.668 348.2 104.334 348.71 103.097C349.22 101.86 349.993 100.748 350.976 99.8397C355.04 95.8456 359.049 91.8022 363.064 87.7588C363.489 87.3433 363.854 86.8698 364.147 86.3525C367.199 80.8066 370.229 75.2491 373.239 69.6798C373.494 69.1827 373.636 68.6351 373.654 68.0765C373.696 65.6505 373.654 63.2315 373.654 60.8125C373.654 54.0853 373.654 47.3558 373.654 40.6239C373.714 39.8908 373.543 39.1572 373.165 38.5265C372.786 37.8958 372.22 37.3996 371.544 37.1079C371.013 36.8954 370.437 36.8196 369.869 36.8875C369.301 36.9554 368.759 37.1648 368.293 37.4965C367.827 37.8283 367.452 38.2716 367.202 38.7861C366.951 39.3005 366.834 39.8696 366.861 40.441C366.861 47.5644 366.861 54.6877 366.819 61.811C366.805 62.6108 366.545 63.3869 366.073 64.0331C360.195 71.5948 354.288 79.1307 348.353 86.6408C348.142 86.908 347.903 87.1541 347.65 87.4565L345.034 85.3469C348.451 80.9941 351.707 76.6625 355.181 72.5207C355.744 71.8499 356.161 71.0682 356.403 70.2264C356.645 69.3845 356.708 68.5012 356.587 67.6335C356.575 67.3023 356.472 66.9808 356.29 66.7035C356.109 66.4261 355.856 66.2033 355.557 66.0588C355.259 65.9144 354.927 65.8537 354.597 65.8834C354.267 65.913 353.951 66.0318 353.683 66.2271C353.404 66.45 353.147 66.6996 352.917 66.9725C346.161 74.2107 339.404 81.4442 332.644 88.673C332.084 89.2444 331.645 89.9221 331.351 90.666C331.058 91.41 330.916 92.2052 330.935 93.0047C330.935 98.9888 330.935 104.959 330.935 110.95C330.935 111.295 330.935 111.653 330.984 112.012L348.023 112.026ZM359.977 66.2552C361.025 64.9262 362.086 63.6042 363.127 62.24C363.312 61.9458 363.405 61.603 363.394 61.2555C363.394 52.8875 363.394 44.5219 363.394 36.1586C363.412 35.8116 363.36 35.4646 363.24 35.1387C363.119 34.8127 362.934 34.5146 362.695 34.2626C362.456 34.0106 362.168 33.8099 361.849 33.6727C361.529 33.5356 361.186 33.4649 360.838 33.4649C360.491 33.4649 360.147 33.5356 359.828 33.6727C359.509 33.8099 359.221 34.0106 358.981 34.2626C358.742 34.5146 358.557 34.8127 358.437 35.1387C358.317 35.4646 358.264 35.8116 358.282 36.1586C358.282 45.1735 358.282 54.1838 358.282 63.1893C358.296 63.5305 358.398 63.8623 358.577 64.1527C359.006 64.8348 359.478 65.4958 359.977 66.2552ZM354.851 62.4931C354.851 56.9309 354.851 51.4882 354.851 46.0525C354.823 45.4803 354.597 44.9356 354.212 44.5112C353.828 44.0868 353.308 43.8089 352.741 43.7249C351.131 43.4577 349.795 44.7094 349.795 46.5377C349.795 52.5148 349.795 58.4943 349.795 64.4762C349.795 64.673 349.795 64.8699 349.844 65.3481C351.173 63.6464 352.628 62.4439 354.851 62.4931ZM341.195 74.2787C341.331 74.2273 341.459 74.1563 341.574 74.0677C343.058 72.4926 344.549 70.9104 346.004 69.3071C346.195 69.0616 346.299 68.7599 346.3 68.4492C346.3 66.1779 346.342 63.8995 346.3 61.6282C346.271 60.9748 345.993 60.3571 345.522 59.9029C345.052 59.4486 344.425 59.1923 343.771 59.1869C343.117 59.1815 342.485 59.4273 342.007 59.8738C341.529 60.3202 341.241 60.9331 341.202 61.586C341.166 65.7982 341.195 69.9962 341.195 74.2787Z" fill="#00308F" stroke="#00308F" stroke-miterlimit="10"/>
<path d="M324.1 14.1202C325.907 12.3829 328.065 11.0522 330.429 10.2174C340.66 6.87024 351.166 15.7375 349.626 26.3909C349.162 30.0605 347.392 33.4405 344.64 35.9121C338.288 41.6783 331.941 47.4515 325.598 53.2317C324.501 54.2232 323.777 54.2373 322.708 53.2739C316.281 47.4304 309.825 41.615 303.44 35.7293C300.812 33.356 299.102 30.1339 298.609 26.6269C298.117 23.1199 298.874 19.5515 300.747 16.5462C301.853 14.7423 303.335 13.1981 305.092 12.0188C306.848 10.8395 308.839 10.0529 310.927 9.71251C313.015 9.37213 315.153 9.48602 317.193 10.0464C319.233 10.6068 321.129 11.6006 322.75 12.9599C323.151 13.3115 323.58 13.6842 324.1 14.1202ZM324.1 49.9478C330.429 44.1816 336.758 38.5842 342.868 32.7899C345.018 30.6815 346.264 27.8198 346.343 24.8097C346.422 21.7995 345.327 18.8766 343.29 16.6587C339.113 12.0809 332.454 11.6731 327.525 15.6953C326.864 16.2368 326.217 16.7993 325.563 17.3478C324.381 18.3393 323.777 18.3323 322.567 17.3478C321.752 16.6446 320.957 15.9414 320.106 15.3015C318.793 14.25 317.251 13.521 315.605 13.1729C313.959 12.8249 312.254 12.8675 310.627 13.2974C308.599 13.7392 306.738 14.7485 305.261 16.2077C303.784 17.6669 302.753 19.5158 302.287 21.5388C301.681 23.5885 301.675 25.7687 302.268 27.8221C302.861 29.8755 304.029 31.7164 305.634 33.1275C308.658 35.9965 311.787 38.753 314.867 41.5658L324.1 49.9478Z" fill="#1752F0" stroke="#1752F0" stroke-width="2" stroke-miterlimit="10"/>
<path d="M603.42 124.048C602.441 123.864 601.462 123.698 600.494 123.485C592.406 121.704 586.952 116.595 582.952 109.645C579.51 103.711 577.694 97.1414 576.222 90.477C575.091 85.4211 572.521 80.8004 568.822 77.1719C568.597 77.6407 568.407 78.0087 568.229 78.3588C562.951 90.2278 557.679 102.113 552.413 114.013C551.428 116.233 549.945 117.74 547.369 117.811C544.022 117.906 541.328 114.737 542.301 111.533C543.725 106.868 545.411 102.287 547.013 97.6755C550.099 88.7975 553.199 79.9235 556.312 71.0535C556.651 70.104 556.473 69.6945 555.624 69.1782C549.862 65.6709 546.443 60.68 546.33 53.7486C546.253 49.1434 548.111 45.2682 551.298 42.028C553.922 39.3825 556.922 37.137 560.199 35.3636C561.92 34.4319 562.941 34.4615 563.558 35.5238C564.175 36.5861 563.618 37.4288 562.015 38.491C559.38 40.2714 556.674 42.0161 554.3 44.1644C548.075 49.8793 548.449 59.0006 555.048 64.3119C556.672 65.6107 558.47 66.6754 560.389 67.475C568.698 70.8992 574.81 76.5073 578.151 84.8749C579.338 87.8421 579.931 91.0883 580.786 94.2098C582.43 100.358 584.548 106.286 588.465 111.42C592.898 117.218 598.678 120.446 606.079 120.321C611.42 120.244 616.108 118.238 620.161 114.903C628.885 107.723 634.333 98.536 635.965 87.3258C637.116 79.202 635.76 70.9202 632.078 63.5879C625.016 49.0069 613.265 40.034 597.907 35.506C597.486 35.3814 597.052 35.2864 596.643 35.1262C596.19 34.9783 595.815 34.6566 595.6 34.232C595.385 33.8074 595.347 33.3147 595.495 32.8622C595.643 32.4097 595.964 32.0345 596.389 31.8191C596.813 31.6038 597.306 31.5659 597.759 31.7139C599.539 32.2302 601.379 32.7406 603.141 33.3874C610.88 36.0947 617.948 40.4293 623.87 46.099C632.208 54.1996 637.876 63.8312 639.425 75.4628C641.798 93.0466 635.175 107.123 621.728 118.191C617.977 121.252 613.424 123.17 608.613 123.716C608.385 123.767 608.163 123.839 607.948 123.93L603.42 124.048ZM560.098 71.2671C559.891 71.825 559.748 72.1929 559.618 72.5608C555.456 84.4891 551.302 96.4194 547.155 108.352C546.722 109.598 546.277 110.838 545.868 112.09C545.784 112.276 545.74 112.476 545.737 112.68C545.734 112.883 545.773 113.084 545.852 113.272C545.93 113.46 546.046 113.629 546.193 113.77C546.34 113.91 546.514 114.02 546.704 114.09C546.895 114.185 547.104 114.238 547.317 114.248C547.53 114.257 547.742 114.222 547.941 114.145C548.139 114.068 548.32 113.951 548.471 113.8C548.622 113.65 548.74 113.47 548.817 113.271C548.948 113.028 549.043 112.761 549.155 112.506C554.611 100.241 560.063 87.9608 565.511 75.6646C565.653 75.3441 565.772 75.0177 565.95 74.5607L560.098 71.2671Z" fill="#00308F"/>
<path d="M590.086 29.8618C591.273 32.9596 590.086 37.0307 587.451 38.0514C585.961 38.6448 585.386 39.5943 584.881 40.8584C584.533 41.7921 584.137 42.7072 583.694 43.6001C582.511 45.696 582.113 48.1451 582.573 50.5078C583.647 56.4423 579.166 62.1809 573.238 63.1126C570.612 63.5434 567.919 63.0399 565.627 61.6897C563.334 60.3396 561.588 58.2282 560.691 55.7232C559.795 53.2182 559.805 50.4782 560.721 47.9801C561.636 45.4819 563.398 43.3839 565.701 42.0512C566.254 41.7019 566.682 41.1868 566.924 40.5795C567.855 38.1167 568.704 35.6182 569.541 33.1139C569.685 32.6839 569.67 32.2164 569.499 31.7964C567.98 28.9597 569.268 24.7522 572.152 23.3161L572.567 23.1202C572.392 21.2344 572.319 19.3406 572.348 17.4469C572.591 13.7497 574.454 10.7706 577.095 8.27221C580.759 4.83027 585.228 2.36148 590.092 1.09147C590.504 0.920636 590.964 0.905292 591.386 1.0483C591.809 1.19131 592.165 1.48292 592.388 1.86889C595.486 6.9666 597.361 12.4144 597.035 18.4854C596.774 23.1736 594.596 26.7937 590.768 29.4108C590.519 29.5295 590.365 29.6778 590.086 29.8618ZM589.949 4.90143C585.795 6.24262 582.122 8.20691 579.125 11.2928C575.843 14.6695 575.042 18.6041 576.615 23.0194C576.751 23.4169 577.033 23.7479 577.404 23.9451C580.294 25.132 583.196 26.2655 586.11 27.3871C586.394 27.4969 586.709 27.4969 586.994 27.3871C590.685 25.4822 593.077 22.6692 593.368 18.337C593.682 13.5183 592.222 9.18612 589.949 4.90143ZM573.048 34.1109C572.876 34.5738 572.733 34.9417 572.603 35.2978L565.962 54.2881C565.066 56.8518 565.268 57.5283 567.743 58.7033C568.89 59.1438 570.085 59.4485 571.303 59.6113C572.193 59.7953 572.71 59.4155 573.084 58.5134C575.695 52.5018 578.371 46.5199 581.03 40.526C581.427 39.624 581.825 38.7457 582.264 37.7368L573.048 34.1109ZM572.182 29.3633C572.529 29.7427 572.928 30.0704 573.368 30.3366C577.107 31.8617 580.864 33.3038 584.608 34.829C585.54 35.2088 586.145 35.0426 586.46 34.0456C586.584 33.6662 586.729 33.2938 586.893 32.9299C586.983 32.796 587.039 32.6425 587.056 32.4824C587.074 32.3223 587.053 32.1603 586.994 32.0101C586.936 31.8599 586.843 31.7259 586.722 31.6195C586.601 31.5131 586.456 31.4374 586.3 31.3988C582.365 29.8381 578.431 28.2654 574.478 26.7521C574.263 26.6935 574.038 26.6883 573.82 26.7369C573.603 26.7855 573.401 26.8865 573.232 27.0311C572.807 27.7725 572.455 28.5536 572.182 29.3633Z" fill="#00308F"/>
<path d="M608.862 114.043C606.567 114.037 604.324 113.351 602.419 112.07C600.513 110.79 599.03 108.974 598.157 106.851C597.284 104.728 597.059 102.394 597.513 100.143C597.966 97.8931 599.076 95.8276 600.703 94.2081C602.33 92.5887 604.4 91.488 606.653 91.0452C608.905 90.6024 611.239 90.8373 613.357 91.7204C615.476 92.6035 617.286 94.095 618.557 96.0063C619.828 97.9177 620.505 100.163 620.5 102.459C620.46 105.528 619.219 108.459 617.044 110.624C614.868 112.789 611.931 114.017 608.862 114.043ZM608.928 110.423C610.505 110.408 612.042 109.926 613.345 109.038C614.649 108.151 615.661 106.897 616.253 105.436C616.846 103.974 616.992 102.37 616.674 100.825C616.356 99.2808 615.589 97.8648 614.467 96.7558C613.346 95.6469 611.921 94.8947 610.373 94.594C608.825 94.2934 607.223 94.4577 605.768 95.0663C604.313 95.6749 603.071 96.7005 602.198 98.0139C601.325 99.3274 600.86 100.87 600.863 102.447C600.866 103.501 601.077 104.544 601.485 105.516C601.892 106.488 602.488 107.37 603.237 108.111C603.987 108.852 604.875 109.438 605.852 109.835C606.828 110.232 607.874 110.431 608.928 110.423Z" fill="#1752F0"/>
<path d="M631.134 80.3411C631.081 81.6244 630.772 82.8842 630.227 84.0471C629.682 85.21 628.91 86.2529 627.958 87.115C627.006 87.9771 625.892 88.6412 624.681 89.0686C623.47 89.4961 622.186 89.6784 620.903 89.6048C615.289 89.2369 611.183 84.5546 611.628 79.2136C612.073 73.8725 616.731 69.7184 621.77 70.0389C623.062 70.0982 624.329 70.412 625.5 70.9623C626.671 71.5127 627.721 72.2886 628.591 73.2457C629.461 74.2028 630.133 75.3223 630.57 76.5399C631.006 77.7575 631.198 79.0493 631.134 80.3411ZM615.206 79.8485C615.206 81.0727 615.569 82.2695 616.249 83.2873C616.929 84.3052 617.896 85.0986 619.027 85.567C620.158 86.0355 621.403 86.1581 622.603 85.9192C623.804 85.6804 624.907 85.0909 625.773 84.2253C626.638 83.3597 627.228 82.2568 627.467 81.0561C627.705 79.8554 627.583 78.6109 627.114 77.4799C626.646 76.3489 625.853 75.3822 624.835 74.702C623.817 74.0219 622.62 73.6589 621.396 73.6589C619.76 73.6774 618.196 74.3355 617.04 75.4923C615.883 76.6491 615.225 78.2127 615.206 79.8485Z" fill="#1752F0"/>
<path d="M621.77 58.8581C621.771 60.5177 621.28 62.1404 620.359 63.521C619.438 64.9016 618.128 65.9781 616.595 66.6143C615.062 67.2505 613.375 67.4179 611.747 67.0953C610.119 66.7726 608.624 65.9745 607.449 64.8018C606.275 63.6291 605.475 62.1344 605.15 60.5069C604.825 58.8794 604.99 57.192 605.624 55.6583C606.258 54.1245 607.332 52.8132 608.712 51.8901C610.091 50.9671 611.713 50.4738 613.373 50.4727C615.595 50.482 617.724 51.3681 619.296 52.9383C620.868 54.5085 621.757 56.6359 621.77 58.8581ZM618.162 58.8581C618.156 58.2299 618.027 57.609 617.782 57.0308C617.536 56.4525 617.18 55.9283 616.732 55.488C616.284 55.0477 615.753 54.7 615.171 54.4646C614.588 54.2293 613.965 54.111 613.337 54.1164C612.709 54.1219 612.088 54.251 611.51 54.4964C610.932 54.7418 610.407 55.0987 609.967 55.5468C609.527 55.9948 609.179 56.5251 608.944 57.1075C608.708 57.6899 608.59 58.313 608.595 58.9412C608.606 60.2097 609.121 61.422 610.026 62.3112C610.931 63.2004 612.152 63.6938 613.42 63.6828C614.689 63.6718 615.901 63.1573 616.79 62.2525C617.679 61.3476 618.173 60.1266 618.162 58.8581Z" fill="#1752F0"/>
<path d="M597.278 39.8555C598.757 39.859 600.202 40.3006 601.431 41.1247C602.66 41.9487 603.617 43.1182 604.182 44.4856C604.747 45.853 604.894 47.3571 604.605 48.808C604.316 50.259 603.603 51.5919 602.558 52.6384C601.512 53.685 600.18 54.3984 598.729 54.6886C597.278 54.9788 595.774 54.8328 594.406 54.2691C593.038 53.7053 591.868 52.7491 591.043 51.521C590.218 50.2929 589.775 48.848 589.771 47.3685C589.781 45.3803 590.576 43.4766 591.981 42.0701C593.386 40.6637 595.289 39.8679 597.278 39.8555ZM597.307 43.4636C596.541 43.4683 595.793 43.6998 595.158 44.1288C594.523 44.5578 594.029 45.1653 593.739 45.8745C593.449 46.5838 593.375 47.3631 593.527 48.1142C593.679 48.8654 594.05 49.5547 594.593 50.0954C595.136 50.636 595.827 51.0038 596.579 51.1523C597.331 51.3008 598.11 51.2234 598.818 50.9299C599.526 50.6363 600.131 50.1398 600.557 49.5029C600.983 48.8659 601.211 48.1171 601.212 47.3507C601.213 46.8385 601.112 46.3313 600.916 45.8581C600.72 45.385 600.432 44.9554 600.069 44.5941C599.706 44.2327 599.275 43.9468 598.801 43.7528C598.327 43.5588 597.819 43.4605 597.307 43.4636Z" fill="#1752F0"/>
<path d="M873.243 7.77441C873.764 8.00676 874.199 8.39717 874.487 8.89042C874.774 9.38367 874.899 9.95479 874.844 10.523C874.812 14.2933 874.798 18.0702 874.844 21.8405C874.844 24.1343 872.979 24.7803 871.799 24.1936C871.386 23.9788 871.048 23.6442 870.828 23.2338C870.608 22.8234 870.517 22.3562 870.567 21.8932C870.567 20.0806 870.567 18.2614 870.567 16.4487V15.1304C870.105 15.5589 869.822 15.7896 869.565 16.0598L848.564 37.0469C846.89 38.7212 845.967 38.7146 844.273 37.0469L836.766 29.5393C836.55 29.9371 836.299 30.3144 836.014 30.6664C824.29 42.4036 812.56 54.1451 800.823 65.891C800.484 66.2532 800.113 66.5841 799.715 66.8797C799.319 67.1591 798.837 67.2908 798.353 67.252C797.87 67.2131 797.415 67.0062 797.068 66.6671C796.721 66.3281 796.504 65.8783 796.454 65.3957C796.404 64.9132 796.525 64.4285 796.795 64.0256C797.044 63.6617 797.331 63.3257 797.652 63.0238L834.874 25.7888C836.509 24.1541 837.445 24.1607 839.106 25.8217L846.251 32.9734L867.172 12.0522H860.35C858.728 12.0522 857.931 11.6238 857.575 10.5692C857.219 9.51454 857.575 8.73676 858.933 7.77441H873.243Z" fill="#00308F"/>
<path d="M785.182 112.888V111.622C785.182 105.855 785.28 100.087 785.182 94.3197C785.089 90.2857 788.009 87.6887 791.707 87.8535C794.726 87.9919 797.758 87.8535 800.783 87.8535C804.817 87.8535 807.138 90.1604 807.151 94.2142C807.151 99.9487 807.151 105.677 807.151 111.411V112.776H819.015V111.556C819.015 99.7708 819.015 87.9875 819.015 76.2064C819.015 72.9766 820.703 70.7092 823.563 70.0698C824.159 69.9597 824.764 69.9089 825.369 69.9182C828.428 69.9182 831.493 69.9182 834.551 69.9182C838.664 69.9182 840.991 72.2384 840.991 76.3251C840.991 88.0358 840.991 99.7488 840.991 111.464V112.782H852.908V111.464C852.908 89.4925 852.908 67.5211 852.908 45.5497C852.908 42.9131 853.759 40.8434 856.204 39.7031C857.152 39.31 858.17 39.1127 859.197 39.123C862.288 39.0571 865.393 39.123 868.484 39.123C872.597 39.123 874.864 41.4103 874.871 45.5563C874.871 51.0008 874.871 56.4475 874.871 61.8964V112.888C876.354 112.888 877.771 112.795 879.162 112.927C879.919 112.988 880.635 113.296 881.199 113.804C881.412 114.055 881.559 114.356 881.626 114.679C881.693 115.002 881.679 115.336 881.584 115.652C881.489 115.968 881.317 116.255 881.082 116.487C880.848 116.719 880.56 116.889 880.243 116.981C879.695 117.124 879.128 117.182 878.562 117.152C846.128 117.152 813.694 117.152 781.26 117.152C780.904 117.172 780.547 117.172 780.192 117.152C779.651 117.134 779.138 116.906 778.761 116.518C778.384 116.13 778.171 115.611 778.168 115.069C778.159 114.792 778.205 114.516 778.304 114.257C778.403 113.998 778.553 113.761 778.746 113.561C778.938 113.361 779.169 113.202 779.424 113.093C779.679 112.984 779.954 112.928 780.231 112.927C781.471 112.861 782.723 112.927 783.969 112.927L785.182 112.888ZM870.56 112.842V45.7013C870.56 43.7238 870.231 43.4009 868.26 43.4009H859.5C857.463 43.4009 857.173 43.6975 857.173 45.7672V112.842H870.56ZM836.674 112.842C836.674 112.591 836.713 112.387 836.713 112.182C836.713 100.155 836.713 88.1303 836.713 76.1075C836.713 74.7893 836.186 74.229 834.841 74.2224C831.783 74.2224 828.725 74.2224 825.666 74.2224C823.689 74.2224 823.287 74.6179 823.287 76.5821V112.835L836.674 112.842ZM789.459 112.809H802.833C802.833 106.389 802.833 100.054 802.833 93.7264C802.833 92.6059 802.24 92.1708 800.988 92.1642H791.575C789.868 92.1642 789.459 92.5795 789.459 94.3197C789.459 99.5137 789.459 104.708 789.459 109.902V112.809Z" fill="#1752F0"/>
<path d="M791.298 74.6769C791.022 74.6718 790.75 74.612 790.498 74.5009C790.245 74.3898 790.017 74.2296 789.827 74.0297C789.637 73.8298 789.489 73.5941 789.391 73.3364C789.292 73.0786 789.246 72.8039 789.255 72.5281C789.267 71.9722 789.498 71.4435 789.898 71.0571C790.298 70.6707 790.835 70.4579 791.391 70.465C791.947 70.4872 792.472 70.7242 792.857 71.1262C793.242 71.5283 793.456 72.0639 793.454 72.6204C793.436 73.1776 793.201 73.7056 792.797 74.0904C792.394 74.4752 791.856 74.6859 791.298 74.6769Z" fill="#00308F"/>
<path d="M879.847 117.225H780.053C779.441 117.225 778.854 116.982 778.422 116.55C777.989 116.117 777.746 115.53 777.746 114.918C777.746 114.306 777.989 113.72 778.422 113.287C778.854 112.854 779.441 112.611 780.053 112.611H879.847C880.459 112.611 881.046 112.854 881.479 113.287C881.911 113.72 882.154 114.306 882.154 114.918C882.154 115.53 881.911 116.117 881.479 116.55C881.046 116.982 880.459 117.225 879.847 117.225Z" fill="#00308F"/>
<path d="M1182.52 107.824C1181.03 109.777 1180.21 109.91 1177.97 108.807C1171.93 105.924 1165.53 103.869 1158.94 102.699C1145.66 100.216 1131.99 100.61 1118.87 103.854C1116.83 104.348 1114.98 103.809 1113.08 103.397C1097.45 99.8541 1081.17 100.429 1065.83 105.065C1062.38 106.19 1058.99 107.501 1055.68 108.99C1053.14 110.062 1051.44 109.067 1051.44 106.308C1051.44 79.7272 1051.44 53.1529 1051.44 26.5849C1051.44 24.2194 1052.33 23.3316 1054.68 23.3252H1062.56C1062.56 22.3866 1062.56 21.5495 1062.56 20.7187C1062.62 18.8732 1063.26 18.1503 1065.09 17.6937C1073.41 15.5483 1082.06 14.9698 1090.59 15.9877C1100.43 17.18 1109.35 20.5919 1116.52 27.7454C1116.66 27.88 1116.81 28.0069 1116.97 28.1259C1117.26 27.8849 1117.56 27.6567 1117.83 27.3967C1124.21 21.3085 1131.91 17.9473 1140.5 16.457C1150 14.8797 1159.72 15.3118 1169.04 17.7254C1170.68 18.1249 1171.31 18.905 1171.36 20.6109C1171.36 21.4607 1171.36 22.3042 1171.36 23.3379H1176.26C1177.2 23.3379 1178.17 23.4013 1179.08 23.3379C1179.78 23.2302 1180.49 23.3488 1181.12 23.6763C1181.74 24.0039 1182.25 24.5231 1182.56 25.158L1182.52 107.824ZM1114.42 96.3322C1114.42 93.3896 1114.42 90.6246 1114.42 87.8468C1114.42 70.0559 1114.42 52.2671 1114.42 34.4804C1114.44 34.0627 1114.37 33.6459 1114.22 33.2577C1114.06 32.8695 1113.83 32.5189 1113.52 32.2291C1110.82 29.4299 1107.67 27.1116 1104.19 25.3736C1097.32 21.949 1089.99 20.7251 1082.39 20.7441C1077.44 20.7552 1072.51 21.3125 1067.69 22.4056V89.1786C1083.85 87.5488 1099.69 87.7517 1114.42 96.3322ZM1166.25 89.223V22.4627C1166.05 22.3993 1165.9 22.3359 1165.74 22.2978C1157.57 20.5855 1149.36 20.1162 1141.11 21.6636C1133.12 23.154 1126.01 26.3693 1120.34 32.3623C1119.86 32.9157 1119.58 33.6195 1119.56 34.3536C1119.52 54.5713 1119.51 74.7869 1119.53 95.0004C1119.53 95.3999 1119.57 95.7995 1119.59 96.2688C1134.26 87.7897 1150.07 87.479 1166.25 89.223ZM1102.3 96.5161C1097.08 94.8023 1091.64 93.8039 1086.15 93.5481C1079.37 93.2608 1072.57 93.6196 1065.86 94.6199C1063.92 94.8989 1062.75 93.9223 1062.63 91.9754C1062.6 91.5124 1062.63 91.0431 1062.63 90.5738V28.5318H1056.65V102.782C1082.91 94.9306 1078.61 96.3639 1102.3 96.4844V96.5161ZM1131.85 96.18L1131.9 96.5922C1147.36 94.9149 1162.99 97.1095 1177.39 102.978V28.5382H1171.46V90.8021C1171.46 91.227 1171.46 91.6583 1171.46 92.0705C1171.46 92.4255 1171.39 92.7769 1171.24 93.102C1171.1 93.427 1170.89 93.7186 1170.63 93.9577C1170.37 94.1968 1170.06 94.3781 1169.72 94.49C1169.38 94.6019 1169.03 94.6418 1168.67 94.6072C1168.2 94.5988 1167.74 94.5586 1167.27 94.4867C1159.03 93.3388 1150.71 92.933 1142.42 94.0618C1138.85 94.5311 1135.37 95.438 1131.85 96.1483V96.18Z" fill="#00308F"/>
<path d="M1062.63 28.5328V90.5431C1062.63 91.0124 1062.63 91.4817 1062.63 91.9446C1062.75 93.8916 1063.89 94.8682 1065.85 94.5892C1072.57 93.589 1079.36 93.2301 1086.15 93.5174C1091.64 93.7733 1097.07 94.7716 1102.29 96.4854H1102.22C1105.08 96.9103 1107.39 99.1109 1109.73 100.646C1111.7 101.971 1113.8 103.084 1116 103.969C1116.73 104.067 1117.47 104.067 1118.2 103.969C1119.96 103.036 1120.74 102.066 1122.08 100.918C1123.6 99.65 1125.4 98.8572 1127.15 97.925C1128.66 97.1259 1127.85 97.5508 1131.86 96.1683C1135.38 95.458 1138.84 94.5512 1142.42 94.0692C1150.71 92.9403 1159 93.3462 1167.27 94.4941C1167.74 94.5659 1168.2 94.6062 1168.67 94.6146C1169.03 94.6492 1169.38 94.6092 1169.72 94.4974C1170.06 94.3855 1170.37 94.2041 1170.63 93.965C1170.89 93.7259 1171.1 93.4344 1171.24 93.1093C1171.39 92.7842 1171.46 92.4328 1171.46 92.0778C1171.5 91.6593 1171.46 91.228 1171.46 90.8095V28.5392L1171.36 24.6326L1171.32 23.3643C1171.32 22.3306 1171.32 21.4617 1171.32 20.6373C1171.27 18.9313 1170.64 18.1513 1169 17.7518C1159.68 15.3382 1149.96 14.9061 1140.47 16.4834C1131.87 17.9737 1124.17 21.3349 1117.79 27.423C1117.52 27.683 1117.22 27.9114 1116.93 28.1523C1116.77 28.0333 1116.62 27.9063 1116.48 27.7718C1109.31 20.6182 1100.4 17.2064 1090.56 16.0141C1082.02 14.9962 1073.38 15.5747 1065.05 17.72C1063.25 18.1767 1062.61 18.8996 1062.52 20.7451L1062.63 28.5328ZM1114.43 96.3332L1114.39 96.3586C1102.29 87.8479 1083.82 87.5751 1067.64 89.205V22.4067C1072.46 21.3103 1077.39 20.7531 1082.33 20.7451C1089.94 20.7451 1097.26 21.95 1104.13 25.3746C1107.61 27.1126 1110.77 29.431 1113.47 32.2301C1113.77 32.5199 1114.01 32.8705 1114.16 33.2587C1114.32 33.6469 1114.39 34.0638 1114.37 34.4815C1114.37 52.2724 1114.37 70.0612 1114.37 87.8479C1114.43 90.6192 1114.43 93.3906 1114.43 96.3332ZM1166.25 89.224C1150.04 87.5117 1134.26 87.8225 1119.59 96.3015C1119.59 95.8258 1119.53 95.4263 1119.53 95.0331C1119.53 74.8154 1119.54 54.5998 1119.56 34.3864C1119.58 33.6523 1119.86 32.9484 1120.34 32.395C1126.01 26.402 1133.12 23.1867 1141.11 21.6964C1149.36 20.1553 1157.6 20.6246 1165.74 22.3306C1165.9 22.3686 1166.05 22.432 1166.25 22.4955V89.224Z" fill="#1752F0"/>
</svg>
