<svg xmlns="http://www.w3.org/2000/svg" width="30" height="19.655" viewBox="0 0 30 19.655"><defs><style>.a{fill:#f5f5f5;}.b{fill:#ff4b55;}.c{fill:#41479b;}</style></defs><path class="a" d="M27.753,88.276H2.247A2.247,2.247,0,0,0,0,90.523v15.162a2.247,2.247,0,0,0,2.247,2.247H27.753A2.247,2.247,0,0,0,30,105.684V90.523A2.247,2.247,0,0,0,27.753,88.276Z" transform="translate(0 -88.276)"/><g transform="translate(0 0)"><path class="b" d="M2.109,89.682h29.77a2.242,2.242,0,0,0-2.124-1.406H4.233A2.243,2.243,0,0,0,2.109,89.682Z" transform="translate(-1.994 -88.276)"/><rect class="b" width="30" height="1.405" transform="translate(0 6.083)"/><rect class="b" width="30" height="1.405" transform="translate(0 3.041)"/><path class="b" d="M0,244.023a.5.5,0,0,0,.517.481H30V243.1H0Z" transform="translate(0 -233.973)"/><rect class="b" width="30" height="1.405" transform="translate(0 15.208)"/><path class="b" d="M31.879,397.92H2.109a2.243,2.243,0,0,0,2.124,1.405H29.755A2.243,2.243,0,0,0,31.879,397.92Z" transform="translate(-1.994 -379.67)"/><rect class="b" width="30" height="1.405" transform="translate(0 12.167)"/></g><path class="c" d="M.481,98.113H12.5a.481.481,0,0,0,.481-.481V88.756a.481.481,0,0,0-.481-.481H2.089A2.089,2.089,0,0,0,0,90.364v7.269A.481.481,0,0,0,.481,98.113Z" transform="translate(0 -88.275)"/><g transform="translate(0.776 1.073)"><path class="a" d="M14.827,108l.106.319.336,0a.045.045,0,0,1,.027.082l-.271.2.1.321a.045.045,0,0,1-.07.051l-.274-.2-.274.2a.045.045,0,0,1-.07-.051l.1-.321-.271-.2a.045.045,0,0,1,.027-.082l.336,0,.106-.319A.045.045,0,0,1,14.827,108Z" transform="translate(-14.253 -107.968)"/><path class="a" d="M14.827,138.654l.106.319.336,0a.045.045,0,0,1,.027.082l-.271.2.1.321a.045.045,0,0,1-.07.051l-.274-.2-.274.2a.045.045,0,0,1-.07-.051l.1-.321-.271-.2a.045.045,0,0,1,.027-.082l.336,0,.106-.319A.045.045,0,0,1,14.827,138.654Z" transform="translate(-14.253 -136.953)"/><path class="a" d="M14.827,169.308l.106.319.336,0a.045.045,0,0,1,.027.082l-.271.2.1.321a.045.045,0,0,1-.07.051l-.274-.2-.274.2a.045.045,0,0,1-.07-.051l.1-.321-.271-.2a.045.045,0,0,1,.027-.082l.336,0,.106-.319A.045.045,0,0,1,14.827,169.308Z" transform="translate(-14.253 -165.937)"/><path class="a" d="M14.827,199.962l.106.319.336,0a.045.045,0,0,1,.027.082l-.271.2.1.321a.045.045,0,0,1-.07.051l-.274-.2-.274.2a.045.045,0,0,1-.07-.051l.1-.321-.271-.2a.045.045,0,0,1,.027-.082l.336,0,.106-.319A.045.045,0,0,1,14.827,199.962Z" transform="translate(-14.253 -194.922)"/><path class="a" d="M14.827,230.617l.106.319.336,0a.045.045,0,0,1,.027.082l-.271.2.1.321a.045.045,0,0,1-.07.051l-.274-.2-.274.2a.045.045,0,0,1-.07-.051l.1-.321-.271-.2a.045.045,0,0,1,.027-.082l.336,0,.106-.319A.045.045,0,0,1,14.827,230.617Z" transform="translate(-14.253 -223.907)"/><path class="a" d="M38.62,123.028l.106.319.336,0a.045.045,0,0,1,.027.082l-.271.2.1.321a.045.045,0,0,1-.07.051l-.274-.2-.274.2a.045.045,0,0,1-.07-.051l.1-.321-.271-.2a.045.045,0,0,1,.027-.082l.336,0,.106-.319A.045.045,0,0,1,38.62,123.028Z" transform="translate(-36.75 -122.179)"/><path class="a" d="M38.62,153.683l.106.319.336,0a.045.045,0,0,1,.027.082l-.271.2.1.321a.045.045,0,0,1-.07.051l-.274-.2-.274.2a.045.045,0,0,1-.07-.051l.1-.321-.271-.2a.045.045,0,0,1,.027-.082l.336,0,.106-.319A.045.045,0,0,1,38.62,153.683Z" transform="translate(-36.75 -151.163)"/><path class="a" d="M38.62,184.337l.106.319.336,0a.045.045,0,0,1,.027.082l-.271.2.1.321a.045.045,0,0,1-.07.051l-.274-.2-.274.2a.045.045,0,0,1-.07-.051l.1-.321-.271-.2a.045.045,0,0,1,.027-.082l.336,0,.106-.319A.045.045,0,0,1,38.62,184.337Z" transform="translate(-36.75 -180.148)"/><path class="a" d="M38.62,214.991l.106.319.336,0a.045.045,0,0,1,.027.082l-.271.2.1.321a.045.045,0,0,1-.07.051l-.274-.2-.274.2a.045.045,0,0,1-.07-.051l.1-.321-.271-.2a.045.045,0,0,1,.027-.082l.336,0,.106-.319A.045.045,0,0,1,38.62,214.991Z" transform="translate(-36.75 -209.133)"/><path class="a" d="M62.413,108l.106.319.336,0a.045.045,0,0,1,.027.082l-.271.2.1.321a.045.045,0,0,1-.07.051l-.274-.2-.274.2a.045.045,0,0,1-.07-.051l.1-.321-.271-.2a.045.045,0,0,1,.027-.082l.336,0,.106-.319A.045.045,0,0,1,62.413,108Z" transform="translate(-59.247 -107.968)"/><path class="a" d="M62.413,138.653l.106.319.336,0a.045.045,0,0,1,.027.082l-.271.2.1.321a.045.045,0,0,1-.07.051l-.274-.2-.274.2a.045.045,0,0,1-.07-.051l.1-.321-.271-.2a.045.045,0,0,1,.027-.082l.336,0,.106-.319A.045.045,0,0,1,62.413,138.653Z" transform="translate(-59.247 -136.953)"/><path class="a" d="M62.413,169.308l.106.319.336,0a.045.045,0,0,1,.027.082l-.271.2.1.321a.045.045,0,0,1-.07.051l-.274-.2-.274.2a.045.045,0,0,1-.07-.051l.1-.321-.271-.2a.045.045,0,0,1,.027-.082l.336,0,.106-.319A.045.045,0,0,1,62.413,169.308Z" transform="translate(-59.247 -165.937)"/><path class="a" d="M62.413,199.962l.106.319.336,0a.045.045,0,0,1,.027.082l-.271.2.1.321a.045.045,0,0,1-.07.051l-.274-.2-.274.2a.045.045,0,0,1-.07-.051l.1-.321-.271-.2a.045.045,0,0,1,.027-.082l.336,0,.106-.319A.045.045,0,0,1,62.413,199.962Z" transform="translate(-59.247 -194.922)"/><path class="a" d="M62.413,230.616l.106.319.336,0a.045.045,0,0,1,.027.082l-.271.2.1.321a.045.045,0,0,1-.07.051l-.274-.2-.274.2a.045.045,0,0,1-.07-.051l.1-.321-.271-.2a.045.045,0,0,1,.027-.082l.336,0,.106-.319A.045.045,0,0,1,62.413,230.616Z" transform="translate(-59.247 -223.907)"/><path class="a" d="M86.207,123.028l.106.319.336,0a.045.045,0,0,1,.027.082l-.271.2.1.321a.045.045,0,0,1-.07.051l-.274-.2-.274.2a.045.045,0,0,1-.07-.051l.1-.321-.271-.2a.045.045,0,0,1,.027-.082l.336,0,.106-.319A.045.045,0,0,1,86.207,123.028Z" transform="translate(-81.745 -122.179)"/><path class="a" d="M86.207,153.683l.106.319.336,0a.045.045,0,0,1,.027.082l-.271.2.1.321a.045.045,0,0,1-.07.051l-.274-.2-.274.2a.045.045,0,0,1-.07-.051l.1-.321-.271-.2a.045.045,0,0,1,.027-.082l.336,0,.106-.319A.045.045,0,0,1,86.207,153.683Z" transform="translate(-81.745 -151.163)"/><path class="a" d="M86.207,184.337l.106.319.336,0a.045.045,0,0,1,.027.082l-.271.2.1.321a.045.045,0,0,1-.07.051l-.274-.2-.274.2a.045.045,0,0,1-.07-.051l.1-.321-.271-.2a.045.045,0,0,1,.027-.082l.336,0,.106-.319A.045.045,0,0,1,86.207,184.337Z" transform="translate(-81.745 -180.148)"/><path class="a" d="M86.207,214.991l.106.319.336,0a.045.045,0,0,1,.027.082l-.271.2.1.321a.045.045,0,0,1-.07.051l-.274-.2-.274.2a.045.045,0,0,1-.07-.051l.1-.321-.271-.2a.045.045,0,0,1,.027-.082l.336,0,.106-.319A.045.045,0,0,1,86.207,214.991Z" transform="translate(-81.745 -209.133)"/><path class="a" d="M110,108l.106.319.336,0a.045.045,0,0,1,.027.082l-.271.2.1.321a.045.045,0,0,1-.07.051l-.274-.2-.274.2a.045.045,0,0,1-.07-.051l.1-.321-.271-.2a.045.045,0,0,1,.027-.082l.336,0,.106-.319A.045.045,0,0,1,110,108Z" transform="translate(-104.241 -107.968)"/><path class="a" d="M110,138.653l.106.319.336,0a.045.045,0,0,1,.027.082l-.271.2.1.321a.045.045,0,0,1-.07.051l-.274-.2-.274.2a.045.045,0,0,1-.07-.051l.1-.321-.271-.2a.045.045,0,0,1,.027-.082l.336,0,.106-.319A.045.045,0,0,1,110,138.653Z" transform="translate(-104.241 -136.953)"/><path class="a" d="M110,169.308l.106.319.336,0a.045.045,0,0,1,.027.082l-.271.2.1.321a.045.045,0,0,1-.07.051l-.274-.2-.274.2a.045.045,0,0,1-.07-.051l.1-.321-.271-.2a.045.045,0,0,1,.027-.082l.336,0,.106-.319A.045.045,0,0,1,110,169.308Z" transform="translate(-104.241 -165.937)"/><path class="a" d="M110,199.962l.106.319.336,0a.045.045,0,0,1,.027.082l-.271.2.1.321a.045.045,0,0,1-.07.051l-.274-.2-.274.2a.045.045,0,0,1-.07-.051l.1-.321-.271-.2a.045.045,0,0,1,.027-.082l.336,0,.106-.319A.045.045,0,0,1,110,199.962Z" transform="translate(-104.241 -194.922)"/><path class="a" d="M110,230.616l.106.319.336,0a.045.045,0,0,1,.027.082l-.271.2.1.321a.045.045,0,0,1-.07.051l-.274-.2-.274.2a.045.045,0,0,1-.07-.051l.1-.321-.271-.2a.045.045,0,0,1,.027-.082l.336,0,.106-.319A.045.045,0,0,1,110,230.616Z" transform="translate(-104.241 -223.907)"/><path class="a" d="M133.793,123.028l.106.319.336,0a.045.045,0,0,1,.027.082l-.271.2.1.321a.045.045,0,0,1-.07.051l-.274-.2-.274.2a.045.045,0,0,1-.07-.051l.1-.321-.271-.2a.045.045,0,0,1,.027-.082l.336,0,.106-.319A.045.045,0,0,1,133.793,123.028Z" transform="translate(-126.739 -122.179)"/><path class="a" d="M133.793,153.683l.106.319.336,0a.045.045,0,0,1,.027.082l-.271.2.1.321a.045.045,0,0,1-.07.051l-.274-.2-.274.2a.045.045,0,0,1-.07-.051l.1-.321-.271-.2a.045.045,0,0,1,.027-.082l.336,0,.106-.319A.045.045,0,0,1,133.793,153.683Z" transform="translate(-126.739 -151.163)"/><path class="a" d="M133.793,184.337l.106.319.336,0a.045.045,0,0,1,.027.082l-.271.2.1.321a.045.045,0,0,1-.07.051l-.274-.2-.274.2a.045.045,0,0,1-.07-.051l.1-.321-.271-.2a.045.045,0,0,1,.027-.082l.336,0,.106-.319A.045.045,0,0,1,133.793,184.337Z" transform="translate(-126.739 -180.148)"/><path class="a" d="M133.793,214.991l.106.319.336,0a.045.045,0,0,1,.027.082l-.271.2.1.321a.045.045,0,0,1-.07.051l-.274-.2-.274.2a.045.045,0,0,1-.07-.051l.1-.321-.271-.2a.045.045,0,0,1,.027-.082l.336,0,.106-.319A.045.045,0,0,1,133.793,214.991Z" transform="translate(-126.739 -209.133)"/><path class="a" d="M157.587,108l.106.319.336,0a.045.045,0,0,1,.027.082l-.271.2.1.321a.045.045,0,0,1-.07.051l-.274-.2-.274.2a.045.045,0,0,1-.07-.051l.1-.321-.271-.2a.045.045,0,0,1,.027-.082l.336,0L157.5,108A.045.045,0,0,1,157.587,108Z" transform="translate(-149.237 -107.968)"/><path class="a" d="M157.587,138.653l.106.319.336,0a.045.045,0,0,1,.027.082l-.271.2.1.321a.045.045,0,0,1-.07.051l-.274-.2-.274.2a.045.045,0,0,1-.07-.051l.1-.321-.271-.2a.045.045,0,0,1,.027-.082l.336,0,.106-.319A.045.045,0,0,1,157.587,138.653Z" transform="translate(-149.237 -136.953)"/><path class="a" d="M157.587,169.308l.106.319.336,0a.045.045,0,0,1,.027.082l-.271.2.1.321a.045.045,0,0,1-.07.051l-.274-.2-.274.2a.045.045,0,0,1-.07-.051l.1-.321-.271-.2a.045.045,0,0,1,.027-.082l.336,0,.106-.319A.045.045,0,0,1,157.587,169.308Z" transform="translate(-149.237 -165.937)"/><path class="a" d="M157.587,199.962l.106.319.336,0a.045.045,0,0,1,.027.082l-.271.2.1.321a.045.045,0,0,1-.07.051l-.274-.2-.274.2a.045.045,0,0,1-.07-.051l.1-.321-.271-.2a.045.045,0,0,1,.027-.082l.336,0,.106-.319A.045.045,0,0,1,157.587,199.962Z" transform="translate(-149.237 -194.922)"/><path class="a" d="M157.587,230.616l.106.319.336,0a.045.045,0,0,1,.027.082l-.271.2.1.321a.045.045,0,0,1-.07.051l-.274-.2-.274.2a.045.045,0,0,1-.07-.051l.1-.321-.271-.2a.045.045,0,0,1,.027-.082l.336,0,.106-.319A.045.045,0,0,1,157.587,230.616Z" transform="translate(-149.237 -223.907)"/><path class="a" d="M181.38,123.028l.106.319.336,0a.045.045,0,0,1,.027.082l-.271.2.1.321a.045.045,0,0,1-.07.051l-.274-.2-.274.2a.045.045,0,0,1-.07-.051l.1-.321-.271-.2a.045.045,0,0,1,.027-.082l.336,0,.106-.319A.045.045,0,0,1,181.38,123.028Z" transform="translate(-171.734 -122.179)"/><path class="a" d="M181.38,153.683l.106.319.336,0a.045.045,0,0,1,.027.082l-.271.2.1.321a.045.045,0,0,1-.07.051l-.274-.2-.274.2a.045.045,0,0,1-.07-.051l.1-.321-.271-.2a.045.045,0,0,1,.027-.082l.336,0,.106-.319A.045.045,0,0,1,181.38,153.683Z" transform="translate(-171.734 -151.163)"/><path class="a" d="M181.38,184.337l.106.319.336,0a.045.045,0,0,1,.027.082l-.271.2.1.321a.045.045,0,0,1-.07.051l-.274-.2-.274.2a.045.045,0,0,1-.07-.051l.1-.321-.271-.2a.045.045,0,0,1,.027-.082l.336,0,.106-.319A.045.045,0,0,1,181.38,184.337Z" transform="translate(-171.734 -180.148)"/><path class="a" d="M181.38,214.991l.106.319.336,0a.045.045,0,0,1,.027.082l-.271.2.1.321a.045.045,0,0,1-.07.051l-.274-.2-.274.2a.045.045,0,0,1-.07-.051l.1-.321-.271-.2a.045.045,0,0,1,.027-.082l.336,0,.106-.319A.045.045,0,0,1,181.38,214.991Z" transform="translate(-171.734 -209.133)"/><path class="a" d="M205.174,108l.106.319.336,0a.045.045,0,0,1,.027.082l-.271.2.1.321a.045.045,0,0,1-.07.051l-.274-.2-.274.2a.045.045,0,0,1-.07-.051l.1-.321-.271-.2a.045.045,0,0,1,.027-.082l.336,0,.106-.319A.045.045,0,0,1,205.174,108Z" transform="translate(-194.232 -107.968)"/><path class="a" d="M205.174,138.653l.106.319.336,0a.045.045,0,0,1,.027.082l-.271.2.1.321a.045.045,0,0,1-.07.051l-.274-.2-.274.2a.045.045,0,0,1-.07-.051l.1-.321-.271-.2a.045.045,0,0,1,.027-.082l.336,0,.106-.319A.045.045,0,0,1,205.174,138.653Z" transform="translate(-194.232 -136.953)"/><path class="a" d="M205.174,169.308l.106.319.336,0a.045.045,0,0,1,.027.082l-.271.2.1.321a.045.045,0,0,1-.07.051l-.274-.2-.274.2a.045.045,0,0,1-.07-.051l.1-.321-.271-.2a.045.045,0,0,1,.027-.082l.336,0,.106-.319A.045.045,0,0,1,205.174,169.308Z" transform="translate(-194.232 -165.937)"/><path class="a" d="M205.174,199.962l.106.319.336,0a.045.045,0,0,1,.027.082l-.271.2.1.321a.045.045,0,0,1-.07.051l-.274-.2-.274.2a.045.045,0,0,1-.07-.051l.1-.321-.271-.2a.045.045,0,0,1,.027-.082l.336,0,.106-.319A.045.045,0,0,1,205.174,199.962Z" transform="translate(-194.232 -194.922)"/><path class="a" d="M205.174,230.616l.106.319.336,0a.045.045,0,0,1,.027.082l-.271.2.1.321a.045.045,0,0,1-.07.051l-.274-.2-.274.2a.045.045,0,0,1-.07-.051l.1-.321-.271-.2a.045.045,0,0,1,.027-.082l.336,0,.106-.319A.045.045,0,0,1,205.174,230.616Z" transform="translate(-194.232 -223.907)"/></g></svg>