<svg xmlns="http://www.w3.org/2000/svg" width="140" height="140" viewBox="0 0 140 140"><defs><style>.a{fill:#e7f0ff;}.b{fill:#fff;}</style></defs><circle class="a" cx="70" cy="70" r="70"/><path class="b" d="M30.953,34.822A17.411,17.411,0,1,0,13.542,17.411,17.416,17.416,0,0,0,30.953,34.822ZM46.43,38.691H39.767a21.047,21.047,0,0,1-17.629,0H15.477A15.475,15.475,0,0,0,0,54.168V56.1a5.805,5.805,0,0,0,5.8,5.8H56.1a5.805,5.805,0,0,0,5.8-5.8V54.168A15.475,15.475,0,0,0,46.43,38.691Z" transform="translate(38.6 39.5)"/></svg>