<svg xmlns="http://www.w3.org/2000/svg" width="50" height="50" viewBox="0 0 50 50"><defs><style>.a{fill:#fff;stroke:#bce0fd;}.b{fill:#bce0fd;}.c{stroke:none;}.d{fill:none;}</style></defs><g class="a"><circle class="c" cx="25" cy="25" r="25"/><circle class="d" cx="25" cy="25" r="24.5"/></g><path class="b" d="M14,15.75A7.875,7.875,0,1,0,6.125,7.875,7.877,7.877,0,0,0,14,15.75Zm7,1.75H17.987a9.52,9.52,0,0,1-7.973,0H7a7,7,0,0,0-7,7v.875A2.626,2.626,0,0,0,2.625,28h22.75A2.626,2.626,0,0,0,28,25.375V24.5A7,7,0,0,0,21,17.5Z" transform="translate(11 10.761)"/></svg>