<svg width="25" height="20" viewBox="0 0 25 20" fill="none" xmlns="http://www.w3.org/2000/svg">
<path d="M16.25 19V17C16.25 15.9391 15.8286 14.9217 15.0784 14.1716C14.3283 13.4214 13.3109 13 12.25 13H5.25C4.18913 13 3.17172 13.4214 2.42157 14.1716C1.67143 14.9217 1.25 15.9391 1.25 17V19M20.25 6V12M23.25 9H17.25M12.75 5C12.75 7.20914 10.9591 9 8.75 9C6.54086 9 4.75 7.20914 4.75 5C4.75 2.79086 6.54086 1 8.75 1C10.9591 1 12.75 2.79086 12.75 5Z" stroke="white" stroke-width="2" stroke-linecap="round" stroke-linejoin="round"/>
</svg>
