<svg xmlns="http://www.w3.org/2000/svg" width="42.879" height="13.728" viewBox="0 0 42.879 13.728"><defs><style>.a{fill:#fff;}</style></defs><g transform="translate(-6.7 -23.8)"><path class="a" d="M26.7,24.1,24.5,37.489h3.474l2.2-13.389Z" transform="translate(-2.716 -0.046)"/><path class="a" d="M49.549,24.1h0a1.663,1.663,0,0,0-1.78,1.1L42.6,37.574h3.644s.593-1.695.763-2.034h4.407c.085.508.424,2.034.424,2.034h3.22L52.261,24.1Zm-1.61,8.644c.254-.763,1.356-3.729,1.356-3.729l.424-1.271h0l.254,1.186s.678,3.22.847,3.9H47.939Z" transform="translate(-5.478 -0.046)"/><path class="a" d="M38.134,29.478c-1.186-.593-1.949-1.017-1.949-1.695,0-.593.593-1.186,1.949-1.186a7.216,7.216,0,0,1,2.627.508l.339.169.508-2.881a8.914,8.914,0,0,0-3.135-.593h0c-3.39,0-5.847,1.864-5.847,4.407,0,1.949,1.695,3.051,3.051,3.644,1.356.678,1.78,1.1,1.78,1.695,0,.932-1.1,1.271-2.119,1.271a7.228,7.228,0,0,1-3.3-.678l-.424-.254L31.1,36.85a11.127,11.127,0,0,0,3.9.678c3.644,0,6.017-1.78,6.017-4.576C41.1,31.6,40.167,30.41,38.134,29.478Z" transform="translate(-3.723 0)"/><path class="a" d="M18.9,24.1h0l-3.39,9.152-.339-1.864h0L13.988,25.2c-.169-.847-.847-1.1-1.61-1.1H6.869c-.085,0-.085.085-.169.085,0,.085,0,.169.085.169a14.348,14.348,0,0,1,2.288.847,2.891,2.891,0,0,1,1.525,1.78l2.8,10.508h3.644L22.462,24.1H18.9Z" transform="translate(0 -0.046)"/></g></svg>