<svg width="29" height="27" viewBox="0 0 29 27" fill="none" xmlns="http://www.w3.org/2000/svg">
<path d="M4.21184 27H23.8653C27.0998 27 29.133 23.25 27.5311 20.3152L17.6736 2.25C16.0717 -0.75 12.0055 -0.75 10.4036 2.25L0.546063 20.3152C-1.02498 23.2826 0.977331 27 4.21184 27ZM14.0694 22.9891C13.2069 22.9891 12.4983 22.2391 12.4983 21.3261C12.4983 20.413 13.2069 19.663 14.0694 19.663C14.9319 19.663 15.6404 20.413 15.6096 21.3587C15.6404 22.2391 14.9011 22.9891 14.0694 22.9891ZM13.6689 7.98913C14.4082 7.79348 15.1784 8.18478 15.4864 8.93478C15.5788 9.19565 15.6404 9.45652 15.6404 9.75C15.6096 10.5652 15.548 11.413 15.4864 12.2283C15.4248 13.5 15.3324 14.8043 15.2708 16.0761C15.24 16.5 15.24 16.8587 15.24 17.2826C15.2092 17.9674 14.7163 18.4891 14.0694 18.4891C13.4225 18.4891 12.9296 18 12.8988 17.3152C12.8064 15.3261 12.6832 13.337 12.5908 11.3478C12.56 10.8261 12.5291 10.3043 12.4983 9.75C12.4675 8.93478 12.9296 8.21739 13.6689 7.98913Z" fill="#F04438"/>
</svg>
