<svg width="1084" height="180" viewBox="0 0 1084 180" fill="none" xmlns="http://www.w3.org/2000/svg">
<path d="M80.7141 133.846H76.0713V147.692H80.7141V133.846Z" fill="#163587"/>
<path d="M110.893 150H69.1076C67.8261 150 66.7861 148.966 66.7861 147.692C66.7861 146.419 67.8261 145.385 69.1076 145.385H110.893C112.175 145.385 113.215 146.419 113.215 147.692C113.215 148.966 112.175 150 110.893 150Z" fill="#163587"/>
<path d="M103.929 133.846H99.2861V147.692H103.929V133.846Z" fill="#163587"/>
<path d="M148.036 136.154H31.9643C28.1246 136.154 25 133.048 25 129.231V55.385C25 51.5681 28.1246 48.4619 31.9643 48.4619H85.3571C86.6386 48.4619 87.6786 49.4958 87.6786 50.7696C87.6786 52.0435 86.6386 53.0773 85.3571 53.0773H31.9643C30.6852 53.0773 29.6429 54.1135 29.6429 55.385V129.231C29.6429 130.503 30.6852 131.539 31.9643 131.539H148.036C149.315 131.539 150.357 130.503 150.357 129.231V55.385C150.357 54.1135 149.315 53.0773 148.036 53.0773H141.071C139.79 53.0773 138.75 52.0435 138.75 50.7696C138.75 49.4958 139.79 48.4619 141.071 48.4619H148.036C151.875 48.4619 155 51.5681 155 55.385V129.231C155 133.048 151.875 136.154 148.036 136.154Z" fill="#163587"/>
<path d="M62.1424 94.6152C54.4608 94.6152 48.2139 88.4052 48.2139 80.769C48.2139 73.1329 54.4608 66.9229 62.1424 66.9229C69.824 66.9229 76.071 73.1329 76.071 80.769C76.071 88.4052 69.824 94.6152 62.1424 94.6152ZM62.1424 71.5382C57.0214 71.5382 52.8567 75.6782 52.8567 80.769C52.8567 85.8598 57.0214 89.9998 62.1424 89.9998C67.2635 89.9998 71.4282 85.8598 71.4282 80.769C71.4282 75.6782 67.2635 71.5382 62.1424 71.5382Z" fill="#1652F0"/>
<path d="M83.0359 122.307C81.7544 122.307 80.7144 121.274 80.7144 120V107.787C80.7144 104.94 78.9966 102.417 76.3362 101.361L71.9859 99.6298L63.7819 107.785C62.8742 108.687 61.4071 108.687 60.4994 107.785L52.2955 99.6298L47.9451 101.361C45.2894 102.417 43.5716 104.94 43.5716 107.787V120C43.5716 121.274 42.5316 122.307 41.2501 122.307C39.9687 122.307 38.9287 121.274 38.9287 120V107.787C38.9287 103.041 41.791 98.8359 46.225 97.0728L51.996 94.779C52.8573 94.4375 53.8416 94.6359 54.4985 95.2913L62.143 102.891L69.7875 95.2913C70.4421 94.6382 71.431 94.4375 72.29 94.779L78.061 97.0728C82.495 98.8359 85.3573 103.041 85.3573 107.787V120C85.3573 121.274 84.3173 122.307 83.0359 122.307Z" fill="#1652F0"/>
<path d="M113.214 94.6154H83.0357C82.0979 94.6154 81.2506 94.0523 80.8907 93.1915C80.5309 92.3308 80.7306 91.3362 81.3945 90.6762L88.6489 83.4646C83.5163 77.5915 80.7143 70.1631 80.7143 62.3077C80.7143 44.4923 95.2929 30 113.214 30C131.136 30 145.714 44.4923 145.714 62.3077C145.714 80.1231 131.136 94.6154 113.214 94.6154ZM88.6397 90H113.214C128.575 90 141.071 77.5777 141.071 62.3077C141.071 47.0377 128.575 34.6154 113.214 34.6154C97.8534 34.6154 85.3572 47.0377 85.3572 62.3077C85.3572 69.7038 88.2543 76.6569 93.517 81.8885C94.4247 82.7908 94.4247 84.2492 93.517 85.1515L88.6397 90Z" fill="#1652F0"/>
<path d="M124.822 57.6925H101.608C100.326 57.6925 99.2861 56.6587 99.2861 55.3848C99.2861 54.111 100.326 53.0771 101.608 53.0771H124.822C126.103 53.0771 127.143 54.111 127.143 55.3848C127.143 56.6587 126.103 57.6925 124.822 57.6925Z" fill="#1652F0"/>
<path d="M124.822 71.5382H101.608C100.326 71.5382 99.2861 70.5044 99.2861 69.2305C99.2861 67.9567 100.326 66.9229 101.608 66.9229H124.822C126.103 66.9229 127.143 67.9567 127.143 69.2305C127.143 70.5044 126.103 71.5382 124.822 71.5382Z" fill="#1652F0"/>
<path d="M73.7501 122.308C72.4687 122.308 71.4287 121.274 71.4287 120V113.077C71.4287 111.803 72.4687 110.77 73.7501 110.77C75.0316 110.77 76.0716 111.803 76.0716 113.077V120C76.0716 121.274 75.0316 122.308 73.7501 122.308Z" fill="#1652F0"/>
<path d="M50.5353 122.308C49.2539 122.308 48.2139 121.274 48.2139 120V113.077C48.2139 111.803 49.2539 110.77 50.5353 110.77C51.8167 110.77 52.8567 111.803 52.8567 113.077V120C52.8567 121.274 51.8167 122.308 50.5353 122.308Z" fill="#1652F0"/>
<path d="M152.679 122.308H27.3214C26.04 122.308 25 121.274 25 120C25 118.726 26.04 117.692 27.3214 117.692H152.679C153.96 117.692 155 118.726 155 120C155 121.274 153.96 122.308 152.679 122.308Z" fill="#163587"/>
<path d="M553.606 126.923H530.392C526.553 126.923 523.428 123.817 523.428 120V118.414C523.428 112.645 521.021 107.127 516.823 103.28C509.218 96.3135 504.856 86.4251 504.856 76.1535C504.856 55.7951 521.52 39.2305 541.999 39.2305C562.479 39.2305 579.142 55.7951 579.142 76.1535C579.142 86.4251 574.78 96.3135 567.175 103.283C562.978 107.13 560.571 112.645 560.571 118.414V120C560.571 123.817 557.446 126.923 553.606 126.923ZM541.999 43.8459C524.078 43.8459 509.499 58.3382 509.499 76.1535C509.499 85.142 513.316 93.7912 519.971 99.8882C525.12 104.607 528.071 111.362 528.071 118.414V120C528.071 121.274 529.113 122.307 530.392 122.307H553.606C554.888 122.307 555.928 121.274 555.928 120V118.414C555.928 111.357 558.878 104.607 564.027 99.8882C570.681 93.7912 574.499 85.1397 574.499 76.1535C574.499 58.3382 559.921 43.8459 541.999 43.8459Z" fill="#1652F0"/>
<path d="M548.964 145.384H535.036C531.196 145.384 528.071 142.278 528.071 138.461V124.615H532.714V138.461C532.714 139.735 533.756 140.769 535.036 140.769H548.964C550.246 140.769 551.286 139.735 551.286 138.461V124.615H555.928V138.461C555.928 142.278 552.804 145.384 548.964 145.384Z" fill="#1652F0"/>
<path d="M541.999 149.999C538.16 149.999 535.035 146.893 535.035 143.076H539.678C539.678 144.35 540.72 145.384 541.999 145.384C543.279 145.384 544.321 144.35 544.321 143.076H548.964C548.964 146.893 545.839 149.999 541.999 149.999Z" fill="#1652F0"/>
<path d="M569.857 140.769C566.017 140.769 562.893 137.663 562.893 133.846H567.535C567.535 135.12 568.575 136.153 569.857 136.153C571.138 136.153 572.178 135.12 572.178 133.846H576.821C576.821 137.663 573.697 140.769 569.857 140.769Z" fill="#163587"/>
<path d="M553.607 136.154H539.679C538.397 136.154 537.357 135.123 537.357 133.847C537.357 132.571 538.397 131.539 539.679 131.539H553.607C554.891 131.539 555.929 132.571 555.929 133.847C555.929 135.123 554.891 136.154 553.607 136.154Z" fill="#1652F0"/>
<path d="M576.82 136.153H562.892C561.608 136.153 560.57 135.122 560.57 133.845C560.57 132.569 561.608 131.538 562.892 131.538H576.82C578.102 131.538 579.142 130.504 579.142 129.23V115.384C579.142 114.108 580.179 113.076 581.463 113.076C582.747 113.076 583.785 114.108 583.785 115.384V129.23C583.785 133.047 580.66 136.153 576.82 136.153Z" fill="#163587"/>
<path d="M581.464 126.924H567.535C566.252 126.924 565.214 125.892 565.214 124.616C565.214 123.34 566.252 122.309 567.535 122.309H581.464C582.748 122.309 583.785 123.34 583.785 124.616C583.785 125.892 582.748 126.924 581.464 126.924Z" fill="#163587"/>
<path d="M514.143 140.769C510.303 140.769 507.179 137.663 507.179 133.846H511.822C511.822 135.12 512.864 136.153 514.143 136.153C515.422 136.153 516.464 135.12 516.464 133.846H521.107C521.107 137.663 517.983 140.769 514.143 140.769Z" fill="#163587"/>
<path d="M521.107 136.153H507.178C503.339 136.153 500.214 133.047 500.214 129.23V115.384C500.214 114.108 501.254 113.076 502.535 113.076C503.817 113.076 504.857 114.108 504.857 115.384V129.23C504.857 130.504 505.899 131.538 507.178 131.538H521.107C522.388 131.538 523.428 132.569 523.428 133.845C523.428 135.122 522.388 136.153 521.107 136.153Z" fill="#163587"/>
<path d="M516.464 126.924H502.535C501.254 126.924 500.214 125.892 500.214 124.616C500.214 123.34 501.254 122.309 502.535 122.309H516.464C517.745 122.309 518.785 123.34 518.785 124.616C518.785 125.892 517.745 126.924 516.464 126.924Z" fill="#163587"/>
<path d="M537.356 99.2303C536.762 99.2303 536.168 99.0041 535.715 98.5541L519.465 82.4003C518.557 81.498 518.557 80.0395 519.465 79.1372L526.429 72.2141C527.337 71.3118 528.804 71.3118 529.712 72.2141L537.356 79.8134L554.286 62.9834C555.194 62.0811 556.661 62.0811 557.569 62.9834L564.533 69.9064C565.441 70.8088 565.441 72.2672 564.533 73.1695L538.997 98.5541C538.545 99.0041 537.95 99.2303 537.356 99.2303ZM524.389 80.7688L537.356 93.6595L559.609 71.538L555.928 67.878L538.997 84.708C538.09 85.6103 536.623 85.6103 535.715 84.708L528.07 77.1088L524.389 80.7688Z" fill="#1652F0"/>
<path d="M581.464 117.692H558.475V113.077H581.464C582.746 113.077 583.786 112.043 583.786 110.769V109.184C583.786 102.127 586.736 95.3769 591.885 90.6577C598.538 84.5608 602.357 75.9092 602.357 66.9231C602.357 49.1077 587.778 34.6154 569.857 34.6154C561.553 34.6154 553.637 37.7538 547.564 43.4562L544.377 40.1031C551.316 33.5885 560.362 30 569.857 30C590.337 30 607 46.5646 607 66.9231C607 77.1946 602.638 87.0831 595.033 94.0523C590.836 97.8992 588.428 103.415 588.428 109.184V110.769C588.428 114.586 585.304 117.692 581.464 117.692Z" fill="#163587"/>
<path d="M525.527 117.692H502.536C498.696 117.692 495.571 114.586 495.571 110.769V109.184C495.571 103.415 493.164 97.8969 488.967 94.05C481.362 87.0831 477 77.1946 477 66.9231C477 46.5646 493.663 30 514.143 30C523.635 30 532.684 33.5885 539.621 40.1031L536.433 43.4562C530.363 37.7538 522.447 34.6154 514.143 34.6154C496.221 34.6154 481.643 49.1077 481.643 66.9231C481.643 75.9115 485.459 84.5608 492.115 90.6577C497.264 95.3769 500.214 102.132 500.214 109.184V110.769C500.214 112.043 501.257 113.077 502.536 113.077H525.527V117.692Z" fill="#163587"/>
<g clip-path="url(#clip0_2169_53481)">
<path d="M963.492 143.998C960.551 143.998 957.608 142.879 955.37 140.641C950.891 136.165 950.891 128.875 955.37 124.398L965.4 114.369C969.876 109.893 977.166 109.893 981.642 114.369C986.122 118.845 986.122 126.135 981.642 130.612L971.613 140.641C969.375 142.879 966.432 143.998 963.492 143.998ZM973.521 117.009C972.117 117.009 970.71 117.543 969.642 118.611L959.612 128.641C957.473 130.78 957.473 134.26 959.612 136.399C961.751 138.538 965.232 138.538 967.371 136.399L977.4 126.369C979.539 124.23 979.539 120.75 977.4 118.611C976.329 117.54 974.922 117.009 973.521 117.009Z" fill="#152141"/>
<path d="M951.491 131.997C948.55 131.997 945.607 130.878 943.369 128.64C938.89 124.164 938.89 116.874 943.369 112.397L953.399 102.368C957.875 97.8917 965.165 97.8917 969.641 102.368C974.121 106.844 974.121 114.134 969.641 118.611L959.612 128.64C957.374 130.878 954.431 131.997 951.491 131.997ZM961.52 105.008C960.116 105.008 958.709 105.542 957.641 106.61L947.611 116.64C945.472 118.779 945.472 122.259 947.611 124.398C949.751 126.537 953.231 126.537 955.37 124.398L965.399 114.369C967.538 112.229 967.538 108.749 965.399 106.61C964.328 105.539 962.921 105.008 961.52 105.008Z" fill="#152141"/>
<path d="M942.491 116.997C939.55 116.997 936.607 115.878 934.369 113.639C929.89 109.163 929.89 101.873 934.369 97.3966L941.399 90.3672C945.875 85.888 953.165 85.888 957.641 90.3672C962.121 94.8465 962.121 102.134 957.641 106.61L950.612 113.639C948.374 115.878 945.431 116.997 942.491 116.997ZM949.52 93.0044C948.116 93.0044 946.709 93.5384 945.641 94.6094L938.611 101.639C936.472 103.778 936.472 107.258 938.611 109.397C940.751 111.536 944.231 111.536 946.37 109.397L953.399 102.368C955.538 100.229 955.538 96.7485 953.399 94.6094C952.328 93.5384 950.921 93.0044 949.52 93.0044Z" fill="#152141"/>
<path d="M992.017 48.219C991.108 48.069 990.304 47.997 989.551 47.997L961.005 48C958.515 48 955.919 47.775 953.072 47.313L954.032 41.3877C956.558 41.7987 958.839 41.9997 961.005 41.9997H989.551C990.634 41.9997 991.762 42.0987 992.995 42.3057L992.017 48.219Z" fill="#1652F0"/>
<path d="M1024.52 143.998C1021.58 143.998 1018.64 142.879 1016.4 140.641L1000.88 125.124C999.712 123.951 999.712 122.055 1000.88 120.882C1002.06 119.709 1003.95 119.709 1005.13 120.882L1020.64 136.399C1022.78 138.538 1026.26 138.538 1028.4 136.399C1030.54 134.259 1030.54 130.779 1028.4 128.64C1027.23 127.467 1027.23 125.571 1028.4 124.398C1029.57 123.225 1031.47 123.225 1032.64 124.398C1037.12 128.874 1037.12 136.165 1032.64 140.641C1030.4 142.879 1027.46 143.998 1024.52 143.998Z" fill="#1652F0"/>
<path d="M1036.52 131.998C1033.58 131.998 1030.64 130.879 1028.4 128.641L1012.89 113.124C1011.71 111.951 1011.71 110.055 1012.89 108.882C1014.06 107.709 1015.95 107.709 1017.13 108.882L1032.64 124.399C1034.78 126.538 1038.26 126.538 1040.4 124.399C1042.54 122.259 1042.54 118.779 1040.4 116.64L1037.4 113.64C1036.23 112.467 1036.23 110.571 1037.4 109.398C1038.57 108.225 1040.47 108.225 1041.64 109.398L1044.64 112.398C1049.12 116.874 1049.12 124.165 1044.64 128.641C1042.4 130.879 1039.46 131.998 1036.52 131.998Z" fill="#1652F0"/>
<path d="M1006.52 149.999C1003.58 149.999 1000.64 148.88 998.398 146.642L991.333 139.577C990.16 138.404 990.16 136.508 991.333 135.335C992.506 134.162 994.402 134.162 995.575 135.335L1002.64 142.4C1004.78 144.539 1008.26 144.539 1010.4 142.4C1012.54 140.261 1012.54 136.781 1010.4 134.642C1009.23 133.468 1009.23 131.572 1010.4 130.399C1011.57 129.226 1013.47 129.226 1014.64 130.399C1019.12 134.876 1019.12 142.166 1014.64 146.642C1012.4 148.88 1009.46 149.999 1006.52 149.999Z" fill="#1652F0"/>
<path d="M981.493 149.998C978.552 149.998 975.609 148.879 973.371 146.641C968.892 142.165 968.892 134.874 973.371 130.398L977.4 126.369C981.877 121.893 989.167 121.893 993.643 126.369C998.122 130.845 998.122 138.135 993.643 142.612L989.614 146.641C987.376 148.879 984.433 149.998 981.493 149.998ZM985.522 129.009C984.118 129.009 982.711 129.543 981.643 130.611L977.613 134.64C975.474 136.779 975.474 140.26 977.613 142.399C979.752 144.538 983.233 144.538 985.372 142.399L989.401 138.369C991.54 136.23 991.54 132.75 989.401 130.611C988.33 129.54 986.923 129.009 985.522 129.009Z" fill="#152141"/>
<path d="M1045.51 117.003C1042.48 117.003 1039.57 115.809 1037.4 113.64L1024.89 101.123C1023.71 99.9499 1023.71 98.0508 1024.89 96.8808C1026.06 95.7077 1027.95 95.7077 1029.13 96.8808L1041.64 109.397C1042.81 110.558 1044.39 111.14 1046.05 110.975C1047.71 110.816 1049.15 109.949 1050.11 108.533C1051.54 106.433 1051.13 103.37 1049.18 101.414C1048 100.241 1048 98.3418 1049.18 97.1688C1050.35 95.9987 1052.25 95.9957 1053.42 97.1718C1057.44 101.192 1058.14 107.387 1055.08 111.9C1053.13 114.783 1050.04 116.625 1046.62 116.952C1046.25 116.985 1045.88 117.003 1045.51 117.003Z" fill="#1652F0"/>
<path d="M1066.01 102.002C1065.76 102.002 1065.51 101.969 1065.26 101.906C1064.48 101.705 1063.81 101.201 1063.41 100.502L1030.41 43.3403C1029.59 41.9152 1030.07 40.0911 1031.48 39.2571L1046.48 30.4156C1047.17 30.0076 1047.99 29.8966 1048.77 30.0976C1049.54 30.3016 1050.2 30.8027 1050.6 31.4957L1083.61 88.4985C1084.42 89.9176 1083.96 91.7327 1082.55 92.5728L1067.55 101.573C1067.08 101.855 1066.55 102.002 1066.01 102.002ZM1037.09 42.9143L1067.08 94.8559L1076.93 88.9456L1046.93 37.118L1037.09 42.9143Z" fill="#152141"/>
<path d="M922.002 102.002C921.462 102.002 920.931 101.855 920.457 101.573L905.456 92.5728C904.052 91.7297 903.584 89.9146 904.403 88.4985L937.405 31.4957C937.807 30.8027 938.467 30.3016 939.238 30.0976C940.015 29.8966 940.834 30.0076 941.524 30.4156L956.525 39.2571C957.944 40.0911 958.424 41.9152 957.599 43.3403L924.597 100.502C924.195 101.198 923.532 101.702 922.752 101.906C922.506 101.969 922.254 102.002 922.002 102.002ZM911.075 88.9486L920.928 94.8589L950.917 42.9173L941.083 37.118L911.075 88.9486Z" fill="#1652F0"/>
<path d="M1051.3 102.294C1050.52 102.294 1049.75 101.991 1049.18 101.415L1021.89 74.1253C1014.25 66.4839 1001.98 66.2049 994.005 73.2942V78.0015C994.005 86.2729 987.276 93.0022 979.004 93.0022H976.004C972.695 93.0022 970.004 90.3111 970.004 87.0019V63.7267C970.004 60.5226 971.252 57.5074 973.52 55.2423L979.01 49.749C984.3 44.4598 989.526 41.9967 995.46 41.9967L1027.01 41.9997C1029.17 41.9997 1031.45 41.8016 1033.98 41.3906L1034.94 47.3159C1032.09 47.7749 1029.5 48 1027.01 48H995.46C991.161 48 987.396 49.848 983.253 53.9943L977.762 59.4875C976.646 60.6006 976.004 62.1487 976.004 63.7267V87.0019H979.004C983.967 87.0019 988.005 82.9637 988.005 78.0015V72.0012C988.005 71.2061 988.32 70.4411 988.884 69.88C999.168 59.6135 1015.87 59.6195 1026.13 69.883L1051.87 95.6243L1061.39 90.7221L1064.14 96.0564L1052.67 101.961C1052.24 102.186 1051.77 102.294 1051.3 102.294Z" fill="#152141"/>
<path d="M926.61 90.7227L923.864 96.0576L935.334 101.961L938.08 96.6261L926.61 90.7227Z" fill="#1652F0"/>
</g>
<defs>
<clipPath id="clip0_2169_53481">
<rect width="180" height="180" fill="white" transform="translate(904)"/>
</clipPath>
</defs>
</svg>
